G04 #@! TF.GenerationSoftware,KiCad,Pcbnew,5.1.5+dfsg1-2build2*
G04 #@! TF.CreationDate,2021-08-26T01:23:47+05:30*
G04 #@! TF.ProjectId,AS5600-Encoder-PCB,41533536-3030-42d4-956e-636f6465722d,rev?*
G04 #@! TF.SameCoordinates,Original*
G04 #@! TF.FileFunction,Copper,L1,Top*
G04 #@! TF.FilePolarity,Positive*
%FSLAX46Y46*%
G04 Gerber Fmt 4.6, Leading zero omitted, Abs format (unit mm)*
G04 Created by KiCad (PCBNEW 5.1.5+dfsg1-2build2) date 2021-08-26 01:23:47*
%MOMM*%
%LPD*%
G04 APERTURE LIST*
%ADD10R,1.000000X1.500000*%
%ADD11R,1.500000X1.000000*%
%ADD12C,0.100000*%
%ADD13O,1.700000X1.700000*%
%ADD14R,1.700000X1.700000*%
%ADD15R,1.500000X0.650000*%
%ADD16C,0.400000*%
%ADD17C,0.300000*%
%ADD18C,0.254000*%
G04 APERTURE END LIST*
D10*
X206720200Y-148463000D03*
X205420200Y-148463000D03*
D11*
X207187800Y-151623000D03*
X207187800Y-152923000D03*
D10*
X206694800Y-159664400D03*
X205394800Y-159664400D03*
G04 #@! TA.AperFunction,SMDPad,CuDef*
D12*
G36*
X202988779Y-150275144D02*
G01*
X203011834Y-150278563D01*
X203034443Y-150284227D01*
X203056387Y-150292079D01*
X203077457Y-150302044D01*
X203097448Y-150314026D01*
X203116168Y-150327910D01*
X203133438Y-150343562D01*
X203149090Y-150360832D01*
X203162974Y-150379552D01*
X203174956Y-150399543D01*
X203184921Y-150420613D01*
X203192773Y-150442557D01*
X203198437Y-150465166D01*
X203201856Y-150488221D01*
X203203000Y-150511500D01*
X203203000Y-150986500D01*
X203201856Y-151009779D01*
X203198437Y-151032834D01*
X203192773Y-151055443D01*
X203184921Y-151077387D01*
X203174956Y-151098457D01*
X203162974Y-151118448D01*
X203149090Y-151137168D01*
X203133438Y-151154438D01*
X203116168Y-151170090D01*
X203097448Y-151183974D01*
X203077457Y-151195956D01*
X203056387Y-151205921D01*
X203034443Y-151213773D01*
X203011834Y-151219437D01*
X202988779Y-151222856D01*
X202965500Y-151224000D01*
X202390500Y-151224000D01*
X202367221Y-151222856D01*
X202344166Y-151219437D01*
X202321557Y-151213773D01*
X202299613Y-151205921D01*
X202278543Y-151195956D01*
X202258552Y-151183974D01*
X202239832Y-151170090D01*
X202222562Y-151154438D01*
X202206910Y-151137168D01*
X202193026Y-151118448D01*
X202181044Y-151098457D01*
X202171079Y-151077387D01*
X202163227Y-151055443D01*
X202157563Y-151032834D01*
X202154144Y-151009779D01*
X202153000Y-150986500D01*
X202153000Y-150511500D01*
X202154144Y-150488221D01*
X202157563Y-150465166D01*
X202163227Y-150442557D01*
X202171079Y-150420613D01*
X202181044Y-150399543D01*
X202193026Y-150379552D01*
X202206910Y-150360832D01*
X202222562Y-150343562D01*
X202239832Y-150327910D01*
X202258552Y-150314026D01*
X202278543Y-150302044D01*
X202299613Y-150292079D01*
X202321557Y-150284227D01*
X202344166Y-150278563D01*
X202367221Y-150275144D01*
X202390500Y-150274000D01*
X202965500Y-150274000D01*
X202988779Y-150275144D01*
G37*
G04 #@! TD.AperFunction*
G04 #@! TA.AperFunction,SMDPad,CuDef*
G36*
X201238779Y-150275144D02*
G01*
X201261834Y-150278563D01*
X201284443Y-150284227D01*
X201306387Y-150292079D01*
X201327457Y-150302044D01*
X201347448Y-150314026D01*
X201366168Y-150327910D01*
X201383438Y-150343562D01*
X201399090Y-150360832D01*
X201412974Y-150379552D01*
X201424956Y-150399543D01*
X201434921Y-150420613D01*
X201442773Y-150442557D01*
X201448437Y-150465166D01*
X201451856Y-150488221D01*
X201453000Y-150511500D01*
X201453000Y-150986500D01*
X201451856Y-151009779D01*
X201448437Y-151032834D01*
X201442773Y-151055443D01*
X201434921Y-151077387D01*
X201424956Y-151098457D01*
X201412974Y-151118448D01*
X201399090Y-151137168D01*
X201383438Y-151154438D01*
X201366168Y-151170090D01*
X201347448Y-151183974D01*
X201327457Y-151195956D01*
X201306387Y-151205921D01*
X201284443Y-151213773D01*
X201261834Y-151219437D01*
X201238779Y-151222856D01*
X201215500Y-151224000D01*
X200640500Y-151224000D01*
X200617221Y-151222856D01*
X200594166Y-151219437D01*
X200571557Y-151213773D01*
X200549613Y-151205921D01*
X200528543Y-151195956D01*
X200508552Y-151183974D01*
X200489832Y-151170090D01*
X200472562Y-151154438D01*
X200456910Y-151137168D01*
X200443026Y-151118448D01*
X200431044Y-151098457D01*
X200421079Y-151077387D01*
X200413227Y-151055443D01*
X200407563Y-151032834D01*
X200404144Y-151009779D01*
X200403000Y-150986500D01*
X200403000Y-150511500D01*
X200404144Y-150488221D01*
X200407563Y-150465166D01*
X200413227Y-150442557D01*
X200421079Y-150420613D01*
X200431044Y-150399543D01*
X200443026Y-150379552D01*
X200456910Y-150360832D01*
X200472562Y-150343562D01*
X200489832Y-150327910D01*
X200508552Y-150314026D01*
X200528543Y-150302044D01*
X200549613Y-150292079D01*
X200571557Y-150284227D01*
X200594166Y-150278563D01*
X200617221Y-150275144D01*
X200640500Y-150274000D01*
X201215500Y-150274000D01*
X201238779Y-150275144D01*
G37*
G04 #@! TD.AperFunction*
G04 #@! TA.AperFunction,SMDPad,CuDef*
G36*
X202988779Y-159165144D02*
G01*
X203011834Y-159168563D01*
X203034443Y-159174227D01*
X203056387Y-159182079D01*
X203077457Y-159192044D01*
X203097448Y-159204026D01*
X203116168Y-159217910D01*
X203133438Y-159233562D01*
X203149090Y-159250832D01*
X203162974Y-159269552D01*
X203174956Y-159289543D01*
X203184921Y-159310613D01*
X203192773Y-159332557D01*
X203198437Y-159355166D01*
X203201856Y-159378221D01*
X203203000Y-159401500D01*
X203203000Y-159876500D01*
X203201856Y-159899779D01*
X203198437Y-159922834D01*
X203192773Y-159945443D01*
X203184921Y-159967387D01*
X203174956Y-159988457D01*
X203162974Y-160008448D01*
X203149090Y-160027168D01*
X203133438Y-160044438D01*
X203116168Y-160060090D01*
X203097448Y-160073974D01*
X203077457Y-160085956D01*
X203056387Y-160095921D01*
X203034443Y-160103773D01*
X203011834Y-160109437D01*
X202988779Y-160112856D01*
X202965500Y-160114000D01*
X202390500Y-160114000D01*
X202367221Y-160112856D01*
X202344166Y-160109437D01*
X202321557Y-160103773D01*
X202299613Y-160095921D01*
X202278543Y-160085956D01*
X202258552Y-160073974D01*
X202239832Y-160060090D01*
X202222562Y-160044438D01*
X202206910Y-160027168D01*
X202193026Y-160008448D01*
X202181044Y-159988457D01*
X202171079Y-159967387D01*
X202163227Y-159945443D01*
X202157563Y-159922834D01*
X202154144Y-159899779D01*
X202153000Y-159876500D01*
X202153000Y-159401500D01*
X202154144Y-159378221D01*
X202157563Y-159355166D01*
X202163227Y-159332557D01*
X202171079Y-159310613D01*
X202181044Y-159289543D01*
X202193026Y-159269552D01*
X202206910Y-159250832D01*
X202222562Y-159233562D01*
X202239832Y-159217910D01*
X202258552Y-159204026D01*
X202278543Y-159192044D01*
X202299613Y-159182079D01*
X202321557Y-159174227D01*
X202344166Y-159168563D01*
X202367221Y-159165144D01*
X202390500Y-159164000D01*
X202965500Y-159164000D01*
X202988779Y-159165144D01*
G37*
G04 #@! TD.AperFunction*
G04 #@! TA.AperFunction,SMDPad,CuDef*
G36*
X201238779Y-159165144D02*
G01*
X201261834Y-159168563D01*
X201284443Y-159174227D01*
X201306387Y-159182079D01*
X201327457Y-159192044D01*
X201347448Y-159204026D01*
X201366168Y-159217910D01*
X201383438Y-159233562D01*
X201399090Y-159250832D01*
X201412974Y-159269552D01*
X201424956Y-159289543D01*
X201434921Y-159310613D01*
X201442773Y-159332557D01*
X201448437Y-159355166D01*
X201451856Y-159378221D01*
X201453000Y-159401500D01*
X201453000Y-159876500D01*
X201451856Y-159899779D01*
X201448437Y-159922834D01*
X201442773Y-159945443D01*
X201434921Y-159967387D01*
X201424956Y-159988457D01*
X201412974Y-160008448D01*
X201399090Y-160027168D01*
X201383438Y-160044438D01*
X201366168Y-160060090D01*
X201347448Y-160073974D01*
X201327457Y-160085956D01*
X201306387Y-160095921D01*
X201284443Y-160103773D01*
X201261834Y-160109437D01*
X201238779Y-160112856D01*
X201215500Y-160114000D01*
X200640500Y-160114000D01*
X200617221Y-160112856D01*
X200594166Y-160109437D01*
X200571557Y-160103773D01*
X200549613Y-160095921D01*
X200528543Y-160085956D01*
X200508552Y-160073974D01*
X200489832Y-160060090D01*
X200472562Y-160044438D01*
X200456910Y-160027168D01*
X200443026Y-160008448D01*
X200431044Y-159988457D01*
X200421079Y-159967387D01*
X200413227Y-159945443D01*
X200407563Y-159922834D01*
X200404144Y-159899779D01*
X200403000Y-159876500D01*
X200403000Y-159401500D01*
X200404144Y-159378221D01*
X200407563Y-159355166D01*
X200413227Y-159332557D01*
X200421079Y-159310613D01*
X200431044Y-159289543D01*
X200443026Y-159269552D01*
X200456910Y-159250832D01*
X200472562Y-159233562D01*
X200489832Y-159217910D01*
X200508552Y-159204026D01*
X200528543Y-159192044D01*
X200549613Y-159182079D01*
X200571557Y-159174227D01*
X200594166Y-159168563D01*
X200617221Y-159165144D01*
X200640500Y-159164000D01*
X201215500Y-159164000D01*
X201238779Y-159165144D01*
G37*
G04 #@! TD.AperFunction*
D13*
X192890000Y-158970000D03*
X192890000Y-156430000D03*
X192890000Y-153890000D03*
D14*
X192890000Y-151350000D03*
G04 #@! TA.AperFunction,SMDPad,CuDef*
D12*
G36*
X197118504Y-152769804D02*
G01*
X197142773Y-152773404D01*
X197166571Y-152779365D01*
X197189671Y-152787630D01*
X197211849Y-152798120D01*
X197232893Y-152810733D01*
X197252598Y-152825347D01*
X197270777Y-152841823D01*
X197287253Y-152860002D01*
X197301867Y-152879707D01*
X197314480Y-152900751D01*
X197324970Y-152922929D01*
X197333235Y-152946029D01*
X197339196Y-152969827D01*
X197342796Y-152994096D01*
X197344000Y-153018600D01*
X197344000Y-153943600D01*
X197342796Y-153968104D01*
X197339196Y-153992373D01*
X197333235Y-154016171D01*
X197324970Y-154039271D01*
X197314480Y-154061449D01*
X197301867Y-154082493D01*
X197287253Y-154102198D01*
X197270777Y-154120377D01*
X197252598Y-154136853D01*
X197232893Y-154151467D01*
X197211849Y-154164080D01*
X197189671Y-154174570D01*
X197166571Y-154182835D01*
X197142773Y-154188796D01*
X197118504Y-154192396D01*
X197094000Y-154193600D01*
X195844000Y-154193600D01*
X195819496Y-154192396D01*
X195795227Y-154188796D01*
X195771429Y-154182835D01*
X195748329Y-154174570D01*
X195726151Y-154164080D01*
X195705107Y-154151467D01*
X195685402Y-154136853D01*
X195667223Y-154120377D01*
X195650747Y-154102198D01*
X195636133Y-154082493D01*
X195623520Y-154061449D01*
X195613030Y-154039271D01*
X195604765Y-154016171D01*
X195598804Y-153992373D01*
X195595204Y-153968104D01*
X195594000Y-153943600D01*
X195594000Y-153018600D01*
X195595204Y-152994096D01*
X195598804Y-152969827D01*
X195604765Y-152946029D01*
X195613030Y-152922929D01*
X195623520Y-152900751D01*
X195636133Y-152879707D01*
X195650747Y-152860002D01*
X195667223Y-152841823D01*
X195685402Y-152825347D01*
X195705107Y-152810733D01*
X195726151Y-152798120D01*
X195748329Y-152787630D01*
X195771429Y-152779365D01*
X195795227Y-152773404D01*
X195819496Y-152769804D01*
X195844000Y-152768600D01*
X197094000Y-152768600D01*
X197118504Y-152769804D01*
G37*
G04 #@! TD.AperFunction*
G04 #@! TA.AperFunction,SMDPad,CuDef*
G36*
X197118504Y-149794804D02*
G01*
X197142773Y-149798404D01*
X197166571Y-149804365D01*
X197189671Y-149812630D01*
X197211849Y-149823120D01*
X197232893Y-149835733D01*
X197252598Y-149850347D01*
X197270777Y-149866823D01*
X197287253Y-149885002D01*
X197301867Y-149904707D01*
X197314480Y-149925751D01*
X197324970Y-149947929D01*
X197333235Y-149971029D01*
X197339196Y-149994827D01*
X197342796Y-150019096D01*
X197344000Y-150043600D01*
X197344000Y-150968600D01*
X197342796Y-150993104D01*
X197339196Y-151017373D01*
X197333235Y-151041171D01*
X197324970Y-151064271D01*
X197314480Y-151086449D01*
X197301867Y-151107493D01*
X197287253Y-151127198D01*
X197270777Y-151145377D01*
X197252598Y-151161853D01*
X197232893Y-151176467D01*
X197211849Y-151189080D01*
X197189671Y-151199570D01*
X197166571Y-151207835D01*
X197142773Y-151213796D01*
X197118504Y-151217396D01*
X197094000Y-151218600D01*
X195844000Y-151218600D01*
X195819496Y-151217396D01*
X195795227Y-151213796D01*
X195771429Y-151207835D01*
X195748329Y-151199570D01*
X195726151Y-151189080D01*
X195705107Y-151176467D01*
X195685402Y-151161853D01*
X195667223Y-151145377D01*
X195650747Y-151127198D01*
X195636133Y-151107493D01*
X195623520Y-151086449D01*
X195613030Y-151064271D01*
X195604765Y-151041171D01*
X195598804Y-151017373D01*
X195595204Y-150993104D01*
X195594000Y-150968600D01*
X195594000Y-150043600D01*
X195595204Y-150019096D01*
X195598804Y-149994827D01*
X195604765Y-149971029D01*
X195613030Y-149947929D01*
X195623520Y-149925751D01*
X195636133Y-149904707D01*
X195650747Y-149885002D01*
X195667223Y-149866823D01*
X195685402Y-149850347D01*
X195705107Y-149835733D01*
X195726151Y-149823120D01*
X195748329Y-149812630D01*
X195771429Y-149804365D01*
X195795227Y-149798404D01*
X195819496Y-149794804D01*
X195844000Y-149793600D01*
X197094000Y-149793600D01*
X197118504Y-149794804D01*
G37*
G04 #@! TD.AperFunction*
G04 #@! TA.AperFunction,SMDPad,CuDef*
G36*
X197118504Y-159094404D02*
G01*
X197142773Y-159098004D01*
X197166571Y-159103965D01*
X197189671Y-159112230D01*
X197211849Y-159122720D01*
X197232893Y-159135333D01*
X197252598Y-159149947D01*
X197270777Y-159166423D01*
X197287253Y-159184602D01*
X197301867Y-159204307D01*
X197314480Y-159225351D01*
X197324970Y-159247529D01*
X197333235Y-159270629D01*
X197339196Y-159294427D01*
X197342796Y-159318696D01*
X197344000Y-159343200D01*
X197344000Y-160268200D01*
X197342796Y-160292704D01*
X197339196Y-160316973D01*
X197333235Y-160340771D01*
X197324970Y-160363871D01*
X197314480Y-160386049D01*
X197301867Y-160407093D01*
X197287253Y-160426798D01*
X197270777Y-160444977D01*
X197252598Y-160461453D01*
X197232893Y-160476067D01*
X197211849Y-160488680D01*
X197189671Y-160499170D01*
X197166571Y-160507435D01*
X197142773Y-160513396D01*
X197118504Y-160516996D01*
X197094000Y-160518200D01*
X195844000Y-160518200D01*
X195819496Y-160516996D01*
X195795227Y-160513396D01*
X195771429Y-160507435D01*
X195748329Y-160499170D01*
X195726151Y-160488680D01*
X195705107Y-160476067D01*
X195685402Y-160461453D01*
X195667223Y-160444977D01*
X195650747Y-160426798D01*
X195636133Y-160407093D01*
X195623520Y-160386049D01*
X195613030Y-160363871D01*
X195604765Y-160340771D01*
X195598804Y-160316973D01*
X195595204Y-160292704D01*
X195594000Y-160268200D01*
X195594000Y-159343200D01*
X195595204Y-159318696D01*
X195598804Y-159294427D01*
X195604765Y-159270629D01*
X195613030Y-159247529D01*
X195623520Y-159225351D01*
X195636133Y-159204307D01*
X195650747Y-159184602D01*
X195667223Y-159166423D01*
X195685402Y-159149947D01*
X195705107Y-159135333D01*
X195726151Y-159122720D01*
X195748329Y-159112230D01*
X195771429Y-159103965D01*
X195795227Y-159098004D01*
X195819496Y-159094404D01*
X195844000Y-159093200D01*
X197094000Y-159093200D01*
X197118504Y-159094404D01*
G37*
G04 #@! TD.AperFunction*
G04 #@! TA.AperFunction,SMDPad,CuDef*
G36*
X197118504Y-156119404D02*
G01*
X197142773Y-156123004D01*
X197166571Y-156128965D01*
X197189671Y-156137230D01*
X197211849Y-156147720D01*
X197232893Y-156160333D01*
X197252598Y-156174947D01*
X197270777Y-156191423D01*
X197287253Y-156209602D01*
X197301867Y-156229307D01*
X197314480Y-156250351D01*
X197324970Y-156272529D01*
X197333235Y-156295629D01*
X197339196Y-156319427D01*
X197342796Y-156343696D01*
X197344000Y-156368200D01*
X197344000Y-157293200D01*
X197342796Y-157317704D01*
X197339196Y-157341973D01*
X197333235Y-157365771D01*
X197324970Y-157388871D01*
X197314480Y-157411049D01*
X197301867Y-157432093D01*
X197287253Y-157451798D01*
X197270777Y-157469977D01*
X197252598Y-157486453D01*
X197232893Y-157501067D01*
X197211849Y-157513680D01*
X197189671Y-157524170D01*
X197166571Y-157532435D01*
X197142773Y-157538396D01*
X197118504Y-157541996D01*
X197094000Y-157543200D01*
X195844000Y-157543200D01*
X195819496Y-157541996D01*
X195795227Y-157538396D01*
X195771429Y-157532435D01*
X195748329Y-157524170D01*
X195726151Y-157513680D01*
X195705107Y-157501067D01*
X195685402Y-157486453D01*
X195667223Y-157469977D01*
X195650747Y-157451798D01*
X195636133Y-157432093D01*
X195623520Y-157411049D01*
X195613030Y-157388871D01*
X195604765Y-157365771D01*
X195598804Y-157341973D01*
X195595204Y-157317704D01*
X195594000Y-157293200D01*
X195594000Y-156368200D01*
X195595204Y-156343696D01*
X195598804Y-156319427D01*
X195604765Y-156295629D01*
X195613030Y-156272529D01*
X195623520Y-156250351D01*
X195636133Y-156229307D01*
X195650747Y-156209602D01*
X195667223Y-156191423D01*
X195685402Y-156174947D01*
X195705107Y-156160333D01*
X195726151Y-156147720D01*
X195748329Y-156137230D01*
X195771429Y-156128965D01*
X195795227Y-156123004D01*
X195819496Y-156119404D01*
X195844000Y-156118200D01*
X197094000Y-156118200D01*
X197118504Y-156119404D01*
G37*
G04 #@! TD.AperFunction*
D13*
X210660000Y-158950000D03*
X210660000Y-156410000D03*
X210660000Y-153870000D03*
D14*
X210660000Y-151330000D03*
D15*
X204503000Y-153289000D03*
X204503000Y-154559000D03*
X204503000Y-155829000D03*
X204503000Y-157099000D03*
X199103000Y-157099000D03*
X199103000Y-155829000D03*
X199103000Y-154559000D03*
X199103000Y-153289000D03*
D16*
X200685100Y-150506100D02*
X200928000Y-150749000D01*
X196469000Y-150506100D02*
X200685100Y-150506100D01*
X199103000Y-152564000D02*
X199103000Y-153289000D01*
X199103000Y-152265100D02*
X199103000Y-152564000D01*
X197344000Y-150506100D02*
X199103000Y-152265100D01*
X196469000Y-150506100D02*
X197344000Y-150506100D01*
X199103000Y-153289000D02*
X199103000Y-154559000D01*
X200761300Y-159805700D02*
X200928000Y-159639000D01*
X196469000Y-159805700D02*
X200761300Y-159805700D01*
X200253000Y-154559000D02*
X199103000Y-154559000D01*
X200928000Y-155234000D02*
X200253000Y-154559000D01*
X200928000Y-159639000D02*
X200928000Y-155234000D01*
X194513200Y-151358600D02*
X192898600Y-151358600D01*
X195365700Y-150506100D02*
X194513200Y-151358600D01*
X192898600Y-151358600D02*
X192890000Y-151350000D01*
X196469000Y-150506100D02*
X195365700Y-150506100D01*
X205775800Y-151623000D02*
X207187800Y-151623000D01*
X203758800Y-149606000D02*
X205775800Y-151623000D01*
X201596000Y-149606000D02*
X203758800Y-149606000D01*
X200928000Y-150274000D02*
X201596000Y-149606000D01*
X200928000Y-150749000D02*
X200928000Y-150274000D01*
X196737300Y-157099000D02*
X196469000Y-156830700D01*
X199103000Y-157099000D02*
X196737300Y-157099000D01*
X193298900Y-153481100D02*
X192890000Y-153890000D01*
X196469000Y-153481100D02*
X193298900Y-153481100D01*
X195029300Y-156830700D02*
X192890000Y-158970000D01*
X196469000Y-156830700D02*
X195029300Y-156830700D01*
X192890000Y-160172081D02*
X194388919Y-161671000D01*
X192890000Y-158970000D02*
X192890000Y-160172081D01*
X194388919Y-161671000D02*
X204589000Y-161671000D01*
X192890000Y-153890000D02*
X191687919Y-153890000D01*
X191687919Y-153890000D02*
X191389000Y-154188919D01*
X191389000Y-157469000D02*
X192890000Y-158970000D01*
X191389000Y-154188919D02*
X191389000Y-157469000D01*
D17*
X205394800Y-160865200D02*
X205394800Y-159664400D01*
X204589000Y-161671000D02*
X205394800Y-160865200D01*
D16*
X204520200Y-148463000D02*
X205420200Y-148463000D01*
X194928458Y-148463000D02*
X204520200Y-148463000D01*
X193404458Y-149987000D02*
X194928458Y-148463000D01*
X191832998Y-149987000D02*
X193404458Y-149987000D01*
X191338200Y-150481798D02*
X191832998Y-149987000D01*
X191338200Y-153540281D02*
X191338200Y-150481798D01*
X191687919Y-153890000D02*
X191338200Y-153540281D01*
D17*
X210660000Y-151330000D02*
X210660000Y-150180000D01*
X210660000Y-150180000D02*
X208943000Y-148463000D01*
X206720200Y-148463000D02*
X208943000Y-148463000D01*
X206821800Y-153289000D02*
X207187800Y-152923000D01*
X204503000Y-153289000D02*
X206821800Y-153289000D01*
X209067000Y-152923000D02*
X210660000Y-151330000D01*
X207187800Y-152923000D02*
X209067000Y-152923000D01*
D16*
X198637360Y-156011880D02*
X199062360Y-156011880D01*
D17*
X210660000Y-154400000D02*
X210660000Y-153870000D01*
X209971000Y-154559000D02*
X210660000Y-153870000D01*
X204503000Y-154559000D02*
X209971000Y-154559000D01*
X202678000Y-151224000D02*
X202678000Y-150749000D01*
X202678000Y-154214800D02*
X202678000Y-151224000D01*
X203022200Y-154559000D02*
X202678000Y-154214800D01*
X204503000Y-154559000D02*
X203022200Y-154559000D01*
X210079000Y-155829000D02*
X210660000Y-156410000D01*
X204503000Y-155829000D02*
X210079000Y-155829000D01*
X202678000Y-159164000D02*
X202678000Y-159639000D01*
X202678000Y-156122400D02*
X202678000Y-159164000D01*
X202971400Y-155829000D02*
X202678000Y-156122400D01*
X204503000Y-155829000D02*
X202971400Y-155829000D01*
X208809000Y-157099000D02*
X210660000Y-158950000D01*
X204503000Y-157099000D02*
X208809000Y-157099000D01*
X209945600Y-159664400D02*
X210660000Y-158950000D01*
X206694800Y-159664400D02*
X209945600Y-159664400D01*
X198221600Y-155829000D02*
X199103000Y-155829000D01*
X194202200Y-155117800D02*
X197510400Y-155117800D01*
X197510400Y-155117800D02*
X198221600Y-155829000D01*
X192890000Y-156430000D02*
X194202200Y-155117800D01*
D18*
G36*
X210513740Y-160435000D02*
G01*
X210691847Y-160435000D01*
X210683969Y-160438263D01*
X210399802Y-160628137D01*
X210158137Y-160869802D01*
X209968263Y-161153969D01*
X209837475Y-161469719D01*
X209770800Y-161804917D01*
X209770800Y-162146683D01*
X209837475Y-162481881D01*
X209968263Y-162797631D01*
X210013946Y-162866000D01*
X193592054Y-162866000D01*
X193637737Y-162797631D01*
X193768525Y-162481881D01*
X193809536Y-162275705D01*
X193922773Y-162368636D01*
X194067832Y-162446172D01*
X194225230Y-162493918D01*
X194347900Y-162506000D01*
X194347901Y-162506000D01*
X194388919Y-162510040D01*
X194429937Y-162506000D01*
X204630019Y-162506000D01*
X204752689Y-162493918D01*
X204910087Y-162446172D01*
X205055146Y-162368636D01*
X205182291Y-162264291D01*
X205286636Y-162137146D01*
X205348213Y-162021945D01*
X205922617Y-161447541D01*
X205952564Y-161422964D01*
X206050662Y-161303433D01*
X206123554Y-161167060D01*
X206159372Y-161048983D01*
X206194800Y-161052472D01*
X207194800Y-161052472D01*
X207319282Y-161040212D01*
X207438980Y-161003902D01*
X207549294Y-160944937D01*
X207645985Y-160865585D01*
X207725337Y-160768894D01*
X207784302Y-160658580D01*
X207820612Y-160538882D01*
X207829425Y-160449400D01*
X209907047Y-160449400D01*
X209945600Y-160453197D01*
X209984153Y-160449400D01*
X209984161Y-160449400D01*
X210099487Y-160438041D01*
X210247460Y-160393154D01*
X210262623Y-160385049D01*
X210513740Y-160435000D01*
G37*
X210513740Y-160435000D02*
X210691847Y-160435000D01*
X210683969Y-160438263D01*
X210399802Y-160628137D01*
X210158137Y-160869802D01*
X209968263Y-161153969D01*
X209837475Y-161469719D01*
X209770800Y-161804917D01*
X209770800Y-162146683D01*
X209837475Y-162481881D01*
X209968263Y-162797631D01*
X210013946Y-162866000D01*
X193592054Y-162866000D01*
X193637737Y-162797631D01*
X193768525Y-162481881D01*
X193809536Y-162275705D01*
X193922773Y-162368636D01*
X194067832Y-162446172D01*
X194225230Y-162493918D01*
X194347900Y-162506000D01*
X194347901Y-162506000D01*
X194388919Y-162510040D01*
X194429937Y-162506000D01*
X204630019Y-162506000D01*
X204752689Y-162493918D01*
X204910087Y-162446172D01*
X205055146Y-162368636D01*
X205182291Y-162264291D01*
X205286636Y-162137146D01*
X205348213Y-162021945D01*
X205922617Y-161447541D01*
X205952564Y-161422964D01*
X206050662Y-161303433D01*
X206123554Y-161167060D01*
X206159372Y-161048983D01*
X206194800Y-161052472D01*
X207194800Y-161052472D01*
X207319282Y-161040212D01*
X207438980Y-161003902D01*
X207549294Y-160944937D01*
X207645985Y-160865585D01*
X207725337Y-160768894D01*
X207784302Y-160658580D01*
X207820612Y-160538882D01*
X207829425Y-160449400D01*
X209907047Y-160449400D01*
X209945600Y-160453197D01*
X209984153Y-160449400D01*
X209984161Y-160449400D01*
X210099487Y-160438041D01*
X210247460Y-160393154D01*
X210262623Y-160385049D01*
X210513740Y-160435000D01*
G36*
X209212925Y-158613082D02*
G01*
X209175000Y-158803740D01*
X209175000Y-158879400D01*
X207829425Y-158879400D01*
X207820612Y-158789918D01*
X207784302Y-158670220D01*
X207725337Y-158559906D01*
X207645985Y-158463215D01*
X207549294Y-158383863D01*
X207438980Y-158324898D01*
X207319282Y-158288588D01*
X207194800Y-158276328D01*
X206194800Y-158276328D01*
X206070318Y-158288588D01*
X206044800Y-158296329D01*
X206019282Y-158288588D01*
X205894800Y-158276328D01*
X204894800Y-158276328D01*
X204770318Y-158288588D01*
X204650620Y-158324898D01*
X204540306Y-158383863D01*
X204443615Y-158463215D01*
X204364263Y-158559906D01*
X204305298Y-158670220D01*
X204268988Y-158789918D01*
X204256728Y-158914400D01*
X204256728Y-160414400D01*
X204268988Y-160538882D01*
X204305298Y-160658580D01*
X204364263Y-160768894D01*
X204371784Y-160778058D01*
X204313843Y-160836000D01*
X197771335Y-160836000D01*
X197832405Y-160761586D01*
X197897020Y-160640700D01*
X200221762Y-160640700D01*
X200305433Y-160685423D01*
X200469684Y-160735248D01*
X200640500Y-160752072D01*
X201215500Y-160752072D01*
X201386316Y-160735248D01*
X201550567Y-160685423D01*
X201701942Y-160604512D01*
X201803000Y-160521575D01*
X201904058Y-160604512D01*
X202055433Y-160685423D01*
X202219684Y-160735248D01*
X202390500Y-160752072D01*
X202965500Y-160752072D01*
X203136316Y-160735248D01*
X203300567Y-160685423D01*
X203451942Y-160604512D01*
X203584623Y-160495623D01*
X203693512Y-160362942D01*
X203774423Y-160211567D01*
X203824248Y-160047316D01*
X203841072Y-159876500D01*
X203841072Y-159401500D01*
X203824248Y-159230684D01*
X203774423Y-159066433D01*
X203693512Y-158915058D01*
X203584623Y-158782377D01*
X203463000Y-158682563D01*
X203463000Y-157989010D01*
X203508820Y-158013502D01*
X203628518Y-158049812D01*
X203753000Y-158062072D01*
X205253000Y-158062072D01*
X205377482Y-158049812D01*
X205497180Y-158013502D01*
X205607494Y-157954537D01*
X205693444Y-157884000D01*
X208483843Y-157884000D01*
X209212925Y-158613082D01*
G37*
X209212925Y-158613082D02*
X209175000Y-158803740D01*
X209175000Y-158879400D01*
X207829425Y-158879400D01*
X207820612Y-158789918D01*
X207784302Y-158670220D01*
X207725337Y-158559906D01*
X207645985Y-158463215D01*
X207549294Y-158383863D01*
X207438980Y-158324898D01*
X207319282Y-158288588D01*
X207194800Y-158276328D01*
X206194800Y-158276328D01*
X206070318Y-158288588D01*
X206044800Y-158296329D01*
X206019282Y-158288588D01*
X205894800Y-158276328D01*
X204894800Y-158276328D01*
X204770318Y-158288588D01*
X204650620Y-158324898D01*
X204540306Y-158383863D01*
X204443615Y-158463215D01*
X204364263Y-158559906D01*
X204305298Y-158670220D01*
X204268988Y-158789918D01*
X204256728Y-158914400D01*
X204256728Y-160414400D01*
X204268988Y-160538882D01*
X204305298Y-160658580D01*
X204364263Y-160768894D01*
X204371784Y-160778058D01*
X204313843Y-160836000D01*
X197771335Y-160836000D01*
X197832405Y-160761586D01*
X197897020Y-160640700D01*
X200221762Y-160640700D01*
X200305433Y-160685423D01*
X200469684Y-160735248D01*
X200640500Y-160752072D01*
X201215500Y-160752072D01*
X201386316Y-160735248D01*
X201550567Y-160685423D01*
X201701942Y-160604512D01*
X201803000Y-160521575D01*
X201904058Y-160604512D01*
X202055433Y-160685423D01*
X202219684Y-160735248D01*
X202390500Y-160752072D01*
X202965500Y-160752072D01*
X203136316Y-160735248D01*
X203300567Y-160685423D01*
X203451942Y-160604512D01*
X203584623Y-160495623D01*
X203693512Y-160362942D01*
X203774423Y-160211567D01*
X203824248Y-160047316D01*
X203841072Y-159876500D01*
X203841072Y-159401500D01*
X203824248Y-159230684D01*
X203774423Y-159066433D01*
X203693512Y-158915058D01*
X203584623Y-158782377D01*
X203463000Y-158682563D01*
X203463000Y-157989010D01*
X203508820Y-158013502D01*
X203628518Y-158049812D01*
X203753000Y-158062072D01*
X205253000Y-158062072D01*
X205377482Y-158049812D01*
X205497180Y-158013502D01*
X205607494Y-157954537D01*
X205693444Y-157884000D01*
X208483843Y-157884000D01*
X209212925Y-158613082D01*
G36*
X195216038Y-157921162D02*
G01*
X195350614Y-158031605D01*
X195504150Y-158113672D01*
X195670746Y-158164208D01*
X195844000Y-158181272D01*
X197094000Y-158181272D01*
X197267254Y-158164208D01*
X197433850Y-158113672D01*
X197587386Y-158031605D01*
X197706319Y-157934000D01*
X197973482Y-157934000D01*
X197998506Y-157954537D01*
X198108820Y-158013502D01*
X198228518Y-158049812D01*
X198353000Y-158062072D01*
X199853000Y-158062072D01*
X199977482Y-158049812D01*
X200093000Y-158014770D01*
X200093000Y-158723597D01*
X200021377Y-158782377D01*
X199912488Y-158915058D01*
X199882747Y-158970700D01*
X197897020Y-158970700D01*
X197832405Y-158849814D01*
X197721962Y-158715238D01*
X197587386Y-158604795D01*
X197433850Y-158522728D01*
X197267254Y-158472192D01*
X197094000Y-158455128D01*
X195844000Y-158455128D01*
X195670746Y-158472192D01*
X195504150Y-158522728D01*
X195350614Y-158604795D01*
X195216038Y-158715238D01*
X195105595Y-158849814D01*
X195023528Y-159003350D01*
X194972992Y-159169946D01*
X194955928Y-159343200D01*
X194955928Y-160268200D01*
X194972992Y-160441454D01*
X195023528Y-160608050D01*
X195105595Y-160761586D01*
X195166665Y-160836000D01*
X194734788Y-160836000D01*
X193929447Y-160030660D01*
X194043475Y-159916632D01*
X194205990Y-159673411D01*
X194317932Y-159403158D01*
X194375000Y-159116260D01*
X194375000Y-158823740D01*
X194348807Y-158692060D01*
X195172616Y-157868252D01*
X195216038Y-157921162D01*
G37*
X195216038Y-157921162D02*
X195350614Y-158031605D01*
X195504150Y-158113672D01*
X195670746Y-158164208D01*
X195844000Y-158181272D01*
X197094000Y-158181272D01*
X197267254Y-158164208D01*
X197433850Y-158113672D01*
X197587386Y-158031605D01*
X197706319Y-157934000D01*
X197973482Y-157934000D01*
X197998506Y-157954537D01*
X198108820Y-158013502D01*
X198228518Y-158049812D01*
X198353000Y-158062072D01*
X199853000Y-158062072D01*
X199977482Y-158049812D01*
X200093000Y-158014770D01*
X200093000Y-158723597D01*
X200021377Y-158782377D01*
X199912488Y-158915058D01*
X199882747Y-158970700D01*
X197897020Y-158970700D01*
X197832405Y-158849814D01*
X197721962Y-158715238D01*
X197587386Y-158604795D01*
X197433850Y-158522728D01*
X197267254Y-158472192D01*
X197094000Y-158455128D01*
X195844000Y-158455128D01*
X195670746Y-158472192D01*
X195504150Y-158522728D01*
X195350614Y-158604795D01*
X195216038Y-158715238D01*
X195105595Y-158849814D01*
X195023528Y-159003350D01*
X194972992Y-159169946D01*
X194955928Y-159343200D01*
X194955928Y-160268200D01*
X194972992Y-160441454D01*
X195023528Y-160608050D01*
X195105595Y-160761586D01*
X195166665Y-160836000D01*
X194734788Y-160836000D01*
X193929447Y-160030660D01*
X194043475Y-159916632D01*
X194205990Y-159673411D01*
X194317932Y-159403158D01*
X194375000Y-159116260D01*
X194375000Y-158823740D01*
X194348807Y-158692060D01*
X195172616Y-157868252D01*
X195216038Y-157921162D01*
G36*
X212396001Y-160483946D02*
G01*
X212327631Y-160438263D01*
X212011881Y-160307475D01*
X211676683Y-160240800D01*
X211401111Y-160240800D01*
X211606632Y-160103475D01*
X211813475Y-159896632D01*
X211975990Y-159653411D01*
X212087932Y-159383158D01*
X212145000Y-159096260D01*
X212145000Y-158803740D01*
X212087932Y-158516842D01*
X211975990Y-158246589D01*
X211813475Y-158003368D01*
X211606632Y-157796525D01*
X211432240Y-157680000D01*
X211606632Y-157563475D01*
X211813475Y-157356632D01*
X211975990Y-157113411D01*
X212087932Y-156843158D01*
X212145000Y-156556260D01*
X212145000Y-156263740D01*
X212087932Y-155976842D01*
X211975990Y-155706589D01*
X211813475Y-155463368D01*
X211606632Y-155256525D01*
X211432240Y-155140000D01*
X211606632Y-155023475D01*
X211813475Y-154816632D01*
X211975990Y-154573411D01*
X212087932Y-154303158D01*
X212145000Y-154016260D01*
X212145000Y-153723740D01*
X212087932Y-153436842D01*
X211975990Y-153166589D01*
X211813475Y-152923368D01*
X211681620Y-152791513D01*
X211754180Y-152769502D01*
X211864494Y-152710537D01*
X211961185Y-152631185D01*
X212040537Y-152534494D01*
X212099502Y-152424180D01*
X212135812Y-152304482D01*
X212148072Y-152180000D01*
X212148072Y-150480000D01*
X212135812Y-150355518D01*
X212099502Y-150235820D01*
X212040537Y-150125506D01*
X212004781Y-150081937D01*
X212011881Y-150080525D01*
X212327631Y-149949737D01*
X212396000Y-149904054D01*
X212396001Y-160483946D01*
G37*
X212396001Y-160483946D02*
X212327631Y-160438263D01*
X212011881Y-160307475D01*
X211676683Y-160240800D01*
X211401111Y-160240800D01*
X211606632Y-160103475D01*
X211813475Y-159896632D01*
X211975990Y-159653411D01*
X212087932Y-159383158D01*
X212145000Y-159096260D01*
X212145000Y-158803740D01*
X212087932Y-158516842D01*
X211975990Y-158246589D01*
X211813475Y-158003368D01*
X211606632Y-157796525D01*
X211432240Y-157680000D01*
X211606632Y-157563475D01*
X211813475Y-157356632D01*
X211975990Y-157113411D01*
X212087932Y-156843158D01*
X212145000Y-156556260D01*
X212145000Y-156263740D01*
X212087932Y-155976842D01*
X211975990Y-155706589D01*
X211813475Y-155463368D01*
X211606632Y-155256525D01*
X211432240Y-155140000D01*
X211606632Y-155023475D01*
X211813475Y-154816632D01*
X211975990Y-154573411D01*
X212087932Y-154303158D01*
X212145000Y-154016260D01*
X212145000Y-153723740D01*
X212087932Y-153436842D01*
X211975990Y-153166589D01*
X211813475Y-152923368D01*
X211681620Y-152791513D01*
X211754180Y-152769502D01*
X211864494Y-152710537D01*
X211961185Y-152631185D01*
X212040537Y-152534494D01*
X212099502Y-152424180D01*
X212135812Y-152304482D01*
X212148072Y-152180000D01*
X212148072Y-150480000D01*
X212135812Y-150355518D01*
X212099502Y-150235820D01*
X212040537Y-150125506D01*
X212004781Y-150081937D01*
X212011881Y-150080525D01*
X212327631Y-149949737D01*
X212396000Y-149904054D01*
X212396001Y-160483946D01*
G36*
X191431193Y-158692061D02*
G01*
X191405000Y-158823740D01*
X191405000Y-159116260D01*
X191462068Y-159403158D01*
X191574010Y-159673411D01*
X191736525Y-159916632D01*
X191943368Y-160123475D01*
X192053415Y-160197006D01*
X192057728Y-160240800D01*
X191929317Y-160240800D01*
X191594119Y-160307475D01*
X191278369Y-160438263D01*
X191210000Y-160483946D01*
X191210000Y-158470868D01*
X191431193Y-158692061D01*
G37*
X191431193Y-158692061D02*
X191405000Y-158823740D01*
X191405000Y-159116260D01*
X191462068Y-159403158D01*
X191574010Y-159673411D01*
X191736525Y-159916632D01*
X191943368Y-160123475D01*
X192053415Y-160197006D01*
X192057728Y-160240800D01*
X191929317Y-160240800D01*
X191594119Y-160307475D01*
X191278369Y-160438263D01*
X191210000Y-160483946D01*
X191210000Y-158470868D01*
X191431193Y-158692061D01*
G36*
X199912488Y-151472942D02*
G01*
X200021377Y-151605623D01*
X200154058Y-151714512D01*
X200305433Y-151795423D01*
X200469684Y-151845248D01*
X200640500Y-151862072D01*
X201215500Y-151862072D01*
X201386316Y-151845248D01*
X201550567Y-151795423D01*
X201701942Y-151714512D01*
X201803000Y-151631575D01*
X201893001Y-151705438D01*
X201893000Y-154176247D01*
X201889203Y-154214800D01*
X201893000Y-154253353D01*
X201893000Y-154253360D01*
X201904359Y-154368686D01*
X201949246Y-154516659D01*
X202022138Y-154653032D01*
X202120236Y-154772564D01*
X202150190Y-154797147D01*
X202439853Y-155086810D01*
X202464436Y-155116764D01*
X202533147Y-155173154D01*
X202413636Y-155271236D01*
X202389055Y-155301188D01*
X202150190Y-155540053D01*
X202120236Y-155564636D01*
X202022138Y-155684168D01*
X201949246Y-155820541D01*
X201904359Y-155968514D01*
X201893000Y-156083840D01*
X201893000Y-156083847D01*
X201889203Y-156122400D01*
X201893000Y-156160953D01*
X201893001Y-158682562D01*
X201803000Y-158756425D01*
X201763000Y-158723597D01*
X201763000Y-155275018D01*
X201767040Y-155233999D01*
X201750918Y-155070311D01*
X201703172Y-154912913D01*
X201625636Y-154767854D01*
X201593781Y-154729039D01*
X201521291Y-154640709D01*
X201489426Y-154614558D01*
X200872446Y-153997578D01*
X200846291Y-153965709D01*
X200719146Y-153861364D01*
X200574087Y-153783828D01*
X200474244Y-153753541D01*
X200478812Y-153738482D01*
X200491072Y-153614000D01*
X200491072Y-152964000D01*
X200478812Y-152839518D01*
X200442502Y-152719820D01*
X200383537Y-152609506D01*
X200304185Y-152512815D01*
X200207494Y-152433463D01*
X200097180Y-152374498D01*
X199977482Y-152338188D01*
X199938000Y-152334299D01*
X199938000Y-152306118D01*
X199942040Y-152265100D01*
X199925918Y-152101412D01*
X199899038Y-152012798D01*
X199878172Y-151944013D01*
X199800636Y-151798954D01*
X199739911Y-151724960D01*
X199722439Y-151703670D01*
X199722437Y-151703668D01*
X199696291Y-151671809D01*
X199664433Y-151645664D01*
X199359869Y-151341100D01*
X199842018Y-151341100D01*
X199912488Y-151472942D01*
G37*
X199912488Y-151472942D02*
X200021377Y-151605623D01*
X200154058Y-151714512D01*
X200305433Y-151795423D01*
X200469684Y-151845248D01*
X200640500Y-151862072D01*
X201215500Y-151862072D01*
X201386316Y-151845248D01*
X201550567Y-151795423D01*
X201701942Y-151714512D01*
X201803000Y-151631575D01*
X201893001Y-151705438D01*
X201893000Y-154176247D01*
X201889203Y-154214800D01*
X201893000Y-154253353D01*
X201893000Y-154253360D01*
X201904359Y-154368686D01*
X201949246Y-154516659D01*
X202022138Y-154653032D01*
X202120236Y-154772564D01*
X202150190Y-154797147D01*
X202439853Y-155086810D01*
X202464436Y-155116764D01*
X202533147Y-155173154D01*
X202413636Y-155271236D01*
X202389055Y-155301188D01*
X202150190Y-155540053D01*
X202120236Y-155564636D01*
X202022138Y-155684168D01*
X201949246Y-155820541D01*
X201904359Y-155968514D01*
X201893000Y-156083840D01*
X201893000Y-156083847D01*
X201889203Y-156122400D01*
X201893000Y-156160953D01*
X201893001Y-158682562D01*
X201803000Y-158756425D01*
X201763000Y-158723597D01*
X201763000Y-155275018D01*
X201767040Y-155233999D01*
X201750918Y-155070311D01*
X201703172Y-154912913D01*
X201625636Y-154767854D01*
X201593781Y-154729039D01*
X201521291Y-154640709D01*
X201489426Y-154614558D01*
X200872446Y-153997578D01*
X200846291Y-153965709D01*
X200719146Y-153861364D01*
X200574087Y-153783828D01*
X200474244Y-153753541D01*
X200478812Y-153738482D01*
X200491072Y-153614000D01*
X200491072Y-152964000D01*
X200478812Y-152839518D01*
X200442502Y-152719820D01*
X200383537Y-152609506D01*
X200304185Y-152512815D01*
X200207494Y-152433463D01*
X200097180Y-152374498D01*
X199977482Y-152338188D01*
X199938000Y-152334299D01*
X199938000Y-152306118D01*
X199942040Y-152265100D01*
X199925918Y-152101412D01*
X199899038Y-152012798D01*
X199878172Y-151944013D01*
X199800636Y-151798954D01*
X199739911Y-151724960D01*
X199722439Y-151703670D01*
X199722437Y-151703668D01*
X199696291Y-151671809D01*
X199664433Y-151645664D01*
X199359869Y-151341100D01*
X199842018Y-151341100D01*
X199912488Y-151472942D01*
G36*
X195042447Y-155992955D02*
G01*
X195029299Y-155991660D01*
X194988281Y-155995700D01*
X194865611Y-156007782D01*
X194708213Y-156055528D01*
X194563154Y-156133064D01*
X194436009Y-156237409D01*
X194409859Y-156269273D01*
X194375000Y-156304132D01*
X194375000Y-156283740D01*
X194337076Y-156093082D01*
X194527358Y-155902800D01*
X195090636Y-155902800D01*
X195042447Y-155992955D01*
G37*
X195042447Y-155992955D02*
X195029299Y-155991660D01*
X194988281Y-155995700D01*
X194865611Y-156007782D01*
X194708213Y-156055528D01*
X194563154Y-156133064D01*
X194436009Y-156237409D01*
X194409859Y-156269273D01*
X194375000Y-156304132D01*
X194375000Y-156283740D01*
X194337076Y-156093082D01*
X194527358Y-155902800D01*
X195090636Y-155902800D01*
X195042447Y-155992955D01*
G36*
X195049906Y-154332800D02*
G01*
X194313938Y-154332800D01*
X194317932Y-154323158D01*
X194319336Y-154316100D01*
X195040980Y-154316100D01*
X195049906Y-154332800D01*
G37*
X195049906Y-154332800D02*
X194313938Y-154332800D01*
X194317932Y-154323158D01*
X194319336Y-154316100D01*
X195040980Y-154316100D01*
X195049906Y-154332800D01*
G36*
X209175000Y-153723740D02*
G01*
X209175000Y-153774000D01*
X208470205Y-153774000D01*
X208505483Y-153708000D01*
X209028447Y-153708000D01*
X209067000Y-153711797D01*
X209105553Y-153708000D01*
X209105561Y-153708000D01*
X209179581Y-153700709D01*
X209175000Y-153723740D01*
G37*
X209175000Y-153723740D02*
X209175000Y-153774000D01*
X208470205Y-153774000D01*
X208505483Y-153708000D01*
X209028447Y-153708000D01*
X209067000Y-153711797D01*
X209105553Y-153708000D01*
X209105561Y-153708000D01*
X209179581Y-153700709D01*
X209175000Y-153723740D01*
G36*
X195350614Y-151707005D02*
G01*
X195504150Y-151789072D01*
X195670746Y-151839608D01*
X195844000Y-151856672D01*
X197094000Y-151856672D01*
X197267254Y-151839608D01*
X197433850Y-151789072D01*
X197441836Y-151784804D01*
X198058452Y-152401421D01*
X197998506Y-152433463D01*
X197901815Y-152512815D01*
X197855768Y-152568923D01*
X197832405Y-152525214D01*
X197721962Y-152390638D01*
X197587386Y-152280195D01*
X197433850Y-152198128D01*
X197267254Y-152147592D01*
X197094000Y-152130528D01*
X195844000Y-152130528D01*
X195670746Y-152147592D01*
X195504150Y-152198128D01*
X195350614Y-152280195D01*
X195216038Y-152390638D01*
X195105595Y-152525214D01*
X195040980Y-152646100D01*
X194195358Y-152646100D01*
X194270537Y-152554494D01*
X194329502Y-152444180D01*
X194365812Y-152324482D01*
X194378072Y-152200000D01*
X194378072Y-152193600D01*
X194472182Y-152193600D01*
X194513200Y-152197640D01*
X194554218Y-152193600D01*
X194554219Y-152193600D01*
X194676889Y-152181518D01*
X194834287Y-152133772D01*
X194979346Y-152056236D01*
X195106491Y-151951891D01*
X195132646Y-151920021D01*
X195347894Y-151704773D01*
X195350614Y-151707005D01*
G37*
X195350614Y-151707005D02*
X195504150Y-151789072D01*
X195670746Y-151839608D01*
X195844000Y-151856672D01*
X197094000Y-151856672D01*
X197267254Y-151839608D01*
X197433850Y-151789072D01*
X197441836Y-151784804D01*
X198058452Y-152401421D01*
X197998506Y-152433463D01*
X197901815Y-152512815D01*
X197855768Y-152568923D01*
X197832405Y-152525214D01*
X197721962Y-152390638D01*
X197587386Y-152280195D01*
X197433850Y-152198128D01*
X197267254Y-152147592D01*
X197094000Y-152130528D01*
X195844000Y-152130528D01*
X195670746Y-152147592D01*
X195504150Y-152198128D01*
X195350614Y-152280195D01*
X195216038Y-152390638D01*
X195105595Y-152525214D01*
X195040980Y-152646100D01*
X194195358Y-152646100D01*
X194270537Y-152554494D01*
X194329502Y-152444180D01*
X194365812Y-152324482D01*
X194378072Y-152200000D01*
X194378072Y-152193600D01*
X194472182Y-152193600D01*
X194513200Y-152197640D01*
X194554218Y-152193600D01*
X194554219Y-152193600D01*
X194676889Y-152181518D01*
X194834287Y-152133772D01*
X194979346Y-152056236D01*
X195106491Y-151951891D01*
X195132646Y-151920021D01*
X195347894Y-151704773D01*
X195350614Y-151707005D01*
G36*
X205734781Y-152458000D02*
G01*
X205734782Y-152458000D01*
X205775800Y-152462040D01*
X205799728Y-152459683D01*
X205799728Y-152504000D01*
X205693444Y-152504000D01*
X205624111Y-152447100D01*
X205734781Y-152458000D01*
G37*
X205734781Y-152458000D02*
X205734782Y-152458000D01*
X205775800Y-152462040D01*
X205799728Y-152459683D01*
X205799728Y-152504000D01*
X205693444Y-152504000D01*
X205624111Y-152447100D01*
X205734781Y-152458000D01*
G36*
X205156363Y-152184432D02*
G01*
X205182509Y-152216291D01*
X205214368Y-152242437D01*
X205214370Y-152242439D01*
X205260376Y-152280195D01*
X205309654Y-152320636D01*
X205334588Y-152333963D01*
X205253000Y-152325928D01*
X203753000Y-152325928D01*
X203628518Y-152338188D01*
X203508820Y-152374498D01*
X203463000Y-152398990D01*
X203463000Y-151705437D01*
X203584623Y-151605623D01*
X203693512Y-151472942D01*
X203774423Y-151321567D01*
X203824248Y-151157316D01*
X203841072Y-150986500D01*
X203841072Y-150869140D01*
X205156363Y-152184432D01*
G37*
X205156363Y-152184432D02*
X205182509Y-152216291D01*
X205214368Y-152242437D01*
X205214370Y-152242439D01*
X205260376Y-152280195D01*
X205309654Y-152320636D01*
X205334588Y-152333963D01*
X205253000Y-152325928D01*
X203753000Y-152325928D01*
X203628518Y-152338188D01*
X203508820Y-152374498D01*
X203463000Y-152398990D01*
X203463000Y-151705437D01*
X203584623Y-151605623D01*
X203693512Y-151472942D01*
X203774423Y-151321567D01*
X203824248Y-151157316D01*
X203841072Y-150986500D01*
X203841072Y-150869140D01*
X205156363Y-152184432D01*
G36*
X209380699Y-150010856D02*
G01*
X209358815Y-150028815D01*
X209279463Y-150125506D01*
X209220498Y-150235820D01*
X209184188Y-150355518D01*
X209171928Y-150480000D01*
X209171928Y-151707915D01*
X208741843Y-152138000D01*
X208574395Y-152138000D01*
X208575872Y-152123000D01*
X208575872Y-151123000D01*
X208563612Y-150998518D01*
X208527302Y-150878820D01*
X208468337Y-150768506D01*
X208388985Y-150671815D01*
X208292294Y-150592463D01*
X208181980Y-150533498D01*
X208062282Y-150497188D01*
X207937800Y-150484928D01*
X206437800Y-150484928D01*
X206313318Y-150497188D01*
X206193620Y-150533498D01*
X206083306Y-150592463D01*
X205996979Y-150663310D01*
X205184740Y-149851072D01*
X205920200Y-149851072D01*
X206044682Y-149838812D01*
X206070200Y-149831071D01*
X206095718Y-149838812D01*
X206220200Y-149851072D01*
X207220200Y-149851072D01*
X207344682Y-149838812D01*
X207464380Y-149802502D01*
X207574694Y-149743537D01*
X207671385Y-149664185D01*
X207750737Y-149567494D01*
X207809702Y-149457180D01*
X207846012Y-149337482D01*
X207854825Y-149248000D01*
X208617843Y-149248000D01*
X209380699Y-150010856D01*
G37*
X209380699Y-150010856D02*
X209358815Y-150028815D01*
X209279463Y-150125506D01*
X209220498Y-150235820D01*
X209184188Y-150355518D01*
X209171928Y-150480000D01*
X209171928Y-151707915D01*
X208741843Y-152138000D01*
X208574395Y-152138000D01*
X208575872Y-152123000D01*
X208575872Y-151123000D01*
X208563612Y-150998518D01*
X208527302Y-150878820D01*
X208468337Y-150768506D01*
X208388985Y-150671815D01*
X208292294Y-150592463D01*
X208181980Y-150533498D01*
X208062282Y-150497188D01*
X207937800Y-150484928D01*
X206437800Y-150484928D01*
X206313318Y-150497188D01*
X206193620Y-150533498D01*
X206083306Y-150592463D01*
X205996979Y-150663310D01*
X205184740Y-149851072D01*
X205920200Y-149851072D01*
X206044682Y-149838812D01*
X206070200Y-149831071D01*
X206095718Y-149838812D01*
X206220200Y-149851072D01*
X207220200Y-149851072D01*
X207344682Y-149838812D01*
X207464380Y-149802502D01*
X207574694Y-149743537D01*
X207671385Y-149664185D01*
X207750737Y-149567494D01*
X207809702Y-149457180D01*
X207846012Y-149337482D01*
X207854825Y-149248000D01*
X208617843Y-149248000D01*
X209380699Y-150010856D01*
G36*
X195350614Y-149305195D02*
G01*
X195216038Y-149415638D01*
X195105595Y-149550214D01*
X195023528Y-149703750D01*
X195009608Y-149749639D01*
X194899554Y-149808464D01*
X194772409Y-149912809D01*
X194746258Y-149944674D01*
X194354082Y-150336850D01*
X194329502Y-150255820D01*
X194324975Y-150247350D01*
X195274326Y-149298000D01*
X195364075Y-149298000D01*
X195350614Y-149305195D01*
G37*
X195350614Y-149305195D02*
X195216038Y-149415638D01*
X195105595Y-149550214D01*
X195023528Y-149703750D01*
X195009608Y-149749639D01*
X194899554Y-149808464D01*
X194772409Y-149912809D01*
X194746258Y-149944674D01*
X194354082Y-150336850D01*
X194329502Y-150255820D01*
X194324975Y-150247350D01*
X195274326Y-149298000D01*
X195364075Y-149298000D01*
X195350614Y-149305195D01*
G36*
X200366573Y-149654559D02*
G01*
X200346419Y-149671100D01*
X197897020Y-149671100D01*
X197832405Y-149550214D01*
X197721962Y-149415638D01*
X197587386Y-149305195D01*
X197573925Y-149298000D01*
X200723132Y-149298000D01*
X200366573Y-149654559D01*
G37*
X200366573Y-149654559D02*
X200346419Y-149671100D01*
X197897020Y-149671100D01*
X197832405Y-149550214D01*
X197721962Y-149415638D01*
X197587386Y-149305195D01*
X197573925Y-149298000D01*
X200723132Y-149298000D01*
X200366573Y-149654559D01*
G36*
X204294388Y-147588518D02*
G01*
X204290499Y-147628000D01*
X194969465Y-147628000D01*
X194928457Y-147623961D01*
X194887449Y-147628000D01*
X194887439Y-147628000D01*
X194764769Y-147640082D01*
X194607371Y-147687828D01*
X194462312Y-147765364D01*
X194335167Y-147869709D01*
X194309017Y-147901574D01*
X193835200Y-148375390D01*
X193835200Y-148241317D01*
X193768525Y-147906119D01*
X193637737Y-147590369D01*
X193592054Y-147522000D01*
X204314566Y-147522000D01*
X204294388Y-147588518D01*
G37*
X204294388Y-147588518D02*
X204290499Y-147628000D01*
X194969465Y-147628000D01*
X194928457Y-147623961D01*
X194887449Y-147628000D01*
X194887439Y-147628000D01*
X194764769Y-147640082D01*
X194607371Y-147687828D01*
X194462312Y-147765364D01*
X194335167Y-147869709D01*
X194309017Y-147901574D01*
X193835200Y-148375390D01*
X193835200Y-148241317D01*
X193768525Y-147906119D01*
X193637737Y-147590369D01*
X193592054Y-147522000D01*
X204314566Y-147522000D01*
X204294388Y-147588518D01*
G36*
X209968263Y-147590369D02*
G01*
X209837475Y-147906119D01*
X209780866Y-148190709D01*
X209525347Y-147935190D01*
X209500764Y-147905236D01*
X209381233Y-147807138D01*
X209244860Y-147734246D01*
X209096887Y-147689359D01*
X208981561Y-147678000D01*
X208981553Y-147678000D01*
X208943000Y-147674203D01*
X208904447Y-147678000D01*
X207854825Y-147678000D01*
X207846012Y-147588518D01*
X207825834Y-147522000D01*
X210013946Y-147522000D01*
X209968263Y-147590369D01*
G37*
X209968263Y-147590369D02*
X209837475Y-147906119D01*
X209780866Y-148190709D01*
X209525347Y-147935190D01*
X209500764Y-147905236D01*
X209381233Y-147807138D01*
X209244860Y-147734246D01*
X209096887Y-147689359D01*
X208981561Y-147678000D01*
X208981553Y-147678000D01*
X208943000Y-147674203D01*
X208904447Y-147678000D01*
X207854825Y-147678000D01*
X207846012Y-147588518D01*
X207825834Y-147522000D01*
X210013946Y-147522000D01*
X209968263Y-147590369D01*
M02*
