G04 #@! TF.GenerationSoftware,KiCad,Pcbnew,5.1.5+dfsg1-2build2*
G04 #@! TF.CreationDate,2021-08-24T21:55:17+05:30*
G04 #@! TF.ProjectId,AS5600-Encoder-PCB,41533536-3030-42d4-956e-636f6465722d,rev?*
G04 #@! TF.SameCoordinates,Original*
G04 #@! TF.FileFunction,Copper,L2,Bot*
G04 #@! TF.FilePolarity,Positive*
%FSLAX46Y46*%
G04 Gerber Fmt 4.6, Leading zero omitted, Abs format (unit mm)*
G04 Created by KiCad (PCBNEW 5.1.5+dfsg1-2build2) date 2021-08-24 21:55:17*
%MOMM*%
%LPD*%
G04 APERTURE LIST*
%ADD10R,5.000000X2.500000*%
%ADD11O,1.700000X1.700000*%
%ADD12R,1.700000X1.700000*%
%ADD13C,2.500000*%
%ADD14C,0.800000*%
%ADD15C,0.400000*%
%ADD16C,0.300000*%
%ADD17C,0.254000*%
G04 APERTURE END LIST*
D10*
X204910000Y-155040000D03*
D11*
X192890000Y-158970000D03*
X192890000Y-156430000D03*
X192890000Y-153890000D03*
D12*
X192890000Y-151350000D03*
D13*
X204830000Y-151430000D03*
X199820000Y-151370000D03*
X204860000Y-158600000D03*
D11*
X210660000Y-158950000D03*
X210660000Y-156410000D03*
X210660000Y-153870000D03*
D12*
X210660000Y-151330000D03*
D14*
X196545200Y-156738320D03*
X201416920Y-153979880D03*
X197279260Y-159819340D03*
X208386680Y-155473400D03*
D15*
X192910000Y-151370000D02*
X192890000Y-151350000D01*
X199820000Y-151370000D02*
X192910000Y-151370000D01*
D16*
X210660000Y-151330000D02*
X209510000Y-151330000D01*
X209510000Y-151330000D02*
X208386680Y-152453320D01*
X208386680Y-152453320D02*
X208386680Y-154907715D01*
X208386680Y-154907715D02*
X208386680Y-155473400D01*
X210659340Y-151330660D02*
X210660000Y-151330000D01*
X204929340Y-151330660D02*
X210659340Y-151330660D01*
X204830000Y-151430000D02*
X204929340Y-151330660D01*
X210310000Y-158600000D02*
X210660000Y-158950000D01*
X204860000Y-158600000D02*
X210310000Y-158600000D01*
D17*
G36*
X210015112Y-147596273D02*
G01*
X209888094Y-147902924D01*
X209823340Y-148228462D01*
X209823340Y-148560378D01*
X209888094Y-148885916D01*
X210015112Y-149192567D01*
X210199515Y-149468545D01*
X210434215Y-149703245D01*
X210641768Y-149841928D01*
X209810000Y-149841928D01*
X209685518Y-149854188D01*
X209565820Y-149890498D01*
X209455506Y-149949463D01*
X209358815Y-150028815D01*
X209279463Y-150125506D01*
X209220498Y-150235820D01*
X209184188Y-150355518D01*
X209171928Y-150480000D01*
X209171928Y-150545660D01*
X206504004Y-150545660D01*
X206500466Y-150537118D01*
X206294175Y-150228382D01*
X206031618Y-149965825D01*
X205722882Y-149759534D01*
X205379834Y-149617439D01*
X205015656Y-149545000D01*
X204644344Y-149545000D01*
X204280166Y-149617439D01*
X203937118Y-149759534D01*
X203628382Y-149965825D01*
X203365825Y-150228382D01*
X203159534Y-150537118D01*
X203017439Y-150880166D01*
X202945000Y-151244344D01*
X202945000Y-151615656D01*
X203017439Y-151979834D01*
X203159534Y-152322882D01*
X203365825Y-152631618D01*
X203628382Y-152894175D01*
X203937118Y-153100466D01*
X204280166Y-153242561D01*
X204644344Y-153315000D01*
X205015656Y-153315000D01*
X205379834Y-153242561D01*
X205722882Y-153100466D01*
X206031618Y-152894175D01*
X206294175Y-152631618D01*
X206500466Y-152322882D01*
X206586300Y-152115660D01*
X207677062Y-152115660D01*
X207657926Y-152151461D01*
X207613039Y-152299434D01*
X207601680Y-152414760D01*
X207601680Y-152414767D01*
X207597883Y-152453320D01*
X207601680Y-152491873D01*
X207601681Y-154794688D01*
X207582743Y-154813626D01*
X207469475Y-154983144D01*
X207391454Y-155171502D01*
X207351680Y-155371461D01*
X207351680Y-155575339D01*
X207391454Y-155775298D01*
X207469475Y-155963656D01*
X207582743Y-156133174D01*
X207726906Y-156277337D01*
X207896424Y-156390605D01*
X208084782Y-156468626D01*
X208284741Y-156508400D01*
X208488619Y-156508400D01*
X208688578Y-156468626D01*
X208876936Y-156390605D01*
X209046454Y-156277337D01*
X209190617Y-156133174D01*
X209205360Y-156111109D01*
X209175000Y-156263740D01*
X209175000Y-156556260D01*
X209232068Y-156843158D01*
X209344010Y-157113411D01*
X209506525Y-157356632D01*
X209713368Y-157563475D01*
X209887760Y-157680000D01*
X209713368Y-157796525D01*
X209694893Y-157815000D01*
X206575152Y-157815000D01*
X206530466Y-157707118D01*
X206324175Y-157398382D01*
X206061618Y-157135825D01*
X205752882Y-156929534D01*
X205409834Y-156787439D01*
X205045656Y-156715000D01*
X204674344Y-156715000D01*
X204310166Y-156787439D01*
X203967118Y-156929534D01*
X203658382Y-157135825D01*
X203395825Y-157398382D01*
X203189534Y-157707118D01*
X203047439Y-158050166D01*
X202975000Y-158414344D01*
X202975000Y-158785656D01*
X203047439Y-159149834D01*
X203189534Y-159492882D01*
X203395825Y-159801618D01*
X203658382Y-160064175D01*
X203967118Y-160270466D01*
X204310166Y-160412561D01*
X204674344Y-160485000D01*
X205045656Y-160485000D01*
X205409834Y-160412561D01*
X205752882Y-160270466D01*
X206061618Y-160064175D01*
X206324175Y-159801618D01*
X206530466Y-159492882D01*
X206575152Y-159385000D01*
X209232831Y-159385000D01*
X209344010Y-159653411D01*
X209506525Y-159896632D01*
X209713368Y-160103475D01*
X209956589Y-160265990D01*
X210226842Y-160377932D01*
X210513740Y-160435000D01*
X210806260Y-160435000D01*
X211093158Y-160377932D01*
X211363411Y-160265990D01*
X211606632Y-160103475D01*
X211813475Y-159896632D01*
X211975990Y-159653411D01*
X212087932Y-159383158D01*
X212145000Y-159096260D01*
X212145000Y-158803740D01*
X212087932Y-158516842D01*
X211975990Y-158246589D01*
X211813475Y-158003368D01*
X211606632Y-157796525D01*
X211432240Y-157680000D01*
X211606632Y-157563475D01*
X211813475Y-157356632D01*
X211975990Y-157113411D01*
X212087932Y-156843158D01*
X212145000Y-156556260D01*
X212145000Y-156263740D01*
X212087932Y-155976842D01*
X211975990Y-155706589D01*
X211813475Y-155463368D01*
X211606632Y-155256525D01*
X211432240Y-155140000D01*
X211606632Y-155023475D01*
X211813475Y-154816632D01*
X211975990Y-154573411D01*
X212087932Y-154303158D01*
X212145000Y-154016260D01*
X212145000Y-153723740D01*
X212087932Y-153436842D01*
X211975990Y-153166589D01*
X211813475Y-152923368D01*
X211681620Y-152791513D01*
X211754180Y-152769502D01*
X211864494Y-152710537D01*
X211961185Y-152631185D01*
X212040537Y-152534494D01*
X212099502Y-152424180D01*
X212135812Y-152304482D01*
X212148072Y-152180000D01*
X212148072Y-150480000D01*
X212135812Y-150355518D01*
X212099502Y-150235820D01*
X212040537Y-150125506D01*
X211961185Y-150028815D01*
X211954848Y-150023615D01*
X211999836Y-150014666D01*
X212306487Y-149887648D01*
X212396000Y-149827837D01*
X212396001Y-160610963D01*
X212306487Y-160551152D01*
X211999836Y-160424134D01*
X211674298Y-160359380D01*
X211342382Y-160359380D01*
X211016844Y-160424134D01*
X210710193Y-160551152D01*
X210434215Y-160735555D01*
X210199515Y-160970255D01*
X210015112Y-161246233D01*
X209888094Y-161552884D01*
X209823340Y-161878422D01*
X209823340Y-162210338D01*
X209888094Y-162535876D01*
X210015112Y-162842527D01*
X210030796Y-162866000D01*
X193610764Y-162866000D01*
X193626448Y-162842527D01*
X193753466Y-162535876D01*
X193818220Y-162210338D01*
X193818220Y-161878422D01*
X193753466Y-161552884D01*
X193626448Y-161246233D01*
X193442045Y-160970255D01*
X193207345Y-160735555D01*
X192931367Y-160551152D01*
X192624716Y-160424134D01*
X192299178Y-160359380D01*
X191967262Y-160359380D01*
X191641724Y-160424134D01*
X191335073Y-160551152D01*
X191210000Y-160634723D01*
X191210000Y-156283740D01*
X191405000Y-156283740D01*
X191405000Y-156576260D01*
X191462068Y-156863158D01*
X191574010Y-157133411D01*
X191736525Y-157376632D01*
X191943368Y-157583475D01*
X192186589Y-157745990D01*
X192456842Y-157857932D01*
X192743740Y-157915000D01*
X193036260Y-157915000D01*
X193323158Y-157857932D01*
X193593411Y-157745990D01*
X193836632Y-157583475D01*
X194043475Y-157376632D01*
X194205990Y-157133411D01*
X194317932Y-156863158D01*
X194375000Y-156576260D01*
X194375000Y-156283740D01*
X194317932Y-155996842D01*
X194205990Y-155726589D01*
X194043475Y-155483368D01*
X193836632Y-155276525D01*
X193593411Y-155114010D01*
X193323158Y-155002068D01*
X193036260Y-154945000D01*
X192743740Y-154945000D01*
X192456842Y-155002068D01*
X192186589Y-155114010D01*
X191943368Y-155276525D01*
X191736525Y-155483368D01*
X191574010Y-155726589D01*
X191462068Y-155996842D01*
X191405000Y-156283740D01*
X191210000Y-156283740D01*
X191210000Y-149775259D01*
X191355393Y-149872408D01*
X191653373Y-149995834D01*
X191588815Y-150048815D01*
X191509463Y-150145506D01*
X191450498Y-150255820D01*
X191414188Y-150375518D01*
X191401928Y-150500000D01*
X191401928Y-152200000D01*
X191414188Y-152324482D01*
X191450498Y-152444180D01*
X191509463Y-152554494D01*
X191588815Y-152651185D01*
X191685506Y-152730537D01*
X191795820Y-152789502D01*
X191915518Y-152825812D01*
X192040000Y-152838072D01*
X193740000Y-152838072D01*
X193864482Y-152825812D01*
X193984180Y-152789502D01*
X194094494Y-152730537D01*
X194191185Y-152651185D01*
X194270537Y-152554494D01*
X194329502Y-152444180D01*
X194365812Y-152324482D01*
X194377580Y-152205000D01*
X198125559Y-152205000D01*
X198149534Y-152262882D01*
X198355825Y-152571618D01*
X198618382Y-152834175D01*
X198927118Y-153040466D01*
X199270166Y-153182561D01*
X199634344Y-153255000D01*
X200005656Y-153255000D01*
X200369834Y-153182561D01*
X200712882Y-153040466D01*
X201021618Y-152834175D01*
X201284175Y-152571618D01*
X201490466Y-152262882D01*
X201632561Y-151919834D01*
X201705000Y-151555656D01*
X201705000Y-151184344D01*
X201632561Y-150820166D01*
X201490466Y-150477118D01*
X201284175Y-150168382D01*
X201021618Y-149905825D01*
X200712882Y-149699534D01*
X200369834Y-149557439D01*
X200005656Y-149485000D01*
X199634344Y-149485000D01*
X199270166Y-149557439D01*
X198927118Y-149699534D01*
X198618382Y-149905825D01*
X198355825Y-150168382D01*
X198149534Y-150477118D01*
X198125559Y-150535000D01*
X194378072Y-150535000D01*
X194378072Y-150500000D01*
X194365812Y-150375518D01*
X194329502Y-150255820D01*
X194270537Y-150145506D01*
X194191185Y-150048815D01*
X194094494Y-149969463D01*
X193984180Y-149910498D01*
X193864482Y-149874188D01*
X193740000Y-149861928D01*
X192967371Y-149861928D01*
X193227665Y-149688005D01*
X193462365Y-149453305D01*
X193646768Y-149177327D01*
X193773786Y-148870676D01*
X193838540Y-148545138D01*
X193838540Y-148213222D01*
X193773786Y-147887684D01*
X193646768Y-147581033D01*
X193607323Y-147522000D01*
X210064740Y-147522000D01*
X210015112Y-147596273D01*
G37*
X210015112Y-147596273D02*
X209888094Y-147902924D01*
X209823340Y-148228462D01*
X209823340Y-148560378D01*
X209888094Y-148885916D01*
X210015112Y-149192567D01*
X210199515Y-149468545D01*
X210434215Y-149703245D01*
X210641768Y-149841928D01*
X209810000Y-149841928D01*
X209685518Y-149854188D01*
X209565820Y-149890498D01*
X209455506Y-149949463D01*
X209358815Y-150028815D01*
X209279463Y-150125506D01*
X209220498Y-150235820D01*
X209184188Y-150355518D01*
X209171928Y-150480000D01*
X209171928Y-150545660D01*
X206504004Y-150545660D01*
X206500466Y-150537118D01*
X206294175Y-150228382D01*
X206031618Y-149965825D01*
X205722882Y-149759534D01*
X205379834Y-149617439D01*
X205015656Y-149545000D01*
X204644344Y-149545000D01*
X204280166Y-149617439D01*
X203937118Y-149759534D01*
X203628382Y-149965825D01*
X203365825Y-150228382D01*
X203159534Y-150537118D01*
X203017439Y-150880166D01*
X202945000Y-151244344D01*
X202945000Y-151615656D01*
X203017439Y-151979834D01*
X203159534Y-152322882D01*
X203365825Y-152631618D01*
X203628382Y-152894175D01*
X203937118Y-153100466D01*
X204280166Y-153242561D01*
X204644344Y-153315000D01*
X205015656Y-153315000D01*
X205379834Y-153242561D01*
X205722882Y-153100466D01*
X206031618Y-152894175D01*
X206294175Y-152631618D01*
X206500466Y-152322882D01*
X206586300Y-152115660D01*
X207677062Y-152115660D01*
X207657926Y-152151461D01*
X207613039Y-152299434D01*
X207601680Y-152414760D01*
X207601680Y-152414767D01*
X207597883Y-152453320D01*
X207601680Y-152491873D01*
X207601681Y-154794688D01*
X207582743Y-154813626D01*
X207469475Y-154983144D01*
X207391454Y-155171502D01*
X207351680Y-155371461D01*
X207351680Y-155575339D01*
X207391454Y-155775298D01*
X207469475Y-155963656D01*
X207582743Y-156133174D01*
X207726906Y-156277337D01*
X207896424Y-156390605D01*
X208084782Y-156468626D01*
X208284741Y-156508400D01*
X208488619Y-156508400D01*
X208688578Y-156468626D01*
X208876936Y-156390605D01*
X209046454Y-156277337D01*
X209190617Y-156133174D01*
X209205360Y-156111109D01*
X209175000Y-156263740D01*
X209175000Y-156556260D01*
X209232068Y-156843158D01*
X209344010Y-157113411D01*
X209506525Y-157356632D01*
X209713368Y-157563475D01*
X209887760Y-157680000D01*
X209713368Y-157796525D01*
X209694893Y-157815000D01*
X206575152Y-157815000D01*
X206530466Y-157707118D01*
X206324175Y-157398382D01*
X206061618Y-157135825D01*
X205752882Y-156929534D01*
X205409834Y-156787439D01*
X205045656Y-156715000D01*
X204674344Y-156715000D01*
X204310166Y-156787439D01*
X203967118Y-156929534D01*
X203658382Y-157135825D01*
X203395825Y-157398382D01*
X203189534Y-157707118D01*
X203047439Y-158050166D01*
X202975000Y-158414344D01*
X202975000Y-158785656D01*
X203047439Y-159149834D01*
X203189534Y-159492882D01*
X203395825Y-159801618D01*
X203658382Y-160064175D01*
X203967118Y-160270466D01*
X204310166Y-160412561D01*
X204674344Y-160485000D01*
X205045656Y-160485000D01*
X205409834Y-160412561D01*
X205752882Y-160270466D01*
X206061618Y-160064175D01*
X206324175Y-159801618D01*
X206530466Y-159492882D01*
X206575152Y-159385000D01*
X209232831Y-159385000D01*
X209344010Y-159653411D01*
X209506525Y-159896632D01*
X209713368Y-160103475D01*
X209956589Y-160265990D01*
X210226842Y-160377932D01*
X210513740Y-160435000D01*
X210806260Y-160435000D01*
X211093158Y-160377932D01*
X211363411Y-160265990D01*
X211606632Y-160103475D01*
X211813475Y-159896632D01*
X211975990Y-159653411D01*
X212087932Y-159383158D01*
X212145000Y-159096260D01*
X212145000Y-158803740D01*
X212087932Y-158516842D01*
X211975990Y-158246589D01*
X211813475Y-158003368D01*
X211606632Y-157796525D01*
X211432240Y-157680000D01*
X211606632Y-157563475D01*
X211813475Y-157356632D01*
X211975990Y-157113411D01*
X212087932Y-156843158D01*
X212145000Y-156556260D01*
X212145000Y-156263740D01*
X212087932Y-155976842D01*
X211975990Y-155706589D01*
X211813475Y-155463368D01*
X211606632Y-155256525D01*
X211432240Y-155140000D01*
X211606632Y-155023475D01*
X211813475Y-154816632D01*
X211975990Y-154573411D01*
X212087932Y-154303158D01*
X212145000Y-154016260D01*
X212145000Y-153723740D01*
X212087932Y-153436842D01*
X211975990Y-153166589D01*
X211813475Y-152923368D01*
X211681620Y-152791513D01*
X211754180Y-152769502D01*
X211864494Y-152710537D01*
X211961185Y-152631185D01*
X212040537Y-152534494D01*
X212099502Y-152424180D01*
X212135812Y-152304482D01*
X212148072Y-152180000D01*
X212148072Y-150480000D01*
X212135812Y-150355518D01*
X212099502Y-150235820D01*
X212040537Y-150125506D01*
X211961185Y-150028815D01*
X211954848Y-150023615D01*
X211999836Y-150014666D01*
X212306487Y-149887648D01*
X212396000Y-149827837D01*
X212396001Y-160610963D01*
X212306487Y-160551152D01*
X211999836Y-160424134D01*
X211674298Y-160359380D01*
X211342382Y-160359380D01*
X211016844Y-160424134D01*
X210710193Y-160551152D01*
X210434215Y-160735555D01*
X210199515Y-160970255D01*
X210015112Y-161246233D01*
X209888094Y-161552884D01*
X209823340Y-161878422D01*
X209823340Y-162210338D01*
X209888094Y-162535876D01*
X210015112Y-162842527D01*
X210030796Y-162866000D01*
X193610764Y-162866000D01*
X193626448Y-162842527D01*
X193753466Y-162535876D01*
X193818220Y-162210338D01*
X193818220Y-161878422D01*
X193753466Y-161552884D01*
X193626448Y-161246233D01*
X193442045Y-160970255D01*
X193207345Y-160735555D01*
X192931367Y-160551152D01*
X192624716Y-160424134D01*
X192299178Y-160359380D01*
X191967262Y-160359380D01*
X191641724Y-160424134D01*
X191335073Y-160551152D01*
X191210000Y-160634723D01*
X191210000Y-156283740D01*
X191405000Y-156283740D01*
X191405000Y-156576260D01*
X191462068Y-156863158D01*
X191574010Y-157133411D01*
X191736525Y-157376632D01*
X191943368Y-157583475D01*
X192186589Y-157745990D01*
X192456842Y-157857932D01*
X192743740Y-157915000D01*
X193036260Y-157915000D01*
X193323158Y-157857932D01*
X193593411Y-157745990D01*
X193836632Y-157583475D01*
X194043475Y-157376632D01*
X194205990Y-157133411D01*
X194317932Y-156863158D01*
X194375000Y-156576260D01*
X194375000Y-156283740D01*
X194317932Y-155996842D01*
X194205990Y-155726589D01*
X194043475Y-155483368D01*
X193836632Y-155276525D01*
X193593411Y-155114010D01*
X193323158Y-155002068D01*
X193036260Y-154945000D01*
X192743740Y-154945000D01*
X192456842Y-155002068D01*
X192186589Y-155114010D01*
X191943368Y-155276525D01*
X191736525Y-155483368D01*
X191574010Y-155726589D01*
X191462068Y-155996842D01*
X191405000Y-156283740D01*
X191210000Y-156283740D01*
X191210000Y-149775259D01*
X191355393Y-149872408D01*
X191653373Y-149995834D01*
X191588815Y-150048815D01*
X191509463Y-150145506D01*
X191450498Y-150255820D01*
X191414188Y-150375518D01*
X191401928Y-150500000D01*
X191401928Y-152200000D01*
X191414188Y-152324482D01*
X191450498Y-152444180D01*
X191509463Y-152554494D01*
X191588815Y-152651185D01*
X191685506Y-152730537D01*
X191795820Y-152789502D01*
X191915518Y-152825812D01*
X192040000Y-152838072D01*
X193740000Y-152838072D01*
X193864482Y-152825812D01*
X193984180Y-152789502D01*
X194094494Y-152730537D01*
X194191185Y-152651185D01*
X194270537Y-152554494D01*
X194329502Y-152444180D01*
X194365812Y-152324482D01*
X194377580Y-152205000D01*
X198125559Y-152205000D01*
X198149534Y-152262882D01*
X198355825Y-152571618D01*
X198618382Y-152834175D01*
X198927118Y-153040466D01*
X199270166Y-153182561D01*
X199634344Y-153255000D01*
X200005656Y-153255000D01*
X200369834Y-153182561D01*
X200712882Y-153040466D01*
X201021618Y-152834175D01*
X201284175Y-152571618D01*
X201490466Y-152262882D01*
X201632561Y-151919834D01*
X201705000Y-151555656D01*
X201705000Y-151184344D01*
X201632561Y-150820166D01*
X201490466Y-150477118D01*
X201284175Y-150168382D01*
X201021618Y-149905825D01*
X200712882Y-149699534D01*
X200369834Y-149557439D01*
X200005656Y-149485000D01*
X199634344Y-149485000D01*
X199270166Y-149557439D01*
X198927118Y-149699534D01*
X198618382Y-149905825D01*
X198355825Y-150168382D01*
X198149534Y-150477118D01*
X198125559Y-150535000D01*
X194378072Y-150535000D01*
X194378072Y-150500000D01*
X194365812Y-150375518D01*
X194329502Y-150255820D01*
X194270537Y-150145506D01*
X194191185Y-150048815D01*
X194094494Y-149969463D01*
X193984180Y-149910498D01*
X193864482Y-149874188D01*
X193740000Y-149861928D01*
X192967371Y-149861928D01*
X193227665Y-149688005D01*
X193462365Y-149453305D01*
X193646768Y-149177327D01*
X193773786Y-148870676D01*
X193838540Y-148545138D01*
X193838540Y-148213222D01*
X193773786Y-147887684D01*
X193646768Y-147581033D01*
X193607323Y-147522000D01*
X210064740Y-147522000D01*
X210015112Y-147596273D01*
M02*
