G04 #@! TF.GenerationSoftware,KiCad,Pcbnew,5.1.5+dfsg1-2build2*
G04 #@! TF.CreationDate,2021-08-26T01:23:47+05:30*
G04 #@! TF.ProjectId,AS5600-Encoder-PCB,41533536-3030-42d4-956e-636f6465722d,rev?*
G04 #@! TF.SameCoordinates,Original*
G04 #@! TF.FileFunction,Paste,Top*
G04 #@! TF.FilePolarity,Positive*
%FSLAX46Y46*%
G04 Gerber Fmt 4.6, Leading zero omitted, Abs format (unit mm)*
G04 Created by KiCad (PCBNEW 5.1.5+dfsg1-2build2) date 2021-08-26 01:23:47*
%MOMM*%
%LPD*%
G04 APERTURE LIST*
%ADD10C,0.100000*%
%ADD11R,1.500000X0.650000*%
G04 APERTURE END LIST*
D10*
G36*
X202988779Y-150275144D02*
G01*
X203011834Y-150278563D01*
X203034443Y-150284227D01*
X203056387Y-150292079D01*
X203077457Y-150302044D01*
X203097448Y-150314026D01*
X203116168Y-150327910D01*
X203133438Y-150343562D01*
X203149090Y-150360832D01*
X203162974Y-150379552D01*
X203174956Y-150399543D01*
X203184921Y-150420613D01*
X203192773Y-150442557D01*
X203198437Y-150465166D01*
X203201856Y-150488221D01*
X203203000Y-150511500D01*
X203203000Y-150986500D01*
X203201856Y-151009779D01*
X203198437Y-151032834D01*
X203192773Y-151055443D01*
X203184921Y-151077387D01*
X203174956Y-151098457D01*
X203162974Y-151118448D01*
X203149090Y-151137168D01*
X203133438Y-151154438D01*
X203116168Y-151170090D01*
X203097448Y-151183974D01*
X203077457Y-151195956D01*
X203056387Y-151205921D01*
X203034443Y-151213773D01*
X203011834Y-151219437D01*
X202988779Y-151222856D01*
X202965500Y-151224000D01*
X202390500Y-151224000D01*
X202367221Y-151222856D01*
X202344166Y-151219437D01*
X202321557Y-151213773D01*
X202299613Y-151205921D01*
X202278543Y-151195956D01*
X202258552Y-151183974D01*
X202239832Y-151170090D01*
X202222562Y-151154438D01*
X202206910Y-151137168D01*
X202193026Y-151118448D01*
X202181044Y-151098457D01*
X202171079Y-151077387D01*
X202163227Y-151055443D01*
X202157563Y-151032834D01*
X202154144Y-151009779D01*
X202153000Y-150986500D01*
X202153000Y-150511500D01*
X202154144Y-150488221D01*
X202157563Y-150465166D01*
X202163227Y-150442557D01*
X202171079Y-150420613D01*
X202181044Y-150399543D01*
X202193026Y-150379552D01*
X202206910Y-150360832D01*
X202222562Y-150343562D01*
X202239832Y-150327910D01*
X202258552Y-150314026D01*
X202278543Y-150302044D01*
X202299613Y-150292079D01*
X202321557Y-150284227D01*
X202344166Y-150278563D01*
X202367221Y-150275144D01*
X202390500Y-150274000D01*
X202965500Y-150274000D01*
X202988779Y-150275144D01*
G37*
G36*
X201238779Y-150275144D02*
G01*
X201261834Y-150278563D01*
X201284443Y-150284227D01*
X201306387Y-150292079D01*
X201327457Y-150302044D01*
X201347448Y-150314026D01*
X201366168Y-150327910D01*
X201383438Y-150343562D01*
X201399090Y-150360832D01*
X201412974Y-150379552D01*
X201424956Y-150399543D01*
X201434921Y-150420613D01*
X201442773Y-150442557D01*
X201448437Y-150465166D01*
X201451856Y-150488221D01*
X201453000Y-150511500D01*
X201453000Y-150986500D01*
X201451856Y-151009779D01*
X201448437Y-151032834D01*
X201442773Y-151055443D01*
X201434921Y-151077387D01*
X201424956Y-151098457D01*
X201412974Y-151118448D01*
X201399090Y-151137168D01*
X201383438Y-151154438D01*
X201366168Y-151170090D01*
X201347448Y-151183974D01*
X201327457Y-151195956D01*
X201306387Y-151205921D01*
X201284443Y-151213773D01*
X201261834Y-151219437D01*
X201238779Y-151222856D01*
X201215500Y-151224000D01*
X200640500Y-151224000D01*
X200617221Y-151222856D01*
X200594166Y-151219437D01*
X200571557Y-151213773D01*
X200549613Y-151205921D01*
X200528543Y-151195956D01*
X200508552Y-151183974D01*
X200489832Y-151170090D01*
X200472562Y-151154438D01*
X200456910Y-151137168D01*
X200443026Y-151118448D01*
X200431044Y-151098457D01*
X200421079Y-151077387D01*
X200413227Y-151055443D01*
X200407563Y-151032834D01*
X200404144Y-151009779D01*
X200403000Y-150986500D01*
X200403000Y-150511500D01*
X200404144Y-150488221D01*
X200407563Y-150465166D01*
X200413227Y-150442557D01*
X200421079Y-150420613D01*
X200431044Y-150399543D01*
X200443026Y-150379552D01*
X200456910Y-150360832D01*
X200472562Y-150343562D01*
X200489832Y-150327910D01*
X200508552Y-150314026D01*
X200528543Y-150302044D01*
X200549613Y-150292079D01*
X200571557Y-150284227D01*
X200594166Y-150278563D01*
X200617221Y-150275144D01*
X200640500Y-150274000D01*
X201215500Y-150274000D01*
X201238779Y-150275144D01*
G37*
G36*
X202988779Y-159165144D02*
G01*
X203011834Y-159168563D01*
X203034443Y-159174227D01*
X203056387Y-159182079D01*
X203077457Y-159192044D01*
X203097448Y-159204026D01*
X203116168Y-159217910D01*
X203133438Y-159233562D01*
X203149090Y-159250832D01*
X203162974Y-159269552D01*
X203174956Y-159289543D01*
X203184921Y-159310613D01*
X203192773Y-159332557D01*
X203198437Y-159355166D01*
X203201856Y-159378221D01*
X203203000Y-159401500D01*
X203203000Y-159876500D01*
X203201856Y-159899779D01*
X203198437Y-159922834D01*
X203192773Y-159945443D01*
X203184921Y-159967387D01*
X203174956Y-159988457D01*
X203162974Y-160008448D01*
X203149090Y-160027168D01*
X203133438Y-160044438D01*
X203116168Y-160060090D01*
X203097448Y-160073974D01*
X203077457Y-160085956D01*
X203056387Y-160095921D01*
X203034443Y-160103773D01*
X203011834Y-160109437D01*
X202988779Y-160112856D01*
X202965500Y-160114000D01*
X202390500Y-160114000D01*
X202367221Y-160112856D01*
X202344166Y-160109437D01*
X202321557Y-160103773D01*
X202299613Y-160095921D01*
X202278543Y-160085956D01*
X202258552Y-160073974D01*
X202239832Y-160060090D01*
X202222562Y-160044438D01*
X202206910Y-160027168D01*
X202193026Y-160008448D01*
X202181044Y-159988457D01*
X202171079Y-159967387D01*
X202163227Y-159945443D01*
X202157563Y-159922834D01*
X202154144Y-159899779D01*
X202153000Y-159876500D01*
X202153000Y-159401500D01*
X202154144Y-159378221D01*
X202157563Y-159355166D01*
X202163227Y-159332557D01*
X202171079Y-159310613D01*
X202181044Y-159289543D01*
X202193026Y-159269552D01*
X202206910Y-159250832D01*
X202222562Y-159233562D01*
X202239832Y-159217910D01*
X202258552Y-159204026D01*
X202278543Y-159192044D01*
X202299613Y-159182079D01*
X202321557Y-159174227D01*
X202344166Y-159168563D01*
X202367221Y-159165144D01*
X202390500Y-159164000D01*
X202965500Y-159164000D01*
X202988779Y-159165144D01*
G37*
G36*
X201238779Y-159165144D02*
G01*
X201261834Y-159168563D01*
X201284443Y-159174227D01*
X201306387Y-159182079D01*
X201327457Y-159192044D01*
X201347448Y-159204026D01*
X201366168Y-159217910D01*
X201383438Y-159233562D01*
X201399090Y-159250832D01*
X201412974Y-159269552D01*
X201424956Y-159289543D01*
X201434921Y-159310613D01*
X201442773Y-159332557D01*
X201448437Y-159355166D01*
X201451856Y-159378221D01*
X201453000Y-159401500D01*
X201453000Y-159876500D01*
X201451856Y-159899779D01*
X201448437Y-159922834D01*
X201442773Y-159945443D01*
X201434921Y-159967387D01*
X201424956Y-159988457D01*
X201412974Y-160008448D01*
X201399090Y-160027168D01*
X201383438Y-160044438D01*
X201366168Y-160060090D01*
X201347448Y-160073974D01*
X201327457Y-160085956D01*
X201306387Y-160095921D01*
X201284443Y-160103773D01*
X201261834Y-160109437D01*
X201238779Y-160112856D01*
X201215500Y-160114000D01*
X200640500Y-160114000D01*
X200617221Y-160112856D01*
X200594166Y-160109437D01*
X200571557Y-160103773D01*
X200549613Y-160095921D01*
X200528543Y-160085956D01*
X200508552Y-160073974D01*
X200489832Y-160060090D01*
X200472562Y-160044438D01*
X200456910Y-160027168D01*
X200443026Y-160008448D01*
X200431044Y-159988457D01*
X200421079Y-159967387D01*
X200413227Y-159945443D01*
X200407563Y-159922834D01*
X200404144Y-159899779D01*
X200403000Y-159876500D01*
X200403000Y-159401500D01*
X200404144Y-159378221D01*
X200407563Y-159355166D01*
X200413227Y-159332557D01*
X200421079Y-159310613D01*
X200431044Y-159289543D01*
X200443026Y-159269552D01*
X200456910Y-159250832D01*
X200472562Y-159233562D01*
X200489832Y-159217910D01*
X200508552Y-159204026D01*
X200528543Y-159192044D01*
X200549613Y-159182079D01*
X200571557Y-159174227D01*
X200594166Y-159168563D01*
X200617221Y-159165144D01*
X200640500Y-159164000D01*
X201215500Y-159164000D01*
X201238779Y-159165144D01*
G37*
G36*
X197118504Y-152769804D02*
G01*
X197142773Y-152773404D01*
X197166571Y-152779365D01*
X197189671Y-152787630D01*
X197211849Y-152798120D01*
X197232893Y-152810733D01*
X197252598Y-152825347D01*
X197270777Y-152841823D01*
X197287253Y-152860002D01*
X197301867Y-152879707D01*
X197314480Y-152900751D01*
X197324970Y-152922929D01*
X197333235Y-152946029D01*
X197339196Y-152969827D01*
X197342796Y-152994096D01*
X197344000Y-153018600D01*
X197344000Y-153943600D01*
X197342796Y-153968104D01*
X197339196Y-153992373D01*
X197333235Y-154016171D01*
X197324970Y-154039271D01*
X197314480Y-154061449D01*
X197301867Y-154082493D01*
X197287253Y-154102198D01*
X197270777Y-154120377D01*
X197252598Y-154136853D01*
X197232893Y-154151467D01*
X197211849Y-154164080D01*
X197189671Y-154174570D01*
X197166571Y-154182835D01*
X197142773Y-154188796D01*
X197118504Y-154192396D01*
X197094000Y-154193600D01*
X195844000Y-154193600D01*
X195819496Y-154192396D01*
X195795227Y-154188796D01*
X195771429Y-154182835D01*
X195748329Y-154174570D01*
X195726151Y-154164080D01*
X195705107Y-154151467D01*
X195685402Y-154136853D01*
X195667223Y-154120377D01*
X195650747Y-154102198D01*
X195636133Y-154082493D01*
X195623520Y-154061449D01*
X195613030Y-154039271D01*
X195604765Y-154016171D01*
X195598804Y-153992373D01*
X195595204Y-153968104D01*
X195594000Y-153943600D01*
X195594000Y-153018600D01*
X195595204Y-152994096D01*
X195598804Y-152969827D01*
X195604765Y-152946029D01*
X195613030Y-152922929D01*
X195623520Y-152900751D01*
X195636133Y-152879707D01*
X195650747Y-152860002D01*
X195667223Y-152841823D01*
X195685402Y-152825347D01*
X195705107Y-152810733D01*
X195726151Y-152798120D01*
X195748329Y-152787630D01*
X195771429Y-152779365D01*
X195795227Y-152773404D01*
X195819496Y-152769804D01*
X195844000Y-152768600D01*
X197094000Y-152768600D01*
X197118504Y-152769804D01*
G37*
G36*
X197118504Y-149794804D02*
G01*
X197142773Y-149798404D01*
X197166571Y-149804365D01*
X197189671Y-149812630D01*
X197211849Y-149823120D01*
X197232893Y-149835733D01*
X197252598Y-149850347D01*
X197270777Y-149866823D01*
X197287253Y-149885002D01*
X197301867Y-149904707D01*
X197314480Y-149925751D01*
X197324970Y-149947929D01*
X197333235Y-149971029D01*
X197339196Y-149994827D01*
X197342796Y-150019096D01*
X197344000Y-150043600D01*
X197344000Y-150968600D01*
X197342796Y-150993104D01*
X197339196Y-151017373D01*
X197333235Y-151041171D01*
X197324970Y-151064271D01*
X197314480Y-151086449D01*
X197301867Y-151107493D01*
X197287253Y-151127198D01*
X197270777Y-151145377D01*
X197252598Y-151161853D01*
X197232893Y-151176467D01*
X197211849Y-151189080D01*
X197189671Y-151199570D01*
X197166571Y-151207835D01*
X197142773Y-151213796D01*
X197118504Y-151217396D01*
X197094000Y-151218600D01*
X195844000Y-151218600D01*
X195819496Y-151217396D01*
X195795227Y-151213796D01*
X195771429Y-151207835D01*
X195748329Y-151199570D01*
X195726151Y-151189080D01*
X195705107Y-151176467D01*
X195685402Y-151161853D01*
X195667223Y-151145377D01*
X195650747Y-151127198D01*
X195636133Y-151107493D01*
X195623520Y-151086449D01*
X195613030Y-151064271D01*
X195604765Y-151041171D01*
X195598804Y-151017373D01*
X195595204Y-150993104D01*
X195594000Y-150968600D01*
X195594000Y-150043600D01*
X195595204Y-150019096D01*
X195598804Y-149994827D01*
X195604765Y-149971029D01*
X195613030Y-149947929D01*
X195623520Y-149925751D01*
X195636133Y-149904707D01*
X195650747Y-149885002D01*
X195667223Y-149866823D01*
X195685402Y-149850347D01*
X195705107Y-149835733D01*
X195726151Y-149823120D01*
X195748329Y-149812630D01*
X195771429Y-149804365D01*
X195795227Y-149798404D01*
X195819496Y-149794804D01*
X195844000Y-149793600D01*
X197094000Y-149793600D01*
X197118504Y-149794804D01*
G37*
G36*
X197118504Y-159094404D02*
G01*
X197142773Y-159098004D01*
X197166571Y-159103965D01*
X197189671Y-159112230D01*
X197211849Y-159122720D01*
X197232893Y-159135333D01*
X197252598Y-159149947D01*
X197270777Y-159166423D01*
X197287253Y-159184602D01*
X197301867Y-159204307D01*
X197314480Y-159225351D01*
X197324970Y-159247529D01*
X197333235Y-159270629D01*
X197339196Y-159294427D01*
X197342796Y-159318696D01*
X197344000Y-159343200D01*
X197344000Y-160268200D01*
X197342796Y-160292704D01*
X197339196Y-160316973D01*
X197333235Y-160340771D01*
X197324970Y-160363871D01*
X197314480Y-160386049D01*
X197301867Y-160407093D01*
X197287253Y-160426798D01*
X197270777Y-160444977D01*
X197252598Y-160461453D01*
X197232893Y-160476067D01*
X197211849Y-160488680D01*
X197189671Y-160499170D01*
X197166571Y-160507435D01*
X197142773Y-160513396D01*
X197118504Y-160516996D01*
X197094000Y-160518200D01*
X195844000Y-160518200D01*
X195819496Y-160516996D01*
X195795227Y-160513396D01*
X195771429Y-160507435D01*
X195748329Y-160499170D01*
X195726151Y-160488680D01*
X195705107Y-160476067D01*
X195685402Y-160461453D01*
X195667223Y-160444977D01*
X195650747Y-160426798D01*
X195636133Y-160407093D01*
X195623520Y-160386049D01*
X195613030Y-160363871D01*
X195604765Y-160340771D01*
X195598804Y-160316973D01*
X195595204Y-160292704D01*
X195594000Y-160268200D01*
X195594000Y-159343200D01*
X195595204Y-159318696D01*
X195598804Y-159294427D01*
X195604765Y-159270629D01*
X195613030Y-159247529D01*
X195623520Y-159225351D01*
X195636133Y-159204307D01*
X195650747Y-159184602D01*
X195667223Y-159166423D01*
X195685402Y-159149947D01*
X195705107Y-159135333D01*
X195726151Y-159122720D01*
X195748329Y-159112230D01*
X195771429Y-159103965D01*
X195795227Y-159098004D01*
X195819496Y-159094404D01*
X195844000Y-159093200D01*
X197094000Y-159093200D01*
X197118504Y-159094404D01*
G37*
G36*
X197118504Y-156119404D02*
G01*
X197142773Y-156123004D01*
X197166571Y-156128965D01*
X197189671Y-156137230D01*
X197211849Y-156147720D01*
X197232893Y-156160333D01*
X197252598Y-156174947D01*
X197270777Y-156191423D01*
X197287253Y-156209602D01*
X197301867Y-156229307D01*
X197314480Y-156250351D01*
X197324970Y-156272529D01*
X197333235Y-156295629D01*
X197339196Y-156319427D01*
X197342796Y-156343696D01*
X197344000Y-156368200D01*
X197344000Y-157293200D01*
X197342796Y-157317704D01*
X197339196Y-157341973D01*
X197333235Y-157365771D01*
X197324970Y-157388871D01*
X197314480Y-157411049D01*
X197301867Y-157432093D01*
X197287253Y-157451798D01*
X197270777Y-157469977D01*
X197252598Y-157486453D01*
X197232893Y-157501067D01*
X197211849Y-157513680D01*
X197189671Y-157524170D01*
X197166571Y-157532435D01*
X197142773Y-157538396D01*
X197118504Y-157541996D01*
X197094000Y-157543200D01*
X195844000Y-157543200D01*
X195819496Y-157541996D01*
X195795227Y-157538396D01*
X195771429Y-157532435D01*
X195748329Y-157524170D01*
X195726151Y-157513680D01*
X195705107Y-157501067D01*
X195685402Y-157486453D01*
X195667223Y-157469977D01*
X195650747Y-157451798D01*
X195636133Y-157432093D01*
X195623520Y-157411049D01*
X195613030Y-157388871D01*
X195604765Y-157365771D01*
X195598804Y-157341973D01*
X195595204Y-157317704D01*
X195594000Y-157293200D01*
X195594000Y-156368200D01*
X195595204Y-156343696D01*
X195598804Y-156319427D01*
X195604765Y-156295629D01*
X195613030Y-156272529D01*
X195623520Y-156250351D01*
X195636133Y-156229307D01*
X195650747Y-156209602D01*
X195667223Y-156191423D01*
X195685402Y-156174947D01*
X195705107Y-156160333D01*
X195726151Y-156147720D01*
X195748329Y-156137230D01*
X195771429Y-156128965D01*
X195795227Y-156123004D01*
X195819496Y-156119404D01*
X195844000Y-156118200D01*
X197094000Y-156118200D01*
X197118504Y-156119404D01*
G37*
D11*
X204503000Y-153289000D03*
X204503000Y-154559000D03*
X204503000Y-155829000D03*
X204503000Y-157099000D03*
X199103000Y-157099000D03*
X199103000Y-155829000D03*
X199103000Y-154559000D03*
X199103000Y-153289000D03*
M02*
