G04 #@! TF.GenerationSoftware,KiCad,Pcbnew,5.1.5+dfsg1-2build2*
G04 #@! TF.CreationDate,2021-08-24T21:55:17+05:30*
G04 #@! TF.ProjectId,AS5600-Encoder-PCB,41533536-3030-42d4-956e-636f6465722d,rev?*
G04 #@! TF.SameCoordinates,Original*
G04 #@! TF.FileFunction,Paste,Top*
G04 #@! TF.FilePolarity,Positive*
%FSLAX46Y46*%
G04 Gerber Fmt 4.6, Leading zero omitted, Abs format (unit mm)*
G04 Created by KiCad (PCBNEW 5.1.5+dfsg1-2build2) date 2021-08-24 21:55:17*
%MOMM*%
%LPD*%
G04 APERTURE LIST*
%ADD10C,0.100000*%
%ADD11R,1.500000X0.650000*%
G04 APERTURE END LIST*
D10*
G36*
X206075779Y-150386144D02*
G01*
X206098834Y-150389563D01*
X206121443Y-150395227D01*
X206143387Y-150403079D01*
X206164457Y-150413044D01*
X206184448Y-150425026D01*
X206203168Y-150438910D01*
X206220438Y-150454562D01*
X206236090Y-150471832D01*
X206249974Y-150490552D01*
X206261956Y-150510543D01*
X206271921Y-150531613D01*
X206279773Y-150553557D01*
X206285437Y-150576166D01*
X206288856Y-150599221D01*
X206290000Y-150622500D01*
X206290000Y-151097500D01*
X206288856Y-151120779D01*
X206285437Y-151143834D01*
X206279773Y-151166443D01*
X206271921Y-151188387D01*
X206261956Y-151209457D01*
X206249974Y-151229448D01*
X206236090Y-151248168D01*
X206220438Y-151265438D01*
X206203168Y-151281090D01*
X206184448Y-151294974D01*
X206164457Y-151306956D01*
X206143387Y-151316921D01*
X206121443Y-151324773D01*
X206098834Y-151330437D01*
X206075779Y-151333856D01*
X206052500Y-151335000D01*
X205477500Y-151335000D01*
X205454221Y-151333856D01*
X205431166Y-151330437D01*
X205408557Y-151324773D01*
X205386613Y-151316921D01*
X205365543Y-151306956D01*
X205345552Y-151294974D01*
X205326832Y-151281090D01*
X205309562Y-151265438D01*
X205293910Y-151248168D01*
X205280026Y-151229448D01*
X205268044Y-151209457D01*
X205258079Y-151188387D01*
X205250227Y-151166443D01*
X205244563Y-151143834D01*
X205241144Y-151120779D01*
X205240000Y-151097500D01*
X205240000Y-150622500D01*
X205241144Y-150599221D01*
X205244563Y-150576166D01*
X205250227Y-150553557D01*
X205258079Y-150531613D01*
X205268044Y-150510543D01*
X205280026Y-150490552D01*
X205293910Y-150471832D01*
X205309562Y-150454562D01*
X205326832Y-150438910D01*
X205345552Y-150425026D01*
X205365543Y-150413044D01*
X205386613Y-150403079D01*
X205408557Y-150395227D01*
X205431166Y-150389563D01*
X205454221Y-150386144D01*
X205477500Y-150385000D01*
X206052500Y-150385000D01*
X206075779Y-150386144D01*
G37*
G36*
X204325779Y-150386144D02*
G01*
X204348834Y-150389563D01*
X204371443Y-150395227D01*
X204393387Y-150403079D01*
X204414457Y-150413044D01*
X204434448Y-150425026D01*
X204453168Y-150438910D01*
X204470438Y-150454562D01*
X204486090Y-150471832D01*
X204499974Y-150490552D01*
X204511956Y-150510543D01*
X204521921Y-150531613D01*
X204529773Y-150553557D01*
X204535437Y-150576166D01*
X204538856Y-150599221D01*
X204540000Y-150622500D01*
X204540000Y-151097500D01*
X204538856Y-151120779D01*
X204535437Y-151143834D01*
X204529773Y-151166443D01*
X204521921Y-151188387D01*
X204511956Y-151209457D01*
X204499974Y-151229448D01*
X204486090Y-151248168D01*
X204470438Y-151265438D01*
X204453168Y-151281090D01*
X204434448Y-151294974D01*
X204414457Y-151306956D01*
X204393387Y-151316921D01*
X204371443Y-151324773D01*
X204348834Y-151330437D01*
X204325779Y-151333856D01*
X204302500Y-151335000D01*
X203727500Y-151335000D01*
X203704221Y-151333856D01*
X203681166Y-151330437D01*
X203658557Y-151324773D01*
X203636613Y-151316921D01*
X203615543Y-151306956D01*
X203595552Y-151294974D01*
X203576832Y-151281090D01*
X203559562Y-151265438D01*
X203543910Y-151248168D01*
X203530026Y-151229448D01*
X203518044Y-151209457D01*
X203508079Y-151188387D01*
X203500227Y-151166443D01*
X203494563Y-151143834D01*
X203491144Y-151120779D01*
X203490000Y-151097500D01*
X203490000Y-150622500D01*
X203491144Y-150599221D01*
X203494563Y-150576166D01*
X203500227Y-150553557D01*
X203508079Y-150531613D01*
X203518044Y-150510543D01*
X203530026Y-150490552D01*
X203543910Y-150471832D01*
X203559562Y-150454562D01*
X203576832Y-150438910D01*
X203595552Y-150425026D01*
X203615543Y-150413044D01*
X203636613Y-150403079D01*
X203658557Y-150395227D01*
X203681166Y-150389563D01*
X203704221Y-150386144D01*
X203727500Y-150385000D01*
X204302500Y-150385000D01*
X204325779Y-150386144D01*
G37*
G36*
X206095779Y-153216144D02*
G01*
X206118834Y-153219563D01*
X206141443Y-153225227D01*
X206163387Y-153233079D01*
X206184457Y-153243044D01*
X206204448Y-153255026D01*
X206223168Y-153268910D01*
X206240438Y-153284562D01*
X206256090Y-153301832D01*
X206269974Y-153320552D01*
X206281956Y-153340543D01*
X206291921Y-153361613D01*
X206299773Y-153383557D01*
X206305437Y-153406166D01*
X206308856Y-153429221D01*
X206310000Y-153452500D01*
X206310000Y-153927500D01*
X206308856Y-153950779D01*
X206305437Y-153973834D01*
X206299773Y-153996443D01*
X206291921Y-154018387D01*
X206281956Y-154039457D01*
X206269974Y-154059448D01*
X206256090Y-154078168D01*
X206240438Y-154095438D01*
X206223168Y-154111090D01*
X206204448Y-154124974D01*
X206184457Y-154136956D01*
X206163387Y-154146921D01*
X206141443Y-154154773D01*
X206118834Y-154160437D01*
X206095779Y-154163856D01*
X206072500Y-154165000D01*
X205497500Y-154165000D01*
X205474221Y-154163856D01*
X205451166Y-154160437D01*
X205428557Y-154154773D01*
X205406613Y-154146921D01*
X205385543Y-154136956D01*
X205365552Y-154124974D01*
X205346832Y-154111090D01*
X205329562Y-154095438D01*
X205313910Y-154078168D01*
X205300026Y-154059448D01*
X205288044Y-154039457D01*
X205278079Y-154018387D01*
X205270227Y-153996443D01*
X205264563Y-153973834D01*
X205261144Y-153950779D01*
X205260000Y-153927500D01*
X205260000Y-153452500D01*
X205261144Y-153429221D01*
X205264563Y-153406166D01*
X205270227Y-153383557D01*
X205278079Y-153361613D01*
X205288044Y-153340543D01*
X205300026Y-153320552D01*
X205313910Y-153301832D01*
X205329562Y-153284562D01*
X205346832Y-153268910D01*
X205365552Y-153255026D01*
X205385543Y-153243044D01*
X205406613Y-153233079D01*
X205428557Y-153225227D01*
X205451166Y-153219563D01*
X205474221Y-153216144D01*
X205497500Y-153215000D01*
X206072500Y-153215000D01*
X206095779Y-153216144D01*
G37*
G36*
X204345779Y-153216144D02*
G01*
X204368834Y-153219563D01*
X204391443Y-153225227D01*
X204413387Y-153233079D01*
X204434457Y-153243044D01*
X204454448Y-153255026D01*
X204473168Y-153268910D01*
X204490438Y-153284562D01*
X204506090Y-153301832D01*
X204519974Y-153320552D01*
X204531956Y-153340543D01*
X204541921Y-153361613D01*
X204549773Y-153383557D01*
X204555437Y-153406166D01*
X204558856Y-153429221D01*
X204560000Y-153452500D01*
X204560000Y-153927500D01*
X204558856Y-153950779D01*
X204555437Y-153973834D01*
X204549773Y-153996443D01*
X204541921Y-154018387D01*
X204531956Y-154039457D01*
X204519974Y-154059448D01*
X204506090Y-154078168D01*
X204490438Y-154095438D01*
X204473168Y-154111090D01*
X204454448Y-154124974D01*
X204434457Y-154136956D01*
X204413387Y-154146921D01*
X204391443Y-154154773D01*
X204368834Y-154160437D01*
X204345779Y-154163856D01*
X204322500Y-154165000D01*
X203747500Y-154165000D01*
X203724221Y-154163856D01*
X203701166Y-154160437D01*
X203678557Y-154154773D01*
X203656613Y-154146921D01*
X203635543Y-154136956D01*
X203615552Y-154124974D01*
X203596832Y-154111090D01*
X203579562Y-154095438D01*
X203563910Y-154078168D01*
X203550026Y-154059448D01*
X203538044Y-154039457D01*
X203528079Y-154018387D01*
X203520227Y-153996443D01*
X203514563Y-153973834D01*
X203511144Y-153950779D01*
X203510000Y-153927500D01*
X203510000Y-153452500D01*
X203511144Y-153429221D01*
X203514563Y-153406166D01*
X203520227Y-153383557D01*
X203528079Y-153361613D01*
X203538044Y-153340543D01*
X203550026Y-153320552D01*
X203563910Y-153301832D01*
X203579562Y-153284562D01*
X203596832Y-153268910D01*
X203615552Y-153255026D01*
X203635543Y-153243044D01*
X203656613Y-153233079D01*
X203678557Y-153225227D01*
X203701166Y-153219563D01*
X203724221Y-153216144D01*
X203747500Y-153215000D01*
X204322500Y-153215000D01*
X204345779Y-153216144D01*
G37*
G36*
X197179504Y-153306204D02*
G01*
X197203773Y-153309804D01*
X197227571Y-153315765D01*
X197250671Y-153324030D01*
X197272849Y-153334520D01*
X197293893Y-153347133D01*
X197313598Y-153361747D01*
X197331777Y-153378223D01*
X197348253Y-153396402D01*
X197362867Y-153416107D01*
X197375480Y-153437151D01*
X197385970Y-153459329D01*
X197394235Y-153482429D01*
X197400196Y-153506227D01*
X197403796Y-153530496D01*
X197405000Y-153555000D01*
X197405000Y-154480000D01*
X197403796Y-154504504D01*
X197400196Y-154528773D01*
X197394235Y-154552571D01*
X197385970Y-154575671D01*
X197375480Y-154597849D01*
X197362867Y-154618893D01*
X197348253Y-154638598D01*
X197331777Y-154656777D01*
X197313598Y-154673253D01*
X197293893Y-154687867D01*
X197272849Y-154700480D01*
X197250671Y-154710970D01*
X197227571Y-154719235D01*
X197203773Y-154725196D01*
X197179504Y-154728796D01*
X197155000Y-154730000D01*
X195905000Y-154730000D01*
X195880496Y-154728796D01*
X195856227Y-154725196D01*
X195832429Y-154719235D01*
X195809329Y-154710970D01*
X195787151Y-154700480D01*
X195766107Y-154687867D01*
X195746402Y-154673253D01*
X195728223Y-154656777D01*
X195711747Y-154638598D01*
X195697133Y-154618893D01*
X195684520Y-154597849D01*
X195674030Y-154575671D01*
X195665765Y-154552571D01*
X195659804Y-154528773D01*
X195656204Y-154504504D01*
X195655000Y-154480000D01*
X195655000Y-153555000D01*
X195656204Y-153530496D01*
X195659804Y-153506227D01*
X195665765Y-153482429D01*
X195674030Y-153459329D01*
X195684520Y-153437151D01*
X195697133Y-153416107D01*
X195711747Y-153396402D01*
X195728223Y-153378223D01*
X195746402Y-153361747D01*
X195766107Y-153347133D01*
X195787151Y-153334520D01*
X195809329Y-153324030D01*
X195832429Y-153315765D01*
X195856227Y-153309804D01*
X195880496Y-153306204D01*
X195905000Y-153305000D01*
X197155000Y-153305000D01*
X197179504Y-153306204D01*
G37*
G36*
X197179504Y-150331204D02*
G01*
X197203773Y-150334804D01*
X197227571Y-150340765D01*
X197250671Y-150349030D01*
X197272849Y-150359520D01*
X197293893Y-150372133D01*
X197313598Y-150386747D01*
X197331777Y-150403223D01*
X197348253Y-150421402D01*
X197362867Y-150441107D01*
X197375480Y-150462151D01*
X197385970Y-150484329D01*
X197394235Y-150507429D01*
X197400196Y-150531227D01*
X197403796Y-150555496D01*
X197405000Y-150580000D01*
X197405000Y-151505000D01*
X197403796Y-151529504D01*
X197400196Y-151553773D01*
X197394235Y-151577571D01*
X197385970Y-151600671D01*
X197375480Y-151622849D01*
X197362867Y-151643893D01*
X197348253Y-151663598D01*
X197331777Y-151681777D01*
X197313598Y-151698253D01*
X197293893Y-151712867D01*
X197272849Y-151725480D01*
X197250671Y-151735970D01*
X197227571Y-151744235D01*
X197203773Y-151750196D01*
X197179504Y-151753796D01*
X197155000Y-151755000D01*
X195905000Y-151755000D01*
X195880496Y-151753796D01*
X195856227Y-151750196D01*
X195832429Y-151744235D01*
X195809329Y-151735970D01*
X195787151Y-151725480D01*
X195766107Y-151712867D01*
X195746402Y-151698253D01*
X195728223Y-151681777D01*
X195711747Y-151663598D01*
X195697133Y-151643893D01*
X195684520Y-151622849D01*
X195674030Y-151600671D01*
X195665765Y-151577571D01*
X195659804Y-151553773D01*
X195656204Y-151529504D01*
X195655000Y-151505000D01*
X195655000Y-150580000D01*
X195656204Y-150555496D01*
X195659804Y-150531227D01*
X195665765Y-150507429D01*
X195674030Y-150484329D01*
X195684520Y-150462151D01*
X195697133Y-150441107D01*
X195711747Y-150421402D01*
X195728223Y-150403223D01*
X195746402Y-150386747D01*
X195766107Y-150372133D01*
X195787151Y-150359520D01*
X195809329Y-150349030D01*
X195832429Y-150340765D01*
X195856227Y-150334804D01*
X195880496Y-150331204D01*
X195905000Y-150330000D01*
X197155000Y-150330000D01*
X197179504Y-150331204D01*
G37*
G36*
X200379504Y-150331204D02*
G01*
X200403773Y-150334804D01*
X200427571Y-150340765D01*
X200450671Y-150349030D01*
X200472849Y-150359520D01*
X200493893Y-150372133D01*
X200513598Y-150386747D01*
X200531777Y-150403223D01*
X200548253Y-150421402D01*
X200562867Y-150441107D01*
X200575480Y-150462151D01*
X200585970Y-150484329D01*
X200594235Y-150507429D01*
X200600196Y-150531227D01*
X200603796Y-150555496D01*
X200605000Y-150580000D01*
X200605000Y-151505000D01*
X200603796Y-151529504D01*
X200600196Y-151553773D01*
X200594235Y-151577571D01*
X200585970Y-151600671D01*
X200575480Y-151622849D01*
X200562867Y-151643893D01*
X200548253Y-151663598D01*
X200531777Y-151681777D01*
X200513598Y-151698253D01*
X200493893Y-151712867D01*
X200472849Y-151725480D01*
X200450671Y-151735970D01*
X200427571Y-151744235D01*
X200403773Y-151750196D01*
X200379504Y-151753796D01*
X200355000Y-151755000D01*
X199105000Y-151755000D01*
X199080496Y-151753796D01*
X199056227Y-151750196D01*
X199032429Y-151744235D01*
X199009329Y-151735970D01*
X198987151Y-151725480D01*
X198966107Y-151712867D01*
X198946402Y-151698253D01*
X198928223Y-151681777D01*
X198911747Y-151663598D01*
X198897133Y-151643893D01*
X198884520Y-151622849D01*
X198874030Y-151600671D01*
X198865765Y-151577571D01*
X198859804Y-151553773D01*
X198856204Y-151529504D01*
X198855000Y-151505000D01*
X198855000Y-150580000D01*
X198856204Y-150555496D01*
X198859804Y-150531227D01*
X198865765Y-150507429D01*
X198874030Y-150484329D01*
X198884520Y-150462151D01*
X198897133Y-150441107D01*
X198911747Y-150421402D01*
X198928223Y-150403223D01*
X198946402Y-150386747D01*
X198966107Y-150372133D01*
X198987151Y-150359520D01*
X199009329Y-150349030D01*
X199032429Y-150340765D01*
X199056227Y-150334804D01*
X199080496Y-150331204D01*
X199105000Y-150330000D01*
X200355000Y-150330000D01*
X200379504Y-150331204D01*
G37*
G36*
X200379504Y-153306204D02*
G01*
X200403773Y-153309804D01*
X200427571Y-153315765D01*
X200450671Y-153324030D01*
X200472849Y-153334520D01*
X200493893Y-153347133D01*
X200513598Y-153361747D01*
X200531777Y-153378223D01*
X200548253Y-153396402D01*
X200562867Y-153416107D01*
X200575480Y-153437151D01*
X200585970Y-153459329D01*
X200594235Y-153482429D01*
X200600196Y-153506227D01*
X200603796Y-153530496D01*
X200605000Y-153555000D01*
X200605000Y-154480000D01*
X200603796Y-154504504D01*
X200600196Y-154528773D01*
X200594235Y-154552571D01*
X200585970Y-154575671D01*
X200575480Y-154597849D01*
X200562867Y-154618893D01*
X200548253Y-154638598D01*
X200531777Y-154656777D01*
X200513598Y-154673253D01*
X200493893Y-154687867D01*
X200472849Y-154700480D01*
X200450671Y-154710970D01*
X200427571Y-154719235D01*
X200403773Y-154725196D01*
X200379504Y-154728796D01*
X200355000Y-154730000D01*
X199105000Y-154730000D01*
X199080496Y-154728796D01*
X199056227Y-154725196D01*
X199032429Y-154719235D01*
X199009329Y-154710970D01*
X198987151Y-154700480D01*
X198966107Y-154687867D01*
X198946402Y-154673253D01*
X198928223Y-154656777D01*
X198911747Y-154638598D01*
X198897133Y-154618893D01*
X198884520Y-154597849D01*
X198874030Y-154575671D01*
X198865765Y-154552571D01*
X198859804Y-154528773D01*
X198856204Y-154504504D01*
X198855000Y-154480000D01*
X198855000Y-153555000D01*
X198856204Y-153530496D01*
X198859804Y-153506227D01*
X198865765Y-153482429D01*
X198874030Y-153459329D01*
X198884520Y-153437151D01*
X198897133Y-153416107D01*
X198911747Y-153396402D01*
X198928223Y-153378223D01*
X198946402Y-153361747D01*
X198966107Y-153347133D01*
X198987151Y-153334520D01*
X199009329Y-153324030D01*
X199032429Y-153315765D01*
X199056227Y-153309804D01*
X199080496Y-153306204D01*
X199105000Y-153305000D01*
X200355000Y-153305000D01*
X200379504Y-153306204D01*
G37*
D11*
X204462360Y-156011880D03*
X204462360Y-157281880D03*
X204462360Y-158551880D03*
X204462360Y-159821880D03*
X199062360Y-159821880D03*
X199062360Y-158551880D03*
X199062360Y-157281880D03*
X199062360Y-156011880D03*
M02*
