%FSLAX45Y45*%
G04 Gerber Fmt 4.5, Leading zero omitted, Abs format (unit mm)*
G04 Created by KiCad (PCBNEW 5.1.5+dfsg1-2build2) date 2021-08-24 21:16:04*
%MOMM*%
%LPD*%
G04 APERTURE LIST*
%TA.AperFunction,Profile*%
%ADD10C,0.150000*%
%TD*%
%ADD11C,0.200000*%
%ADD12C,0.300000*%
G04 APERTURE END LIST*
D10*
X19050000Y-16357600D02*
X19050000Y-14681200D01*
X21310600Y-16357600D02*
X19050000Y-16357600D01*
X21310600Y-14681200D02*
X21310600Y-16357600D01*
X19050000Y-14681200D02*
X21310600Y-14681200D01*
D11*
X19634520Y-15653832D02*
X19674520Y-15693832D01*
X19674520Y-15653832D02*
X19634520Y-15693832D01*
X19953000Y-15651800D02*
X19993000Y-15691800D01*
X19993000Y-15651800D02*
X19953000Y-15691800D01*
X19958000Y-15969000D02*
X19998000Y-16009000D01*
X19998000Y-15969000D02*
X19958000Y-16009000D01*
X20823000Y-15418000D02*
X20863000Y-15458000D01*
X20863000Y-15418000D02*
X20823000Y-15458000D01*
X19339000Y-15135000D02*
G75*
G03X19339000Y-15135000I-50000J0D01*
G01*
X19339000Y-15389000D02*
G75*
G03X19339000Y-15389000I-50000J0D01*
G01*
X19339000Y-15643000D02*
G75*
G03X19339000Y-15643000I-50000J0D01*
G01*
X19339000Y-15897000D02*
G75*
G03X19339000Y-15897000I-50000J0D01*
G01*
X21116000Y-15133000D02*
G75*
G03X21116000Y-15133000I-50000J0D01*
G01*
X21116000Y-15387000D02*
G75*
G03X21116000Y-15387000I-50000J0D01*
G01*
X21116000Y-15641000D02*
G75*
G03X21116000Y-15641000I-50000J0D01*
G01*
X21116000Y-15895000D02*
G75*
G03X21116000Y-15895000I-50000J0D01*
G01*
X21136000Y-14730000D02*
X21136000Y-14940000D01*
X21031000Y-14835000D02*
X21241000Y-14835000D01*
X19226000Y-14731000D02*
X19226000Y-14941000D01*
X19121000Y-14836000D02*
X19331000Y-14836000D01*
X21139000Y-16103000D02*
X21139000Y-16313000D01*
X21034000Y-16208000D02*
X21244000Y-16208000D01*
X19228000Y-16103000D02*
X19228000Y-16313000D01*
X19123000Y-16208000D02*
X19333000Y-16208000D01*
D12*
X19328928Y-16830814D02*
X19328928Y-16530814D01*
X19400357Y-16530814D01*
X19443214Y-16545100D01*
X19471786Y-16573671D01*
X19486071Y-16602243D01*
X19500357Y-16659386D01*
X19500357Y-16702243D01*
X19486071Y-16759386D01*
X19471786Y-16787957D01*
X19443214Y-16816529D01*
X19400357Y-16830814D01*
X19328928Y-16830814D01*
X19628928Y-16830814D02*
X19628928Y-16630814D01*
X19628928Y-16687957D02*
X19643214Y-16659386D01*
X19657500Y-16645100D01*
X19686071Y-16630814D01*
X19714643Y-16630814D01*
X19814643Y-16830814D02*
X19814643Y-16630814D01*
X19814643Y-16530814D02*
X19800357Y-16545100D01*
X19814643Y-16559386D01*
X19828928Y-16545100D01*
X19814643Y-16530814D01*
X19814643Y-16559386D01*
X20000357Y-16830814D02*
X19971786Y-16816529D01*
X19957500Y-16787957D01*
X19957500Y-16530814D01*
X20157500Y-16830814D02*
X20128928Y-16816529D01*
X20114643Y-16787957D01*
X20114643Y-16530814D01*
X20500357Y-16830814D02*
X20500357Y-16530814D01*
X20600357Y-16745100D01*
X20700357Y-16530814D01*
X20700357Y-16830814D01*
X20971786Y-16830814D02*
X20971786Y-16673671D01*
X20957500Y-16645100D01*
X20928928Y-16630814D01*
X20871786Y-16630814D01*
X20843214Y-16645100D01*
X20971786Y-16816529D02*
X20943214Y-16830814D01*
X20871786Y-16830814D01*
X20843214Y-16816529D01*
X20828928Y-16787957D01*
X20828928Y-16759386D01*
X20843214Y-16730814D01*
X20871786Y-16716529D01*
X20943214Y-16716529D01*
X20971786Y-16702243D01*
X21114643Y-16630814D02*
X21114643Y-16930814D01*
X21114643Y-16645100D02*
X21143214Y-16630814D01*
X21200357Y-16630814D01*
X21228928Y-16645100D01*
X21243214Y-16659386D01*
X21257500Y-16687957D01*
X21257500Y-16773671D01*
X21243214Y-16802243D01*
X21228928Y-16816529D01*
X21200357Y-16830814D01*
X21143214Y-16830814D01*
X21114643Y-16816529D01*
X21386071Y-16802243D02*
X21400357Y-16816529D01*
X21386071Y-16830814D01*
X21371786Y-16816529D01*
X21386071Y-16802243D01*
X21386071Y-16830814D01*
X21386071Y-16645100D02*
X21400357Y-16659386D01*
X21386071Y-16673671D01*
X21371786Y-16659386D01*
X21386071Y-16645100D01*
X21386071Y-16673671D01*
X19002500Y-17305100D02*
X19042500Y-17345100D01*
X19042500Y-17305100D02*
X19002500Y-17345100D01*
X19386071Y-17160814D02*
X19414643Y-17160814D01*
X19443214Y-17175100D01*
X19457500Y-17189386D01*
X19471786Y-17217957D01*
X19486071Y-17275100D01*
X19486071Y-17346529D01*
X19471786Y-17403672D01*
X19457500Y-17432243D01*
X19443214Y-17446529D01*
X19414643Y-17460814D01*
X19386071Y-17460814D01*
X19357500Y-17446529D01*
X19343214Y-17432243D01*
X19328928Y-17403672D01*
X19314643Y-17346529D01*
X19314643Y-17275100D01*
X19328928Y-17217957D01*
X19343214Y-17189386D01*
X19357500Y-17175100D01*
X19386071Y-17160814D01*
X19614643Y-17432243D02*
X19628928Y-17446529D01*
X19614643Y-17460814D01*
X19600357Y-17446529D01*
X19614643Y-17432243D01*
X19614643Y-17460814D01*
X19886071Y-17260814D02*
X19886071Y-17460814D01*
X19814643Y-17146529D02*
X19743214Y-17360814D01*
X19928928Y-17360814D01*
X20100357Y-17160814D02*
X20128928Y-17160814D01*
X20157500Y-17175100D01*
X20171786Y-17189386D01*
X20186071Y-17217957D01*
X20200357Y-17275100D01*
X20200357Y-17346529D01*
X20186071Y-17403672D01*
X20171786Y-17432243D01*
X20157500Y-17446529D01*
X20128928Y-17460814D01*
X20100357Y-17460814D01*
X20071786Y-17446529D01*
X20057500Y-17432243D01*
X20043214Y-17403672D01*
X20028928Y-17346529D01*
X20028928Y-17275100D01*
X20043214Y-17217957D01*
X20057500Y-17189386D01*
X20071786Y-17175100D01*
X20100357Y-17160814D01*
X20328928Y-17460814D02*
X20328928Y-17260814D01*
X20328928Y-17289386D02*
X20343214Y-17275100D01*
X20371786Y-17260814D01*
X20414643Y-17260814D01*
X20443214Y-17275100D01*
X20457500Y-17303672D01*
X20457500Y-17460814D01*
X20457500Y-17303672D02*
X20471786Y-17275100D01*
X20500357Y-17260814D01*
X20543214Y-17260814D01*
X20571786Y-17275100D01*
X20586071Y-17303672D01*
X20586071Y-17460814D01*
X20728928Y-17460814D02*
X20728928Y-17260814D01*
X20728928Y-17289386D02*
X20743214Y-17275100D01*
X20771786Y-17260814D01*
X20814643Y-17260814D01*
X20843214Y-17275100D01*
X20857500Y-17303672D01*
X20857500Y-17460814D01*
X20857500Y-17303672D02*
X20871786Y-17275100D01*
X20900357Y-17260814D01*
X20943214Y-17260814D01*
X20971786Y-17275100D01*
X20986071Y-17303672D01*
X20986071Y-17460814D01*
X21571786Y-17146529D02*
X21314643Y-17532243D01*
X21957500Y-17160814D02*
X21986071Y-17160814D01*
X22014643Y-17175100D01*
X22028928Y-17189386D01*
X22043214Y-17217957D01*
X22057500Y-17275100D01*
X22057500Y-17346529D01*
X22043214Y-17403672D01*
X22028928Y-17432243D01*
X22014643Y-17446529D01*
X21986071Y-17460814D01*
X21957500Y-17460814D01*
X21928928Y-17446529D01*
X21914643Y-17432243D01*
X21900357Y-17403672D01*
X21886071Y-17346529D01*
X21886071Y-17275100D01*
X21900357Y-17217957D01*
X21914643Y-17189386D01*
X21928928Y-17175100D01*
X21957500Y-17160814D01*
X22186071Y-17432243D02*
X22200357Y-17446529D01*
X22186071Y-17460814D01*
X22171786Y-17446529D01*
X22186071Y-17432243D01*
X22186071Y-17460814D01*
X22386071Y-17160814D02*
X22414643Y-17160814D01*
X22443214Y-17175100D01*
X22457500Y-17189386D01*
X22471786Y-17217957D01*
X22486071Y-17275100D01*
X22486071Y-17346529D01*
X22471786Y-17403672D01*
X22457500Y-17432243D01*
X22443214Y-17446529D01*
X22414643Y-17460814D01*
X22386071Y-17460814D01*
X22357500Y-17446529D01*
X22343214Y-17432243D01*
X22328928Y-17403672D01*
X22314643Y-17346529D01*
X22314643Y-17275100D01*
X22328928Y-17217957D01*
X22343214Y-17189386D01*
X22357500Y-17175100D01*
X22386071Y-17160814D01*
X22771786Y-17460814D02*
X22600357Y-17460814D01*
X22686071Y-17460814D02*
X22686071Y-17160814D01*
X22657500Y-17203672D01*
X22628928Y-17232243D01*
X22600357Y-17246529D01*
X23028928Y-17160814D02*
X22971786Y-17160814D01*
X22943214Y-17175100D01*
X22928928Y-17189386D01*
X22900357Y-17232243D01*
X22886071Y-17289386D01*
X22886071Y-17403672D01*
X22900357Y-17432243D01*
X22914643Y-17446529D01*
X22943214Y-17460814D01*
X23000357Y-17460814D01*
X23028928Y-17446529D01*
X23043214Y-17432243D01*
X23057500Y-17403672D01*
X23057500Y-17332243D01*
X23043214Y-17303672D01*
X23028928Y-17289386D01*
X23000357Y-17275100D01*
X22943214Y-17275100D01*
X22914643Y-17289386D01*
X22900357Y-17303672D01*
X22886071Y-17332243D01*
X23171786Y-17160814D02*
X23171786Y-17217957D01*
X23286071Y-17160814D02*
X23286071Y-17217957D01*
X23728928Y-17575100D02*
X23714643Y-17560814D01*
X23686071Y-17517957D01*
X23671786Y-17489386D01*
X23657500Y-17446529D01*
X23643214Y-17375100D01*
X23643214Y-17317957D01*
X23657500Y-17246529D01*
X23671786Y-17203672D01*
X23686071Y-17175100D01*
X23714643Y-17132243D01*
X23728928Y-17117957D01*
X23971786Y-17260814D02*
X23971786Y-17460814D01*
X23900357Y-17146529D02*
X23828928Y-17360814D01*
X24014643Y-17360814D01*
X24357500Y-17460814D02*
X24357500Y-17160814D01*
X24486071Y-17460814D02*
X24486071Y-17303672D01*
X24471786Y-17275100D01*
X24443214Y-17260814D01*
X24400357Y-17260814D01*
X24371786Y-17275100D01*
X24357500Y-17289386D01*
X24671786Y-17460814D02*
X24643214Y-17446529D01*
X24628928Y-17432243D01*
X24614643Y-17403672D01*
X24614643Y-17317957D01*
X24628928Y-17289386D01*
X24643214Y-17275100D01*
X24671786Y-17260814D01*
X24714643Y-17260814D01*
X24743214Y-17275100D01*
X24757500Y-17289386D01*
X24771786Y-17317957D01*
X24771786Y-17403672D01*
X24757500Y-17432243D01*
X24743214Y-17446529D01*
X24714643Y-17460814D01*
X24671786Y-17460814D01*
X24943214Y-17460814D02*
X24914643Y-17446529D01*
X24900357Y-17417957D01*
X24900357Y-17160814D01*
X25171786Y-17446529D02*
X25143214Y-17460814D01*
X25086071Y-17460814D01*
X25057500Y-17446529D01*
X25043214Y-17417957D01*
X25043214Y-17303672D01*
X25057500Y-17275100D01*
X25086071Y-17260814D01*
X25143214Y-17260814D01*
X25171786Y-17275100D01*
X25186071Y-17303672D01*
X25186071Y-17332243D01*
X25043214Y-17360814D01*
X25300357Y-17446529D02*
X25328928Y-17460814D01*
X25386071Y-17460814D01*
X25414643Y-17446529D01*
X25428928Y-17417957D01*
X25428928Y-17403672D01*
X25414643Y-17375100D01*
X25386071Y-17360814D01*
X25343214Y-17360814D01*
X25314643Y-17346529D01*
X25300357Y-17317957D01*
X25300357Y-17303672D01*
X25314643Y-17275100D01*
X25343214Y-17260814D01*
X25386071Y-17260814D01*
X25414643Y-17275100D01*
X25528928Y-17575100D02*
X25543214Y-17560814D01*
X25571786Y-17517957D01*
X25586071Y-17489386D01*
X25600357Y-17446529D01*
X25614643Y-17375100D01*
X25614643Y-17317957D01*
X25600357Y-17246529D01*
X25586071Y-17203672D01*
X25571786Y-17175100D01*
X25543214Y-17132243D01*
X25528928Y-17117957D01*
X19042500Y-17721100D02*
G75*
G03X19042500Y-17721100I-50000J0D01*
G01*
X19486071Y-17856814D02*
X19314643Y-17856814D01*
X19400357Y-17856814D02*
X19400357Y-17556814D01*
X19371786Y-17599672D01*
X19343214Y-17628243D01*
X19314643Y-17642529D01*
X19614643Y-17828243D02*
X19628928Y-17842529D01*
X19614643Y-17856814D01*
X19600357Y-17842529D01*
X19614643Y-17828243D01*
X19614643Y-17856814D01*
X19814643Y-17556814D02*
X19843214Y-17556814D01*
X19871786Y-17571100D01*
X19886071Y-17585386D01*
X19900357Y-17613957D01*
X19914643Y-17671100D01*
X19914643Y-17742529D01*
X19900357Y-17799672D01*
X19886071Y-17828243D01*
X19871786Y-17842529D01*
X19843214Y-17856814D01*
X19814643Y-17856814D01*
X19786071Y-17842529D01*
X19771786Y-17828243D01*
X19757500Y-17799672D01*
X19743214Y-17742529D01*
X19743214Y-17671100D01*
X19757500Y-17613957D01*
X19771786Y-17585386D01*
X19786071Y-17571100D01*
X19814643Y-17556814D01*
X20100357Y-17556814D02*
X20128928Y-17556814D01*
X20157500Y-17571100D01*
X20171786Y-17585386D01*
X20186071Y-17613957D01*
X20200357Y-17671100D01*
X20200357Y-17742529D01*
X20186071Y-17799672D01*
X20171786Y-17828243D01*
X20157500Y-17842529D01*
X20128928Y-17856814D01*
X20100357Y-17856814D01*
X20071786Y-17842529D01*
X20057500Y-17828243D01*
X20043214Y-17799672D01*
X20028928Y-17742529D01*
X20028928Y-17671100D01*
X20043214Y-17613957D01*
X20057500Y-17585386D01*
X20071786Y-17571100D01*
X20100357Y-17556814D01*
X20328928Y-17856814D02*
X20328928Y-17656814D01*
X20328928Y-17685386D02*
X20343214Y-17671100D01*
X20371786Y-17656814D01*
X20414643Y-17656814D01*
X20443214Y-17671100D01*
X20457500Y-17699672D01*
X20457500Y-17856814D01*
X20457500Y-17699672D02*
X20471786Y-17671100D01*
X20500357Y-17656814D01*
X20543214Y-17656814D01*
X20571786Y-17671100D01*
X20586071Y-17699672D01*
X20586071Y-17856814D01*
X20728928Y-17856814D02*
X20728928Y-17656814D01*
X20728928Y-17685386D02*
X20743214Y-17671100D01*
X20771786Y-17656814D01*
X20814643Y-17656814D01*
X20843214Y-17671100D01*
X20857500Y-17699672D01*
X20857500Y-17856814D01*
X20857500Y-17699672D02*
X20871786Y-17671100D01*
X20900357Y-17656814D01*
X20943214Y-17656814D01*
X20971786Y-17671100D01*
X20986071Y-17699672D01*
X20986071Y-17856814D01*
X21571786Y-17542529D02*
X21314643Y-17928243D01*
X21957500Y-17556814D02*
X21986071Y-17556814D01*
X22014643Y-17571100D01*
X22028928Y-17585386D01*
X22043214Y-17613957D01*
X22057500Y-17671100D01*
X22057500Y-17742529D01*
X22043214Y-17799672D01*
X22028928Y-17828243D01*
X22014643Y-17842529D01*
X21986071Y-17856814D01*
X21957500Y-17856814D01*
X21928928Y-17842529D01*
X21914643Y-17828243D01*
X21900357Y-17799672D01*
X21886071Y-17742529D01*
X21886071Y-17671100D01*
X21900357Y-17613957D01*
X21914643Y-17585386D01*
X21928928Y-17571100D01*
X21957500Y-17556814D01*
X22186071Y-17828243D02*
X22200357Y-17842529D01*
X22186071Y-17856814D01*
X22171786Y-17842529D01*
X22186071Y-17828243D01*
X22186071Y-17856814D01*
X22386071Y-17556814D02*
X22414643Y-17556814D01*
X22443214Y-17571100D01*
X22457500Y-17585386D01*
X22471786Y-17613957D01*
X22486071Y-17671100D01*
X22486071Y-17742529D01*
X22471786Y-17799672D01*
X22457500Y-17828243D01*
X22443214Y-17842529D01*
X22414643Y-17856814D01*
X22386071Y-17856814D01*
X22357500Y-17842529D01*
X22343214Y-17828243D01*
X22328928Y-17799672D01*
X22314643Y-17742529D01*
X22314643Y-17671100D01*
X22328928Y-17613957D01*
X22343214Y-17585386D01*
X22357500Y-17571100D01*
X22386071Y-17556814D01*
X22586071Y-17556814D02*
X22771786Y-17556814D01*
X22671786Y-17671100D01*
X22714643Y-17671100D01*
X22743214Y-17685386D01*
X22757500Y-17699672D01*
X22771786Y-17728243D01*
X22771786Y-17799672D01*
X22757500Y-17828243D01*
X22743214Y-17842529D01*
X22714643Y-17856814D01*
X22628928Y-17856814D01*
X22600357Y-17842529D01*
X22586071Y-17828243D01*
X22914643Y-17856814D02*
X22971786Y-17856814D01*
X23000357Y-17842529D01*
X23014643Y-17828243D01*
X23043214Y-17785386D01*
X23057500Y-17728243D01*
X23057500Y-17613957D01*
X23043214Y-17585386D01*
X23028928Y-17571100D01*
X23000357Y-17556814D01*
X22943214Y-17556814D01*
X22914643Y-17571100D01*
X22900357Y-17585386D01*
X22886071Y-17613957D01*
X22886071Y-17685386D01*
X22900357Y-17713957D01*
X22914643Y-17728243D01*
X22943214Y-17742529D01*
X23000357Y-17742529D01*
X23028928Y-17728243D01*
X23043214Y-17713957D01*
X23057500Y-17685386D01*
X23171786Y-17556814D02*
X23171786Y-17613957D01*
X23286071Y-17556814D02*
X23286071Y-17613957D01*
X23728928Y-17971100D02*
X23714643Y-17956814D01*
X23686071Y-17913957D01*
X23671786Y-17885386D01*
X23657500Y-17842529D01*
X23643214Y-17771100D01*
X23643214Y-17713957D01*
X23657500Y-17642529D01*
X23671786Y-17599672D01*
X23686071Y-17571100D01*
X23714643Y-17528243D01*
X23728928Y-17513957D01*
X23886071Y-17685386D02*
X23857500Y-17671100D01*
X23843214Y-17656814D01*
X23828928Y-17628243D01*
X23828928Y-17613957D01*
X23843214Y-17585386D01*
X23857500Y-17571100D01*
X23886071Y-17556814D01*
X23943214Y-17556814D01*
X23971786Y-17571100D01*
X23986071Y-17585386D01*
X24000357Y-17613957D01*
X24000357Y-17628243D01*
X23986071Y-17656814D01*
X23971786Y-17671100D01*
X23943214Y-17685386D01*
X23886071Y-17685386D01*
X23857500Y-17699672D01*
X23843214Y-17713957D01*
X23828928Y-17742529D01*
X23828928Y-17799672D01*
X23843214Y-17828243D01*
X23857500Y-17842529D01*
X23886071Y-17856814D01*
X23943214Y-17856814D01*
X23971786Y-17842529D01*
X23986071Y-17828243D01*
X24000357Y-17799672D01*
X24000357Y-17742529D01*
X23986071Y-17713957D01*
X23971786Y-17699672D01*
X23943214Y-17685386D01*
X24357500Y-17856814D02*
X24357500Y-17556814D01*
X24486071Y-17856814D02*
X24486071Y-17699672D01*
X24471786Y-17671100D01*
X24443214Y-17656814D01*
X24400357Y-17656814D01*
X24371786Y-17671100D01*
X24357500Y-17685386D01*
X24671786Y-17856814D02*
X24643214Y-17842529D01*
X24628928Y-17828243D01*
X24614643Y-17799672D01*
X24614643Y-17713957D01*
X24628928Y-17685386D01*
X24643214Y-17671100D01*
X24671786Y-17656814D01*
X24714643Y-17656814D01*
X24743214Y-17671100D01*
X24757500Y-17685386D01*
X24771786Y-17713957D01*
X24771786Y-17799672D01*
X24757500Y-17828243D01*
X24743214Y-17842529D01*
X24714643Y-17856814D01*
X24671786Y-17856814D01*
X24943214Y-17856814D02*
X24914643Y-17842529D01*
X24900357Y-17813957D01*
X24900357Y-17556814D01*
X25171786Y-17842529D02*
X25143214Y-17856814D01*
X25086071Y-17856814D01*
X25057500Y-17842529D01*
X25043214Y-17813957D01*
X25043214Y-17699672D01*
X25057500Y-17671100D01*
X25086071Y-17656814D01*
X25143214Y-17656814D01*
X25171786Y-17671100D01*
X25186071Y-17699672D01*
X25186071Y-17728243D01*
X25043214Y-17756814D01*
X25300357Y-17842529D02*
X25328928Y-17856814D01*
X25386071Y-17856814D01*
X25414643Y-17842529D01*
X25428928Y-17813957D01*
X25428928Y-17799672D01*
X25414643Y-17771100D01*
X25386071Y-17756814D01*
X25343214Y-17756814D01*
X25314643Y-17742529D01*
X25300357Y-17713957D01*
X25300357Y-17699672D01*
X25314643Y-17671100D01*
X25343214Y-17656814D01*
X25386071Y-17656814D01*
X25414643Y-17671100D01*
X25528928Y-17971100D02*
X25543214Y-17956814D01*
X25571786Y-17913957D01*
X25586071Y-17885386D01*
X25600357Y-17842529D01*
X25614643Y-17771100D01*
X25614643Y-17713957D01*
X25600357Y-17642529D01*
X25586071Y-17599672D01*
X25571786Y-17571100D01*
X25543214Y-17528243D01*
X25528928Y-17513957D01*
X18937500Y-18012100D02*
X18937500Y-18222100D01*
X18832500Y-18117100D02*
X19042500Y-18117100D01*
X19314643Y-17981386D02*
X19328928Y-17967100D01*
X19357500Y-17952814D01*
X19428928Y-17952814D01*
X19457500Y-17967100D01*
X19471786Y-17981386D01*
X19486071Y-18009957D01*
X19486071Y-18038529D01*
X19471786Y-18081386D01*
X19300357Y-18252814D01*
X19486071Y-18252814D01*
X19614643Y-18224243D02*
X19628928Y-18238529D01*
X19614643Y-18252814D01*
X19600357Y-18238529D01*
X19614643Y-18224243D01*
X19614643Y-18252814D01*
X19914643Y-18252814D02*
X19743214Y-18252814D01*
X19828928Y-18252814D02*
X19828928Y-17952814D01*
X19800357Y-17995672D01*
X19771786Y-18024243D01*
X19743214Y-18038529D01*
X20100357Y-17952814D02*
X20128928Y-17952814D01*
X20157500Y-17967100D01*
X20171786Y-17981386D01*
X20186071Y-18009957D01*
X20200357Y-18067100D01*
X20200357Y-18138529D01*
X20186071Y-18195672D01*
X20171786Y-18224243D01*
X20157500Y-18238529D01*
X20128928Y-18252814D01*
X20100357Y-18252814D01*
X20071786Y-18238529D01*
X20057500Y-18224243D01*
X20043214Y-18195672D01*
X20028928Y-18138529D01*
X20028928Y-18067100D01*
X20043214Y-18009957D01*
X20057500Y-17981386D01*
X20071786Y-17967100D01*
X20100357Y-17952814D01*
X20328928Y-18252814D02*
X20328928Y-18052814D01*
X20328928Y-18081386D02*
X20343214Y-18067100D01*
X20371786Y-18052814D01*
X20414643Y-18052814D01*
X20443214Y-18067100D01*
X20457500Y-18095672D01*
X20457500Y-18252814D01*
X20457500Y-18095672D02*
X20471786Y-18067100D01*
X20500357Y-18052814D01*
X20543214Y-18052814D01*
X20571786Y-18067100D01*
X20586071Y-18095672D01*
X20586071Y-18252814D01*
X20728928Y-18252814D02*
X20728928Y-18052814D01*
X20728928Y-18081386D02*
X20743214Y-18067100D01*
X20771786Y-18052814D01*
X20814643Y-18052814D01*
X20843214Y-18067100D01*
X20857500Y-18095672D01*
X20857500Y-18252814D01*
X20857500Y-18095672D02*
X20871786Y-18067100D01*
X20900357Y-18052814D01*
X20943214Y-18052814D01*
X20971786Y-18067100D01*
X20986071Y-18095672D01*
X20986071Y-18252814D01*
X21571786Y-17938529D02*
X21314643Y-18324243D01*
X21957500Y-17952814D02*
X21986071Y-17952814D01*
X22014643Y-17967100D01*
X22028928Y-17981386D01*
X22043214Y-18009957D01*
X22057500Y-18067100D01*
X22057500Y-18138529D01*
X22043214Y-18195672D01*
X22028928Y-18224243D01*
X22014643Y-18238529D01*
X21986071Y-18252814D01*
X21957500Y-18252814D01*
X21928928Y-18238529D01*
X21914643Y-18224243D01*
X21900357Y-18195672D01*
X21886071Y-18138529D01*
X21886071Y-18067100D01*
X21900357Y-18009957D01*
X21914643Y-17981386D01*
X21928928Y-17967100D01*
X21957500Y-17952814D01*
X22186071Y-18224243D02*
X22200357Y-18238529D01*
X22186071Y-18252814D01*
X22171786Y-18238529D01*
X22186071Y-18224243D01*
X22186071Y-18252814D01*
X22386071Y-17952814D02*
X22414643Y-17952814D01*
X22443214Y-17967100D01*
X22457500Y-17981386D01*
X22471786Y-18009957D01*
X22486071Y-18067100D01*
X22486071Y-18138529D01*
X22471786Y-18195672D01*
X22457500Y-18224243D01*
X22443214Y-18238529D01*
X22414643Y-18252814D01*
X22386071Y-18252814D01*
X22357500Y-18238529D01*
X22343214Y-18224243D01*
X22328928Y-18195672D01*
X22314643Y-18138529D01*
X22314643Y-18067100D01*
X22328928Y-18009957D01*
X22343214Y-17981386D01*
X22357500Y-17967100D01*
X22386071Y-17952814D01*
X22657500Y-18081386D02*
X22628928Y-18067100D01*
X22614643Y-18052814D01*
X22600357Y-18024243D01*
X22600357Y-18009957D01*
X22614643Y-17981386D01*
X22628928Y-17967100D01*
X22657500Y-17952814D01*
X22714643Y-17952814D01*
X22743214Y-17967100D01*
X22757500Y-17981386D01*
X22771786Y-18009957D01*
X22771786Y-18024243D01*
X22757500Y-18052814D01*
X22743214Y-18067100D01*
X22714643Y-18081386D01*
X22657500Y-18081386D01*
X22628928Y-18095672D01*
X22614643Y-18109957D01*
X22600357Y-18138529D01*
X22600357Y-18195672D01*
X22614643Y-18224243D01*
X22628928Y-18238529D01*
X22657500Y-18252814D01*
X22714643Y-18252814D01*
X22743214Y-18238529D01*
X22757500Y-18224243D01*
X22771786Y-18195672D01*
X22771786Y-18138529D01*
X22757500Y-18109957D01*
X22743214Y-18095672D01*
X22714643Y-18081386D01*
X22871786Y-17952814D02*
X23057500Y-17952814D01*
X22957500Y-18067100D01*
X23000357Y-18067100D01*
X23028928Y-18081386D01*
X23043214Y-18095672D01*
X23057500Y-18124243D01*
X23057500Y-18195672D01*
X23043214Y-18224243D01*
X23028928Y-18238529D01*
X23000357Y-18252814D01*
X22914643Y-18252814D01*
X22886071Y-18238529D01*
X22871786Y-18224243D01*
X23171786Y-17952814D02*
X23171786Y-18009957D01*
X23286071Y-17952814D02*
X23286071Y-18009957D01*
X23728928Y-18367100D02*
X23714643Y-18352814D01*
X23686071Y-18309957D01*
X23671786Y-18281386D01*
X23657500Y-18238529D01*
X23643214Y-18167100D01*
X23643214Y-18109957D01*
X23657500Y-18038529D01*
X23671786Y-17995672D01*
X23686071Y-17967100D01*
X23714643Y-17924243D01*
X23728928Y-17909957D01*
X23971786Y-18052814D02*
X23971786Y-18252814D01*
X23900357Y-17938529D02*
X23828928Y-18152814D01*
X24014643Y-18152814D01*
X24357500Y-18252814D02*
X24357500Y-17952814D01*
X24486071Y-18252814D02*
X24486071Y-18095672D01*
X24471786Y-18067100D01*
X24443214Y-18052814D01*
X24400357Y-18052814D01*
X24371786Y-18067100D01*
X24357500Y-18081386D01*
X24671786Y-18252814D02*
X24643214Y-18238529D01*
X24628928Y-18224243D01*
X24614643Y-18195672D01*
X24614643Y-18109957D01*
X24628928Y-18081386D01*
X24643214Y-18067100D01*
X24671786Y-18052814D01*
X24714643Y-18052814D01*
X24743214Y-18067100D01*
X24757500Y-18081386D01*
X24771786Y-18109957D01*
X24771786Y-18195672D01*
X24757500Y-18224243D01*
X24743214Y-18238529D01*
X24714643Y-18252814D01*
X24671786Y-18252814D01*
X24943214Y-18252814D02*
X24914643Y-18238529D01*
X24900357Y-18209957D01*
X24900357Y-17952814D01*
X25171786Y-18238529D02*
X25143214Y-18252814D01*
X25086071Y-18252814D01*
X25057500Y-18238529D01*
X25043214Y-18209957D01*
X25043214Y-18095672D01*
X25057500Y-18067100D01*
X25086071Y-18052814D01*
X25143214Y-18052814D01*
X25171786Y-18067100D01*
X25186071Y-18095672D01*
X25186071Y-18124243D01*
X25043214Y-18152814D01*
X25300357Y-18238529D02*
X25328928Y-18252814D01*
X25386071Y-18252814D01*
X25414643Y-18238529D01*
X25428928Y-18209957D01*
X25428928Y-18195672D01*
X25414643Y-18167100D01*
X25386071Y-18152814D01*
X25343214Y-18152814D01*
X25314643Y-18138529D01*
X25300357Y-18109957D01*
X25300357Y-18095672D01*
X25314643Y-18067100D01*
X25343214Y-18052814D01*
X25386071Y-18052814D01*
X25414643Y-18067100D01*
X25528928Y-18367100D02*
X25543214Y-18352814D01*
X25571786Y-18309957D01*
X25586071Y-18281386D01*
X25600357Y-18238529D01*
X25614643Y-18167100D01*
X25614643Y-18109957D01*
X25600357Y-18038529D01*
X25586071Y-17995672D01*
X25571786Y-17967100D01*
X25543214Y-17924243D01*
X25528928Y-17909957D01*
X26071786Y-18367100D02*
X26057500Y-18352814D01*
X26028928Y-18309957D01*
X26014643Y-18281386D01*
X26000357Y-18238529D01*
X25986071Y-18167100D01*
X25986071Y-18109957D01*
X26000357Y-18038529D01*
X26014643Y-17995672D01*
X26028928Y-17967100D01*
X26057500Y-17924243D01*
X26071786Y-17909957D01*
X26186071Y-18052814D02*
X26186071Y-18252814D01*
X26186071Y-18081386D02*
X26200357Y-18067100D01*
X26228928Y-18052814D01*
X26271786Y-18052814D01*
X26300357Y-18067100D01*
X26314643Y-18095672D01*
X26314643Y-18252814D01*
X26500357Y-18252814D02*
X26471786Y-18238529D01*
X26457500Y-18224243D01*
X26443214Y-18195672D01*
X26443214Y-18109957D01*
X26457500Y-18081386D01*
X26471786Y-18067100D01*
X26500357Y-18052814D01*
X26543214Y-18052814D01*
X26571786Y-18067100D01*
X26586071Y-18081386D01*
X26600357Y-18109957D01*
X26600357Y-18195672D01*
X26586071Y-18224243D01*
X26571786Y-18238529D01*
X26543214Y-18252814D01*
X26500357Y-18252814D01*
X26686071Y-18052814D02*
X26800357Y-18052814D01*
X26728928Y-17952814D02*
X26728928Y-18209957D01*
X26743214Y-18238529D01*
X26771786Y-18252814D01*
X26800357Y-18252814D01*
X27128928Y-18052814D02*
X27128928Y-18352814D01*
X27128928Y-18067100D02*
X27157500Y-18052814D01*
X27214643Y-18052814D01*
X27243214Y-18067100D01*
X27257500Y-18081386D01*
X27271786Y-18109957D01*
X27271786Y-18195672D01*
X27257500Y-18224243D01*
X27243214Y-18238529D01*
X27214643Y-18252814D01*
X27157500Y-18252814D01*
X27128928Y-18238529D01*
X27443214Y-18252814D02*
X27414643Y-18238529D01*
X27400357Y-18209957D01*
X27400357Y-17952814D01*
X27686071Y-18252814D02*
X27686071Y-18095672D01*
X27671786Y-18067100D01*
X27643214Y-18052814D01*
X27586071Y-18052814D01*
X27557500Y-18067100D01*
X27686071Y-18238529D02*
X27657500Y-18252814D01*
X27586071Y-18252814D01*
X27557500Y-18238529D01*
X27543214Y-18209957D01*
X27543214Y-18181386D01*
X27557500Y-18152814D01*
X27586071Y-18138529D01*
X27657500Y-18138529D01*
X27686071Y-18124243D01*
X27786071Y-18052814D02*
X27900357Y-18052814D01*
X27828928Y-17952814D02*
X27828928Y-18209957D01*
X27843214Y-18238529D01*
X27871786Y-18252814D01*
X27900357Y-18252814D01*
X28114643Y-18238529D02*
X28086071Y-18252814D01*
X28028928Y-18252814D01*
X28000357Y-18238529D01*
X27986071Y-18209957D01*
X27986071Y-18095672D01*
X28000357Y-18067100D01*
X28028928Y-18052814D01*
X28086071Y-18052814D01*
X28114643Y-18067100D01*
X28128928Y-18095672D01*
X28128928Y-18124243D01*
X27986071Y-18152814D01*
X28386071Y-18252814D02*
X28386071Y-17952814D01*
X28386071Y-18238529D02*
X28357500Y-18252814D01*
X28300357Y-18252814D01*
X28271786Y-18238529D01*
X28257500Y-18224243D01*
X28243214Y-18195672D01*
X28243214Y-18109957D01*
X28257500Y-18081386D01*
X28271786Y-18067100D01*
X28300357Y-18052814D01*
X28357500Y-18052814D01*
X28386071Y-18067100D01*
X28500357Y-18367100D02*
X28514643Y-18352814D01*
X28543214Y-18309957D01*
X28557500Y-18281386D01*
X28571786Y-18238529D01*
X28586071Y-18167100D01*
X28586071Y-18109957D01*
X28571786Y-18038529D01*
X28557500Y-17995672D01*
X28543214Y-17967100D01*
X28514643Y-17924243D01*
X28500357Y-17909957D01*
M02*
