G04 #@! TF.GenerationSoftware,KiCad,Pcbnew,5.1.5+dfsg1-2build2*
G04 #@! TF.CreationDate,2021-08-24T21:15:58+05:30*
G04 #@! TF.ProjectId,AS5600-Encoder-PCB,41533536-3030-42d4-956e-636f6465722d,rev?*
G04 #@! TF.SameCoordinates,Original*
G04 #@! TF.FileFunction,Soldermask,Top*
G04 #@! TF.FilePolarity,Negative*
%FSLAX46Y46*%
G04 Gerber Fmt 4.6, Leading zero omitted, Abs format (unit mm)*
G04 Created by KiCad (PCBNEW 5.1.5+dfsg1-2build2) date 2021-08-24 21:15:58*
%MOMM*%
%LPD*%
G04 APERTURE LIST*
%ADD10C,0.100000*%
G04 APERTURE END LIST*
D10*
G36*
X211604794Y-161000155D02*
G01*
X211711150Y-161021311D01*
X211911520Y-161104307D01*
X212091844Y-161224795D01*
X212245205Y-161378156D01*
X212365693Y-161558480D01*
X212448689Y-161758851D01*
X212491000Y-161971560D01*
X212491000Y-162188440D01*
X212448689Y-162401149D01*
X212365693Y-162601520D01*
X212245205Y-162781844D01*
X212091844Y-162935205D01*
X211911520Y-163055693D01*
X211811334Y-163097191D01*
X211711150Y-163138689D01*
X211604795Y-163159844D01*
X211498440Y-163181000D01*
X211281560Y-163181000D01*
X211175205Y-163159844D01*
X211068850Y-163138689D01*
X210968666Y-163097191D01*
X210868480Y-163055693D01*
X210688156Y-162935205D01*
X210534795Y-162781844D01*
X210414307Y-162601520D01*
X210331311Y-162401149D01*
X210289000Y-162188440D01*
X210289000Y-161971560D01*
X210331311Y-161758851D01*
X210414307Y-161558480D01*
X210534795Y-161378156D01*
X210688156Y-161224795D01*
X210868480Y-161104307D01*
X211068850Y-161021311D01*
X211175206Y-161000155D01*
X211281560Y-160979000D01*
X211498440Y-160979000D01*
X211604794Y-161000155D01*
G37*
G36*
X192494794Y-161000155D02*
G01*
X192601150Y-161021311D01*
X192801520Y-161104307D01*
X192981844Y-161224795D01*
X193135205Y-161378156D01*
X193255693Y-161558480D01*
X193338689Y-161758851D01*
X193381000Y-161971560D01*
X193381000Y-162188440D01*
X193338689Y-162401149D01*
X193255693Y-162601520D01*
X193135205Y-162781844D01*
X192981844Y-162935205D01*
X192801520Y-163055693D01*
X192701334Y-163097191D01*
X192601150Y-163138689D01*
X192494795Y-163159844D01*
X192388440Y-163181000D01*
X192171560Y-163181000D01*
X192065205Y-163159844D01*
X191958850Y-163138689D01*
X191858666Y-163097191D01*
X191758480Y-163055693D01*
X191578156Y-162935205D01*
X191424795Y-162781844D01*
X191304307Y-162601520D01*
X191221311Y-162401149D01*
X191179000Y-162188440D01*
X191179000Y-161971560D01*
X191221311Y-161758851D01*
X191304307Y-161558480D01*
X191424795Y-161378156D01*
X191578156Y-161224795D01*
X191758480Y-161104307D01*
X191958850Y-161021311D01*
X192065206Y-161000155D01*
X192171560Y-160979000D01*
X192388440Y-160979000D01*
X192494794Y-161000155D01*
G37*
G36*
X208001000Y-160211000D02*
G01*
X206399000Y-160211000D01*
X206399000Y-159459000D01*
X208001000Y-159459000D01*
X208001000Y-160211000D01*
G37*
G36*
X202601000Y-160211000D02*
G01*
X200999000Y-160211000D01*
X200999000Y-159459000D01*
X202601000Y-159459000D01*
X202601000Y-160211000D01*
G37*
G36*
X193003512Y-158073927D02*
G01*
X193152812Y-158103624D01*
X193316784Y-158171544D01*
X193464354Y-158270147D01*
X193589853Y-158395646D01*
X193688456Y-158543216D01*
X193756376Y-158707188D01*
X193791000Y-158881259D01*
X193791000Y-159058741D01*
X193756376Y-159232812D01*
X193688456Y-159396784D01*
X193589853Y-159544354D01*
X193464354Y-159669853D01*
X193316784Y-159768456D01*
X193152812Y-159836376D01*
X193003512Y-159866073D01*
X192978742Y-159871000D01*
X192801258Y-159871000D01*
X192776488Y-159866073D01*
X192627188Y-159836376D01*
X192463216Y-159768456D01*
X192315646Y-159669853D01*
X192190147Y-159544354D01*
X192091544Y-159396784D01*
X192023624Y-159232812D01*
X191989000Y-159058741D01*
X191989000Y-158881259D01*
X192023624Y-158707188D01*
X192091544Y-158543216D01*
X192190147Y-158395646D01*
X192315646Y-158270147D01*
X192463216Y-158171544D01*
X192627188Y-158103624D01*
X192776488Y-158073927D01*
X192801258Y-158069000D01*
X192978742Y-158069000D01*
X193003512Y-158073927D01*
G37*
G36*
X210773512Y-158053927D02*
G01*
X210922812Y-158083624D01*
X211086784Y-158151544D01*
X211234354Y-158250147D01*
X211359853Y-158375646D01*
X211458456Y-158523216D01*
X211526376Y-158687188D01*
X211561000Y-158861259D01*
X211561000Y-159038741D01*
X211526376Y-159212812D01*
X211458456Y-159376784D01*
X211359853Y-159524354D01*
X211234354Y-159649853D01*
X211086784Y-159748456D01*
X210922812Y-159816376D01*
X210773512Y-159846073D01*
X210748742Y-159851000D01*
X210571258Y-159851000D01*
X210546488Y-159846073D01*
X210397188Y-159816376D01*
X210233216Y-159748456D01*
X210085646Y-159649853D01*
X209960147Y-159524354D01*
X209861544Y-159376784D01*
X209793624Y-159212812D01*
X209759000Y-159038741D01*
X209759000Y-158861259D01*
X209793624Y-158687188D01*
X209861544Y-158523216D01*
X209960147Y-158375646D01*
X210085646Y-158250147D01*
X210233216Y-158151544D01*
X210397188Y-158083624D01*
X210546488Y-158053927D01*
X210571258Y-158049000D01*
X210748742Y-158049000D01*
X210773512Y-158053927D01*
G37*
G36*
X202601000Y-158941000D02*
G01*
X200999000Y-158941000D01*
X200999000Y-158189000D01*
X202601000Y-158189000D01*
X202601000Y-158941000D01*
G37*
G36*
X208001000Y-158941000D02*
G01*
X206399000Y-158941000D01*
X206399000Y-158189000D01*
X208001000Y-158189000D01*
X208001000Y-158941000D01*
G37*
G36*
X202601000Y-157671000D02*
G01*
X200999000Y-157671000D01*
X200999000Y-156919000D01*
X202601000Y-156919000D01*
X202601000Y-157671000D01*
G37*
G36*
X208001000Y-157671000D02*
G01*
X206399000Y-157671000D01*
X206399000Y-156919000D01*
X208001000Y-156919000D01*
X208001000Y-157671000D01*
G37*
G36*
X193003512Y-155533927D02*
G01*
X193152812Y-155563624D01*
X193316784Y-155631544D01*
X193464354Y-155730147D01*
X193589853Y-155855646D01*
X193688456Y-156003216D01*
X193756376Y-156167188D01*
X193791000Y-156341259D01*
X193791000Y-156518741D01*
X193756376Y-156692812D01*
X193688456Y-156856784D01*
X193589853Y-157004354D01*
X193464354Y-157129853D01*
X193316784Y-157228456D01*
X193152812Y-157296376D01*
X193003512Y-157326073D01*
X192978742Y-157331000D01*
X192801258Y-157331000D01*
X192776488Y-157326073D01*
X192627188Y-157296376D01*
X192463216Y-157228456D01*
X192315646Y-157129853D01*
X192190147Y-157004354D01*
X192091544Y-156856784D01*
X192023624Y-156692812D01*
X191989000Y-156518741D01*
X191989000Y-156341259D01*
X192023624Y-156167188D01*
X192091544Y-156003216D01*
X192190147Y-155855646D01*
X192315646Y-155730147D01*
X192463216Y-155631544D01*
X192627188Y-155563624D01*
X192776488Y-155533927D01*
X192801258Y-155529000D01*
X192978742Y-155529000D01*
X193003512Y-155533927D01*
G37*
G36*
X210773512Y-155513927D02*
G01*
X210922812Y-155543624D01*
X211086784Y-155611544D01*
X211234354Y-155710147D01*
X211359853Y-155835646D01*
X211458456Y-155983216D01*
X211526376Y-156147188D01*
X211561000Y-156321259D01*
X211561000Y-156498741D01*
X211526376Y-156672812D01*
X211458456Y-156836784D01*
X211359853Y-156984354D01*
X211234354Y-157109853D01*
X211086784Y-157208456D01*
X210922812Y-157276376D01*
X210773512Y-157306073D01*
X210748742Y-157311000D01*
X210571258Y-157311000D01*
X210546488Y-157306073D01*
X210397188Y-157276376D01*
X210233216Y-157208456D01*
X210085646Y-157109853D01*
X209960147Y-156984354D01*
X209861544Y-156836784D01*
X209793624Y-156672812D01*
X209759000Y-156498741D01*
X209759000Y-156321259D01*
X209793624Y-156147188D01*
X209861544Y-155983216D01*
X209960147Y-155835646D01*
X210085646Y-155710147D01*
X210233216Y-155611544D01*
X210397188Y-155543624D01*
X210546488Y-155513927D01*
X210571258Y-155509000D01*
X210748742Y-155509000D01*
X210773512Y-155513927D01*
G37*
G36*
X208001000Y-156401000D02*
G01*
X206399000Y-156401000D01*
X206399000Y-155649000D01*
X208001000Y-155649000D01*
X208001000Y-156401000D01*
G37*
G36*
X202601000Y-156401000D02*
G01*
X200999000Y-156401000D01*
X200999000Y-155649000D01*
X202601000Y-155649000D01*
X202601000Y-156401000D01*
G37*
G36*
X193003512Y-152993927D02*
G01*
X193152812Y-153023624D01*
X193316784Y-153091544D01*
X193464354Y-153190147D01*
X193589853Y-153315646D01*
X193688456Y-153463216D01*
X193756376Y-153627188D01*
X193791000Y-153801259D01*
X193791000Y-153978741D01*
X193756376Y-154152812D01*
X193688456Y-154316784D01*
X193589853Y-154464354D01*
X193464354Y-154589853D01*
X193316784Y-154688456D01*
X193152812Y-154756376D01*
X193003512Y-154786073D01*
X192978742Y-154791000D01*
X192801258Y-154791000D01*
X192776488Y-154786073D01*
X192627188Y-154756376D01*
X192463216Y-154688456D01*
X192315646Y-154589853D01*
X192190147Y-154464354D01*
X192091544Y-154316784D01*
X192023624Y-154152812D01*
X191989000Y-153978741D01*
X191989000Y-153801259D01*
X192023624Y-153627188D01*
X192091544Y-153463216D01*
X192190147Y-153315646D01*
X192315646Y-153190147D01*
X192463216Y-153091544D01*
X192627188Y-153023624D01*
X192776488Y-152993927D01*
X192801258Y-152989000D01*
X192978742Y-152989000D01*
X193003512Y-152993927D01*
G37*
G36*
X200505562Y-153258181D02*
G01*
X200540481Y-153268774D01*
X200572663Y-153285976D01*
X200600873Y-153309127D01*
X200624024Y-153337337D01*
X200641226Y-153369519D01*
X200651819Y-153404438D01*
X200656000Y-153446895D01*
X200656000Y-154588105D01*
X200651819Y-154630562D01*
X200641226Y-154665481D01*
X200624024Y-154697663D01*
X200600873Y-154725873D01*
X200572663Y-154749024D01*
X200540481Y-154766226D01*
X200505562Y-154776819D01*
X200463105Y-154781000D01*
X198996895Y-154781000D01*
X198954438Y-154776819D01*
X198919519Y-154766226D01*
X198887337Y-154749024D01*
X198859127Y-154725873D01*
X198835976Y-154697663D01*
X198818774Y-154665481D01*
X198808181Y-154630562D01*
X198804000Y-154588105D01*
X198804000Y-153446895D01*
X198808181Y-153404438D01*
X198818774Y-153369519D01*
X198835976Y-153337337D01*
X198859127Y-153309127D01*
X198887337Y-153285976D01*
X198919519Y-153268774D01*
X198954438Y-153258181D01*
X198996895Y-153254000D01*
X200463105Y-153254000D01*
X200505562Y-153258181D01*
G37*
G36*
X197305562Y-153258181D02*
G01*
X197340481Y-153268774D01*
X197372663Y-153285976D01*
X197400873Y-153309127D01*
X197424024Y-153337337D01*
X197441226Y-153369519D01*
X197451819Y-153404438D01*
X197456000Y-153446895D01*
X197456000Y-154588105D01*
X197451819Y-154630562D01*
X197441226Y-154665481D01*
X197424024Y-154697663D01*
X197400873Y-154725873D01*
X197372663Y-154749024D01*
X197340481Y-154766226D01*
X197305562Y-154776819D01*
X197263105Y-154781000D01*
X195796895Y-154781000D01*
X195754438Y-154776819D01*
X195719519Y-154766226D01*
X195687337Y-154749024D01*
X195659127Y-154725873D01*
X195635976Y-154697663D01*
X195618774Y-154665481D01*
X195608181Y-154630562D01*
X195604000Y-154588105D01*
X195604000Y-153446895D01*
X195608181Y-153404438D01*
X195618774Y-153369519D01*
X195635976Y-153337337D01*
X195659127Y-153309127D01*
X195687337Y-153285976D01*
X195719519Y-153268774D01*
X195754438Y-153258181D01*
X195796895Y-153254000D01*
X197263105Y-153254000D01*
X197305562Y-153258181D01*
G37*
G36*
X210773512Y-152973927D02*
G01*
X210922812Y-153003624D01*
X211086784Y-153071544D01*
X211234354Y-153170147D01*
X211359853Y-153295646D01*
X211458456Y-153443216D01*
X211526376Y-153607188D01*
X211561000Y-153781259D01*
X211561000Y-153958741D01*
X211526376Y-154132812D01*
X211458456Y-154296784D01*
X211359853Y-154444354D01*
X211234354Y-154569853D01*
X211086784Y-154668456D01*
X210922812Y-154736376D01*
X210773512Y-154766073D01*
X210748742Y-154771000D01*
X210571258Y-154771000D01*
X210546488Y-154766073D01*
X210397188Y-154736376D01*
X210233216Y-154668456D01*
X210085646Y-154569853D01*
X209960147Y-154444354D01*
X209861544Y-154296784D01*
X209793624Y-154132812D01*
X209759000Y-153958741D01*
X209759000Y-153781259D01*
X209793624Y-153607188D01*
X209861544Y-153443216D01*
X209960147Y-153295646D01*
X210085646Y-153170147D01*
X210233216Y-153071544D01*
X210397188Y-153003624D01*
X210546488Y-152973927D01*
X210571258Y-152969000D01*
X210748742Y-152969000D01*
X210773512Y-152973927D01*
G37*
G36*
X207010562Y-152768181D02*
G01*
X207045481Y-152778774D01*
X207077663Y-152795976D01*
X207105873Y-152819127D01*
X207129024Y-152847337D01*
X207146226Y-152879519D01*
X207156819Y-152914438D01*
X207161000Y-152956895D01*
X207161000Y-154423105D01*
X207156819Y-154465562D01*
X207146226Y-154500481D01*
X207129024Y-154532663D01*
X207105873Y-154560873D01*
X207077663Y-154584024D01*
X207045481Y-154601226D01*
X207010562Y-154611819D01*
X206968105Y-154616000D01*
X205826895Y-154616000D01*
X205784438Y-154611819D01*
X205749519Y-154601226D01*
X205717337Y-154584024D01*
X205689127Y-154560873D01*
X205665976Y-154532663D01*
X205648774Y-154500481D01*
X205638181Y-154465562D01*
X205634000Y-154423105D01*
X205634000Y-152956895D01*
X205638181Y-152914438D01*
X205648774Y-152879519D01*
X205665976Y-152847337D01*
X205689127Y-152819127D01*
X205717337Y-152795976D01*
X205749519Y-152778774D01*
X205784438Y-152768181D01*
X205826895Y-152764000D01*
X206968105Y-152764000D01*
X207010562Y-152768181D01*
G37*
G36*
X204035562Y-152768181D02*
G01*
X204070481Y-152778774D01*
X204102663Y-152795976D01*
X204130873Y-152819127D01*
X204154024Y-152847337D01*
X204171226Y-152879519D01*
X204181819Y-152914438D01*
X204186000Y-152956895D01*
X204186000Y-154423105D01*
X204181819Y-154465562D01*
X204171226Y-154500481D01*
X204154024Y-154532663D01*
X204130873Y-154560873D01*
X204102663Y-154584024D01*
X204070481Y-154601226D01*
X204035562Y-154611819D01*
X203993105Y-154616000D01*
X202851895Y-154616000D01*
X202809438Y-154611819D01*
X202774519Y-154601226D01*
X202742337Y-154584024D01*
X202714127Y-154560873D01*
X202690976Y-154532663D01*
X202673774Y-154500481D01*
X202663181Y-154465562D01*
X202659000Y-154423105D01*
X202659000Y-152956895D01*
X202663181Y-152914438D01*
X202673774Y-152879519D01*
X202690976Y-152847337D01*
X202714127Y-152819127D01*
X202742337Y-152795976D01*
X202774519Y-152778774D01*
X202809438Y-152768181D01*
X202851895Y-152764000D01*
X203993105Y-152764000D01*
X204035562Y-152768181D01*
G37*
G36*
X193791000Y-152251000D02*
G01*
X191989000Y-152251000D01*
X191989000Y-150449000D01*
X193791000Y-150449000D01*
X193791000Y-152251000D01*
G37*
G36*
X211561000Y-152231000D02*
G01*
X209759000Y-152231000D01*
X209759000Y-150429000D01*
X211561000Y-150429000D01*
X211561000Y-152231000D01*
G37*
G36*
X197305562Y-150283181D02*
G01*
X197340481Y-150293774D01*
X197372663Y-150310976D01*
X197400873Y-150334127D01*
X197424024Y-150362337D01*
X197441226Y-150394519D01*
X197451819Y-150429438D01*
X197456000Y-150471895D01*
X197456000Y-151613105D01*
X197451819Y-151655562D01*
X197441226Y-151690481D01*
X197424024Y-151722663D01*
X197400873Y-151750873D01*
X197372663Y-151774024D01*
X197340481Y-151791226D01*
X197305562Y-151801819D01*
X197263105Y-151806000D01*
X195796895Y-151806000D01*
X195754438Y-151801819D01*
X195719519Y-151791226D01*
X195687337Y-151774024D01*
X195659127Y-151750873D01*
X195635976Y-151722663D01*
X195618774Y-151690481D01*
X195608181Y-151655562D01*
X195604000Y-151613105D01*
X195604000Y-150471895D01*
X195608181Y-150429438D01*
X195618774Y-150394519D01*
X195635976Y-150362337D01*
X195659127Y-150334127D01*
X195687337Y-150310976D01*
X195719519Y-150293774D01*
X195754438Y-150283181D01*
X195796895Y-150279000D01*
X197263105Y-150279000D01*
X197305562Y-150283181D01*
G37*
G36*
X200505562Y-150283181D02*
G01*
X200540481Y-150293774D01*
X200572663Y-150310976D01*
X200600873Y-150334127D01*
X200624024Y-150362337D01*
X200641226Y-150394519D01*
X200651819Y-150429438D01*
X200656000Y-150471895D01*
X200656000Y-151613105D01*
X200651819Y-151655562D01*
X200641226Y-151690481D01*
X200624024Y-151722663D01*
X200600873Y-151750873D01*
X200572663Y-151774024D01*
X200540481Y-151791226D01*
X200505562Y-151801819D01*
X200463105Y-151806000D01*
X198996895Y-151806000D01*
X198954438Y-151801819D01*
X198919519Y-151791226D01*
X198887337Y-151774024D01*
X198859127Y-151750873D01*
X198835976Y-151722663D01*
X198818774Y-151690481D01*
X198808181Y-151655562D01*
X198804000Y-151613105D01*
X198804000Y-150471895D01*
X198808181Y-150429438D01*
X198818774Y-150394519D01*
X198835976Y-150362337D01*
X198859127Y-150334127D01*
X198887337Y-150310976D01*
X198919519Y-150293774D01*
X198954438Y-150283181D01*
X198996895Y-150279000D01*
X200463105Y-150279000D01*
X200505562Y-150283181D01*
G37*
G36*
X204015562Y-149938181D02*
G01*
X204050481Y-149948774D01*
X204082663Y-149965976D01*
X204110873Y-149989127D01*
X204134024Y-150017337D01*
X204151226Y-150049519D01*
X204161819Y-150084438D01*
X204166000Y-150126895D01*
X204166000Y-151593105D01*
X204161819Y-151635562D01*
X204151226Y-151670481D01*
X204134024Y-151702663D01*
X204110873Y-151730873D01*
X204082663Y-151754024D01*
X204050481Y-151771226D01*
X204015562Y-151781819D01*
X203973105Y-151786000D01*
X202831895Y-151786000D01*
X202789438Y-151781819D01*
X202754519Y-151771226D01*
X202722337Y-151754024D01*
X202694127Y-151730873D01*
X202670976Y-151702663D01*
X202653774Y-151670481D01*
X202643181Y-151635562D01*
X202639000Y-151593105D01*
X202639000Y-150126895D01*
X202643181Y-150084438D01*
X202653774Y-150049519D01*
X202670976Y-150017337D01*
X202694127Y-149989127D01*
X202722337Y-149965976D01*
X202754519Y-149948774D01*
X202789438Y-149938181D01*
X202831895Y-149934000D01*
X203973105Y-149934000D01*
X204015562Y-149938181D01*
G37*
G36*
X206990562Y-149938181D02*
G01*
X207025481Y-149948774D01*
X207057663Y-149965976D01*
X207085873Y-149989127D01*
X207109024Y-150017337D01*
X207126226Y-150049519D01*
X207136819Y-150084438D01*
X207141000Y-150126895D01*
X207141000Y-151593105D01*
X207136819Y-151635562D01*
X207126226Y-151670481D01*
X207109024Y-151702663D01*
X207085873Y-151730873D01*
X207057663Y-151754024D01*
X207025481Y-151771226D01*
X206990562Y-151781819D01*
X206948105Y-151786000D01*
X205806895Y-151786000D01*
X205764438Y-151781819D01*
X205729519Y-151771226D01*
X205697337Y-151754024D01*
X205669127Y-151730873D01*
X205645976Y-151702663D01*
X205628774Y-151670481D01*
X205618181Y-151635562D01*
X205614000Y-151593105D01*
X205614000Y-150126895D01*
X205618181Y-150084438D01*
X205628774Y-150049519D01*
X205645976Y-150017337D01*
X205669127Y-149989127D01*
X205697337Y-149965976D01*
X205729519Y-149948774D01*
X205764438Y-149938181D01*
X205806895Y-149934000D01*
X206948105Y-149934000D01*
X206990562Y-149938181D01*
G37*
G36*
X192474795Y-147280156D02*
G01*
X192581150Y-147301311D01*
X192781520Y-147384307D01*
X192961844Y-147504795D01*
X193115205Y-147658156D01*
X193235693Y-147838480D01*
X193235693Y-147838481D01*
X193314547Y-148028850D01*
X193318689Y-148038851D01*
X193361000Y-148251560D01*
X193361000Y-148468440D01*
X193318689Y-148681149D01*
X193235693Y-148881520D01*
X193115205Y-149061844D01*
X192961844Y-149215205D01*
X192781520Y-149335693D01*
X192681334Y-149377191D01*
X192581150Y-149418689D01*
X192474794Y-149439845D01*
X192368440Y-149461000D01*
X192151560Y-149461000D01*
X192045206Y-149439845D01*
X191938850Y-149418689D01*
X191838666Y-149377191D01*
X191738480Y-149335693D01*
X191558156Y-149215205D01*
X191404795Y-149061844D01*
X191284307Y-148881520D01*
X191201311Y-148681149D01*
X191159000Y-148468440D01*
X191159000Y-148251560D01*
X191201311Y-148038851D01*
X191205454Y-148028850D01*
X191284307Y-147838481D01*
X191284307Y-147838480D01*
X191404795Y-147658156D01*
X191558156Y-147504795D01*
X191738480Y-147384307D01*
X191838666Y-147342809D01*
X191938850Y-147301311D01*
X192045205Y-147280156D01*
X192151560Y-147259000D01*
X192368440Y-147259000D01*
X192474795Y-147280156D01*
G37*
G36*
X211574795Y-147270156D02*
G01*
X211681150Y-147291311D01*
X211781334Y-147332809D01*
X211881520Y-147374307D01*
X212061844Y-147494795D01*
X212215205Y-147648156D01*
X212335693Y-147828480D01*
X212418689Y-148028850D01*
X212461000Y-148241561D01*
X212461000Y-148458439D01*
X212418689Y-148671150D01*
X212377191Y-148771334D01*
X212335693Y-148871520D01*
X212215205Y-149051844D01*
X212061844Y-149205205D01*
X211881520Y-149325693D01*
X211781334Y-149367191D01*
X211681150Y-149408689D01*
X211574795Y-149429844D01*
X211468440Y-149451000D01*
X211251560Y-149451000D01*
X211145205Y-149429844D01*
X211038850Y-149408689D01*
X210838480Y-149325693D01*
X210658156Y-149205205D01*
X210504795Y-149051844D01*
X210384307Y-148871520D01*
X210342809Y-148771334D01*
X210301311Y-148671150D01*
X210259000Y-148458439D01*
X210259000Y-148241561D01*
X210301311Y-148028850D01*
X210342809Y-147928666D01*
X210384307Y-147828480D01*
X210504795Y-147648156D01*
X210658156Y-147494795D01*
X210838480Y-147374307D01*
X210938666Y-147332809D01*
X211038850Y-147291311D01*
X211145205Y-147270156D01*
X211251560Y-147249000D01*
X211468440Y-147249000D01*
X211574795Y-147270156D01*
G37*
M02*
