G04 #@! TF.GenerationSoftware,KiCad,Pcbnew,5.1.5+dfsg1-2build2*
G04 #@! TF.CreationDate,2021-08-26T01:23:47+05:30*
G04 #@! TF.ProjectId,AS5600-Encoder-PCB,41533536-3030-42d4-956e-636f6465722d,rev?*
G04 #@! TF.SameCoordinates,Original*
G04 #@! TF.FileFunction,Legend,Top*
G04 #@! TF.FilePolarity,Positive*
%FSLAX46Y46*%
G04 Gerber Fmt 4.6, Leading zero omitted, Abs format (unit mm)*
G04 Created by KiCad (PCBNEW 5.1.5+dfsg1-2build2) date 2021-08-26 01:23:47*
%MOMM*%
%LPD*%
G04 APERTURE LIST*
%ADD10C,0.150000*%
%ADD11C,0.100000*%
%ADD12C,0.210000*%
%ADD13C,0.200000*%
%ADD14C,0.187500*%
%ADD15C,0.125000*%
%ADD16C,0.120000*%
G04 APERTURE END LIST*
D10*
X204998771Y-158361028D02*
X204998771Y-157761028D01*
X205227342Y-157761028D01*
X205284485Y-157789600D01*
X205313057Y-157818171D01*
X205341628Y-157875314D01*
X205341628Y-157961028D01*
X205313057Y-158018171D01*
X205284485Y-158046742D01*
X205227342Y-158075314D01*
X204998771Y-158075314D01*
X205941628Y-158361028D02*
X205741628Y-158075314D01*
X205598771Y-158361028D02*
X205598771Y-157761028D01*
X205827342Y-157761028D01*
X205884485Y-157789600D01*
X205913057Y-157818171D01*
X205941628Y-157875314D01*
X205941628Y-157961028D01*
X205913057Y-158018171D01*
X205884485Y-158046742D01*
X205827342Y-158075314D01*
X205598771Y-158075314D01*
X206313057Y-157761028D02*
X206427342Y-157761028D01*
X206484485Y-157789600D01*
X206541628Y-157846742D01*
X206570200Y-157961028D01*
X206570200Y-158161028D01*
X206541628Y-158275314D01*
X206484485Y-158332457D01*
X206427342Y-158361028D01*
X206313057Y-158361028D01*
X206255914Y-158332457D01*
X206198771Y-158275314D01*
X206170200Y-158161028D01*
X206170200Y-157961028D01*
X206198771Y-157846742D01*
X206255914Y-157789600D01*
X206313057Y-157761028D01*
X207141628Y-157789600D02*
X207084485Y-157761028D01*
X206998771Y-157761028D01*
X206913057Y-157789600D01*
X206855914Y-157846742D01*
X206827342Y-157903885D01*
X206798771Y-158018171D01*
X206798771Y-158103885D01*
X206827342Y-158218171D01*
X206855914Y-158275314D01*
X206913057Y-158332457D01*
X206998771Y-158361028D01*
X207055914Y-158361028D01*
X207141628Y-158332457D01*
X207170200Y-158303885D01*
X207170200Y-158103885D01*
X207055914Y-158103885D01*
X205757428Y-152466600D02*
X205157428Y-152466600D01*
X205157428Y-152323742D01*
X205186000Y-152238028D01*
X205243142Y-152180885D01*
X205300285Y-152152314D01*
X205414571Y-152123742D01*
X205500285Y-152123742D01*
X205614571Y-152152314D01*
X205671714Y-152180885D01*
X205728857Y-152238028D01*
X205757428Y-152323742D01*
X205757428Y-152466600D01*
X205757428Y-151866600D02*
X205157428Y-151866600D01*
X205757428Y-151238028D02*
X205471714Y-151438028D01*
X205757428Y-151580885D02*
X205157428Y-151580885D01*
X205157428Y-151352314D01*
X205186000Y-151295171D01*
X205214571Y-151266600D01*
X205271714Y-151238028D01*
X205357428Y-151238028D01*
X205414571Y-151266600D01*
X205443142Y-151295171D01*
X205471714Y-151352314D01*
X205471714Y-151580885D01*
D11*
X198929647Y-152260285D02*
X198929647Y-152031714D01*
X198929647Y-152146000D02*
X199329647Y-152146000D01*
X199272504Y-152107904D01*
X199234409Y-152069809D01*
X199215361Y-152031714D01*
D12*
X194354377Y-162037780D02*
X194925806Y-162037780D01*
X194515092Y-163037780D02*
X194640092Y-162037780D01*
X195134139Y-163037780D02*
X195217473Y-162371114D01*
X195259139Y-162037780D02*
X195205568Y-162085400D01*
X195247235Y-162133019D01*
X195300806Y-162085400D01*
X195259139Y-162037780D01*
X195247235Y-162133019D01*
X195550806Y-162371114D02*
X195931758Y-162371114D01*
X195735330Y-162037780D02*
X195628187Y-162894923D01*
X195663901Y-162990161D01*
X195753187Y-163037780D01*
X195848425Y-163037780D01*
X196610330Y-163037780D02*
X196675806Y-162513971D01*
X196640092Y-162418733D01*
X196550806Y-162371114D01*
X196360330Y-162371114D01*
X196259139Y-162418733D01*
X196616282Y-162990161D02*
X196515092Y-163037780D01*
X196276997Y-163037780D01*
X196187711Y-162990161D01*
X196151997Y-162894923D01*
X196163901Y-162799685D01*
X196223425Y-162704447D01*
X196324616Y-162656828D01*
X196562711Y-162656828D01*
X196663901Y-162609209D01*
X197169854Y-162371114D02*
X197086520Y-163037780D01*
X197157949Y-162466352D02*
X197211520Y-162418733D01*
X197312711Y-162371114D01*
X197455568Y-162371114D01*
X197544854Y-162418733D01*
X197580568Y-162513971D01*
X197515092Y-163037780D01*
X198467473Y-163037780D02*
X197991282Y-163037780D01*
X198116282Y-162037780D01*
X199187711Y-162990161D02*
X199086520Y-163037780D01*
X198896044Y-163037780D01*
X198806758Y-162990161D01*
X198771044Y-162894923D01*
X198818663Y-162513971D01*
X198878187Y-162418733D01*
X198979377Y-162371114D01*
X199169854Y-162371114D01*
X199259139Y-162418733D01*
X199294854Y-162513971D01*
X199282949Y-162609209D01*
X198794854Y-162704447D01*
X200169854Y-162371114D02*
X200068663Y-163180638D01*
X200009139Y-163275876D01*
X199955568Y-163323495D01*
X199854377Y-163371114D01*
X199711520Y-163371114D01*
X199622235Y-163323495D01*
X200092473Y-162990161D02*
X199991282Y-163037780D01*
X199800806Y-163037780D01*
X199711520Y-162990161D01*
X199669854Y-162942542D01*
X199634139Y-162847304D01*
X199669854Y-162561590D01*
X199729377Y-162466352D01*
X199782949Y-162418733D01*
X199884139Y-162371114D01*
X200074616Y-162371114D01*
X200163901Y-162418733D01*
X200521044Y-162990161D02*
X200610330Y-163037780D01*
X200800806Y-163037780D01*
X200901997Y-162990161D01*
X200961520Y-162894923D01*
X200967473Y-162847304D01*
X200931758Y-162752066D01*
X200842473Y-162704447D01*
X200699616Y-162704447D01*
X200610330Y-162656828D01*
X200574616Y-162561590D01*
X200580568Y-162513971D01*
X200640092Y-162418733D01*
X200741282Y-162371114D01*
X200884139Y-162371114D01*
X200973425Y-162418733D01*
D13*
X203367095Y-163025885D02*
X203509952Y-163068742D01*
X203748047Y-163068742D01*
X203843285Y-163025885D01*
X203890904Y-162983028D01*
X203938523Y-162897314D01*
X203938523Y-162811600D01*
X203890904Y-162725885D01*
X203843285Y-162683028D01*
X203748047Y-162640171D01*
X203557571Y-162597314D01*
X203462333Y-162554457D01*
X203414714Y-162511600D01*
X203367095Y-162425885D01*
X203367095Y-162340171D01*
X203414714Y-162254457D01*
X203462333Y-162211600D01*
X203557571Y-162168742D01*
X203795666Y-162168742D01*
X203938523Y-162211600D01*
X204938523Y-163068742D02*
X204605190Y-162640171D01*
X204367095Y-163068742D02*
X204367095Y-162168742D01*
X204748047Y-162168742D01*
X204843285Y-162211600D01*
X204890904Y-162254457D01*
X204938523Y-162340171D01*
X204938523Y-162468742D01*
X204890904Y-162554457D01*
X204843285Y-162597314D01*
X204748047Y-162640171D01*
X204367095Y-162640171D01*
X205319476Y-162811600D02*
X205795666Y-162811600D01*
X205224238Y-163068742D02*
X205557571Y-162168742D01*
X205890904Y-163068742D01*
X206224238Y-162725885D02*
X206986142Y-162725885D01*
X207319476Y-162168742D02*
X207652809Y-163068742D01*
X207986142Y-162168742D01*
X208605190Y-162168742D02*
X208605190Y-162811600D01*
X208557571Y-162940171D01*
X208462333Y-163025885D01*
X208319476Y-163068742D01*
X208224238Y-163068742D01*
X208938523Y-162168742D02*
X209509952Y-162168742D01*
X209224238Y-163068742D02*
X209224238Y-162168742D01*
X209843285Y-163068742D02*
X209843285Y-162168742D01*
D14*
X194004228Y-148358628D02*
X194111371Y-148394342D01*
X194147085Y-148430057D01*
X194182800Y-148501485D01*
X194182800Y-148608628D01*
X194147085Y-148680057D01*
X194111371Y-148715771D01*
X194039942Y-148751485D01*
X193754228Y-148751485D01*
X193754228Y-148001485D01*
X194004228Y-148001485D01*
X194075657Y-148037200D01*
X194111371Y-148072914D01*
X194147085Y-148144342D01*
X194147085Y-148215771D01*
X194111371Y-148287200D01*
X194075657Y-148322914D01*
X194004228Y-148358628D01*
X193754228Y-148358628D01*
X194861371Y-148751485D02*
X194504228Y-148751485D01*
X194504228Y-148001485D01*
X195111371Y-148751485D02*
X195111371Y-148001485D01*
X195289942Y-148001485D01*
X195397085Y-148037200D01*
X195468514Y-148108628D01*
X195504228Y-148180057D01*
X195539942Y-148322914D01*
X195539942Y-148430057D01*
X195504228Y-148572914D01*
X195468514Y-148644342D01*
X195397085Y-148715771D01*
X195289942Y-148751485D01*
X195111371Y-148751485D01*
X196289942Y-148680057D02*
X196254228Y-148715771D01*
X196147085Y-148751485D01*
X196075657Y-148751485D01*
X195968514Y-148715771D01*
X195897085Y-148644342D01*
X195861371Y-148572914D01*
X195825657Y-148430057D01*
X195825657Y-148322914D01*
X195861371Y-148180057D01*
X195897085Y-148108628D01*
X195968514Y-148037200D01*
X196075657Y-148001485D01*
X196147085Y-148001485D01*
X196254228Y-148037200D01*
X196289942Y-148072914D01*
X197182800Y-148358628D02*
X197432800Y-148358628D01*
X197539942Y-148751485D02*
X197182800Y-148751485D01*
X197182800Y-148001485D01*
X197539942Y-148001485D01*
X197861371Y-148251485D02*
X197861371Y-148751485D01*
X197861371Y-148322914D02*
X197897085Y-148287200D01*
X197968514Y-148251485D01*
X198075657Y-148251485D01*
X198147085Y-148287200D01*
X198182800Y-148358628D01*
X198182800Y-148751485D01*
X198861371Y-148715771D02*
X198789942Y-148751485D01*
X198647085Y-148751485D01*
X198575657Y-148715771D01*
X198539942Y-148680057D01*
X198504228Y-148608628D01*
X198504228Y-148394342D01*
X198539942Y-148322914D01*
X198575657Y-148287200D01*
X198647085Y-148251485D01*
X198789942Y-148251485D01*
X198861371Y-148287200D01*
X199289942Y-148751485D02*
X199218514Y-148715771D01*
X199182800Y-148680057D01*
X199147085Y-148608628D01*
X199147085Y-148394342D01*
X199182800Y-148322914D01*
X199218514Y-148287200D01*
X199289942Y-148251485D01*
X199397085Y-148251485D01*
X199468514Y-148287200D01*
X199504228Y-148322914D01*
X199539942Y-148394342D01*
X199539942Y-148608628D01*
X199504228Y-148680057D01*
X199468514Y-148715771D01*
X199397085Y-148751485D01*
X199289942Y-148751485D01*
X200182800Y-148751485D02*
X200182800Y-148001485D01*
X200182800Y-148715771D02*
X200111371Y-148751485D01*
X199968514Y-148751485D01*
X199897085Y-148715771D01*
X199861371Y-148680057D01*
X199825657Y-148608628D01*
X199825657Y-148394342D01*
X199861371Y-148322914D01*
X199897085Y-148287200D01*
X199968514Y-148251485D01*
X200111371Y-148251485D01*
X200182800Y-148287200D01*
X200825657Y-148715771D02*
X200754228Y-148751485D01*
X200611371Y-148751485D01*
X200539942Y-148715771D01*
X200504228Y-148644342D01*
X200504228Y-148358628D01*
X200539942Y-148287200D01*
X200611371Y-148251485D01*
X200754228Y-148251485D01*
X200825657Y-148287200D01*
X200861371Y-148358628D01*
X200861371Y-148430057D01*
X200504228Y-148501485D01*
X201182800Y-148751485D02*
X201182800Y-148251485D01*
X201182800Y-148394342D02*
X201218514Y-148322914D01*
X201254228Y-148287200D01*
X201325657Y-148251485D01*
X201397085Y-148251485D01*
X202218514Y-148751485D02*
X202218514Y-148001485D01*
X202504228Y-148001485D01*
X202575657Y-148037200D01*
X202611371Y-148072914D01*
X202647085Y-148144342D01*
X202647085Y-148251485D01*
X202611371Y-148322914D01*
X202575657Y-148358628D01*
X202504228Y-148394342D01*
X202218514Y-148394342D01*
X203397085Y-148680057D02*
X203361371Y-148715771D01*
X203254228Y-148751485D01*
X203182800Y-148751485D01*
X203075657Y-148715771D01*
X203004228Y-148644342D01*
X202968514Y-148572914D01*
X202932800Y-148430057D01*
X202932800Y-148322914D01*
X202968514Y-148180057D01*
X203004228Y-148108628D01*
X203075657Y-148037200D01*
X203182800Y-148001485D01*
X203254228Y-148001485D01*
X203361371Y-148037200D01*
X203397085Y-148072914D01*
X203968514Y-148358628D02*
X204075657Y-148394342D01*
X204111371Y-148430057D01*
X204147085Y-148501485D01*
X204147085Y-148608628D01*
X204111371Y-148680057D01*
X204075657Y-148715771D01*
X204004228Y-148751485D01*
X203718514Y-148751485D01*
X203718514Y-148001485D01*
X203968514Y-148001485D01*
X204039942Y-148037200D01*
X204075657Y-148072914D01*
X204111371Y-148144342D01*
X204111371Y-148215771D01*
X204075657Y-148287200D01*
X204039942Y-148322914D01*
X203968514Y-148358628D01*
X203718514Y-148358628D01*
D15*
X207963957Y-149175695D02*
X208106814Y-149556647D01*
X208249671Y-149175695D01*
X208106814Y-148937600D02*
X208106814Y-148556647D01*
X208106814Y-148318552D02*
X208106814Y-147937600D01*
X208106814Y-147699504D02*
X208106814Y-147318552D01*
X209124671Y-148735219D02*
X209148480Y-148759028D01*
X209172290Y-148830457D01*
X209172290Y-148878076D01*
X209148480Y-148949504D01*
X209100861Y-148997123D01*
X209053242Y-149020933D01*
X208958004Y-149044742D01*
X208886576Y-149044742D01*
X208791338Y-149020933D01*
X208743719Y-148997123D01*
X208696100Y-148949504D01*
X208672290Y-148878076D01*
X208672290Y-148830457D01*
X208696100Y-148759028D01*
X208719909Y-148735219D01*
X209172290Y-148282838D02*
X209172290Y-148520933D01*
X208672290Y-148520933D01*
X209172290Y-148116171D02*
X208672290Y-148116171D01*
X209172290Y-147830457D02*
X208886576Y-148044742D01*
X208672290Y-147830457D02*
X208958004Y-148116171D01*
X206454476Y-155630414D02*
X206835428Y-155630414D01*
X207073523Y-155630414D02*
X207454476Y-155630414D01*
X207692571Y-155487557D02*
X208073523Y-155630414D01*
X207692571Y-155773271D01*
X206716380Y-156648271D02*
X206692571Y-156672080D01*
X206621142Y-156695890D01*
X206573523Y-156695890D01*
X206502095Y-156672080D01*
X206454476Y-156624461D01*
X206430666Y-156576842D01*
X206406857Y-156481604D01*
X206406857Y-156410176D01*
X206430666Y-156314938D01*
X206454476Y-156267319D01*
X206502095Y-156219700D01*
X206573523Y-156195890D01*
X206621142Y-156195890D01*
X206692571Y-156219700D01*
X206716380Y-156243509D01*
X207216380Y-156648271D02*
X207192571Y-156672080D01*
X207121142Y-156695890D01*
X207073523Y-156695890D01*
X207002095Y-156672080D01*
X206954476Y-156624461D01*
X206930666Y-156576842D01*
X206906857Y-156481604D01*
X206906857Y-156410176D01*
X206930666Y-156314938D01*
X206954476Y-156267319D01*
X207002095Y-156219700D01*
X207073523Y-156195890D01*
X207121142Y-156195890D01*
X207192571Y-156219700D01*
X207216380Y-156243509D01*
X207668761Y-156695890D02*
X207430666Y-156695890D01*
X207430666Y-156195890D01*
X207835428Y-156695890D02*
X207835428Y-156195890D01*
X208121142Y-156695890D02*
X207906857Y-156410176D01*
X208121142Y-156195890D02*
X207835428Y-156481604D01*
D16*
X207470200Y-149463000D02*
X204670200Y-149463000D01*
X204670200Y-149463000D02*
X204670200Y-147463000D01*
X204670200Y-147463000D02*
X207470200Y-147463000D01*
X207470200Y-147463000D02*
X207470200Y-149463000D01*
X208187800Y-150873000D02*
X208187800Y-153673000D01*
X208187800Y-153673000D02*
X206187800Y-153673000D01*
X206187800Y-153673000D02*
X206187800Y-150873000D01*
X206187800Y-150873000D02*
X208187800Y-150873000D01*
X207444800Y-160664400D02*
X204644800Y-160664400D01*
X204644800Y-160664400D02*
X204644800Y-158664400D01*
X204644800Y-158664400D02*
X207444800Y-158664400D01*
X207444800Y-158664400D02*
X207444800Y-160664400D01*
X201631733Y-151259000D02*
X201974267Y-151259000D01*
X201631733Y-150239000D02*
X201974267Y-150239000D01*
X201631733Y-160149000D02*
X201974267Y-160149000D01*
X201631733Y-159129000D02*
X201974267Y-159129000D01*
X191560000Y-150020000D02*
X192890000Y-150020000D01*
X191560000Y-151350000D02*
X191560000Y-150020000D01*
X191560000Y-152620000D02*
X194220000Y-152620000D01*
X194220000Y-152620000D02*
X194220000Y-160300000D01*
X191560000Y-152620000D02*
X191560000Y-160300000D01*
X191560000Y-160300000D02*
X194220000Y-160300000D01*
X195559000Y-151391536D02*
X195559000Y-152595664D01*
X197379000Y-151391536D02*
X197379000Y-152595664D01*
X195559000Y-157716136D02*
X195559000Y-158920264D01*
X197379000Y-157716136D02*
X197379000Y-158920264D01*
X209330000Y-150000000D02*
X210660000Y-150000000D01*
X209330000Y-151330000D02*
X209330000Y-150000000D01*
X209330000Y-152600000D02*
X211990000Y-152600000D01*
X211990000Y-152600000D02*
X211990000Y-160280000D01*
X209330000Y-152600000D02*
X209330000Y-160280000D01*
X209330000Y-160280000D02*
X211990000Y-160280000D01*
D13*
X198353000Y-152614000D02*
X199853000Y-152614000D01*
X200203000Y-157644000D02*
X200203000Y-152744000D01*
X203403000Y-157644000D02*
X200203000Y-157644000D01*
X203403000Y-152744000D02*
X203403000Y-157644000D01*
X200203000Y-152744000D02*
X203403000Y-152744000D01*
D10*
X409340104Y-317684066D02*
X409911533Y-317684066D01*
X410025819Y-317722161D01*
X410102009Y-317798352D01*
X410140104Y-317912638D01*
X410140104Y-317988828D01*
X410140104Y-317303114D02*
X409340104Y-317303114D01*
X409340104Y-316998352D01*
X409378200Y-316922161D01*
X409416295Y-316884066D01*
X409492485Y-316845971D01*
X409606771Y-316845971D01*
X409682961Y-316884066D01*
X409721057Y-316922161D01*
X409759152Y-316998352D01*
X409759152Y-317303114D01*
X409416295Y-316541209D02*
X409378200Y-316503114D01*
X409340104Y-316426923D01*
X409340104Y-316236447D01*
X409378200Y-316160257D01*
X409416295Y-316122161D01*
X409492485Y-316084066D01*
X409568676Y-316084066D01*
X409682961Y-316122161D01*
X410140104Y-316579304D01*
X410140104Y-316084066D01*
X205378133Y-149726704D02*
X205378133Y-150298133D01*
X205340038Y-150412419D01*
X205263847Y-150488609D01*
X205149561Y-150526704D01*
X205073371Y-150526704D01*
X205759085Y-150526704D02*
X205759085Y-149726704D01*
X206063847Y-149726704D01*
X206140038Y-149764800D01*
X206178133Y-149802895D01*
X206216228Y-149879085D01*
X206216228Y-149993371D01*
X206178133Y-150069561D01*
X206140038Y-150107657D01*
X206063847Y-150145752D01*
X205759085Y-150145752D01*
X206482895Y-149726704D02*
X206978133Y-149726704D01*
X206711466Y-150031466D01*
X206825752Y-150031466D01*
X206901942Y-150069561D01*
X206940038Y-150107657D01*
X206978133Y-150183847D01*
X206978133Y-150374323D01*
X206940038Y-150450514D01*
X206901942Y-150488609D01*
X206825752Y-150526704D01*
X206597180Y-150526704D01*
X206520990Y-150488609D01*
X206482895Y-150450514D01*
X206546533Y-154171704D02*
X206546533Y-154743133D01*
X206508438Y-154857419D01*
X206432247Y-154933609D01*
X206317961Y-154971704D01*
X206241771Y-154971704D01*
X206927485Y-154971704D02*
X206927485Y-154171704D01*
X207232247Y-154171704D01*
X207308438Y-154209800D01*
X207346533Y-154247895D01*
X207384628Y-154324085D01*
X207384628Y-154438371D01*
X207346533Y-154514561D01*
X207308438Y-154552657D01*
X207232247Y-154590752D01*
X206927485Y-154590752D01*
X207689390Y-154247895D02*
X207727485Y-154209800D01*
X207803676Y-154171704D01*
X207994152Y-154171704D01*
X208070342Y-154209800D01*
X208108438Y-154247895D01*
X208146533Y-154324085D01*
X208146533Y-154400276D01*
X208108438Y-154514561D01*
X207651295Y-154971704D01*
X208146533Y-154971704D01*
X205378133Y-160928104D02*
X205378133Y-161499533D01*
X205340038Y-161613819D01*
X205263847Y-161690009D01*
X205149561Y-161728104D01*
X205073371Y-161728104D01*
X205759085Y-161728104D02*
X205759085Y-160928104D01*
X206063847Y-160928104D01*
X206140038Y-160966200D01*
X206178133Y-161004295D01*
X206216228Y-161080485D01*
X206216228Y-161194771D01*
X206178133Y-161270961D01*
X206140038Y-161309057D01*
X206063847Y-161347152D01*
X205759085Y-161347152D01*
X206978133Y-161728104D02*
X206520990Y-161728104D01*
X206749561Y-161728104D02*
X206749561Y-160928104D01*
X206673371Y-161042390D01*
X206597180Y-161118580D01*
X206520990Y-161156676D01*
X201669666Y-152380904D02*
X201403000Y-151999952D01*
X201212523Y-152380904D02*
X201212523Y-151580904D01*
X201517285Y-151580904D01*
X201593476Y-151619000D01*
X201631571Y-151657095D01*
X201669666Y-151733285D01*
X201669666Y-151847571D01*
X201631571Y-151923761D01*
X201593476Y-151961857D01*
X201517285Y-151999952D01*
X201212523Y-151999952D01*
X201974428Y-151657095D02*
X202012523Y-151619000D01*
X202088714Y-151580904D01*
X202279190Y-151580904D01*
X202355380Y-151619000D01*
X202393476Y-151657095D01*
X202431571Y-151733285D01*
X202431571Y-151809476D01*
X202393476Y-151923761D01*
X201936333Y-152380904D01*
X202431571Y-152380904D01*
X201695066Y-161245504D02*
X201428400Y-160864552D01*
X201237923Y-161245504D02*
X201237923Y-160445504D01*
X201542685Y-160445504D01*
X201618876Y-160483600D01*
X201656971Y-160521695D01*
X201695066Y-160597885D01*
X201695066Y-160712171D01*
X201656971Y-160788361D01*
X201618876Y-160826457D01*
X201542685Y-160864552D01*
X201237923Y-160864552D01*
X202456971Y-161245504D02*
X201999828Y-161245504D01*
X202228400Y-161245504D02*
X202228400Y-160445504D01*
X202152209Y-160559790D01*
X202076019Y-160635980D01*
X201999828Y-160674076D01*
X193916333Y-160826504D02*
X193916333Y-161397933D01*
X193878238Y-161512219D01*
X193802047Y-161588409D01*
X193687761Y-161626504D01*
X193611571Y-161626504D01*
X194716333Y-161626504D02*
X194259190Y-161626504D01*
X194487761Y-161626504D02*
X194487761Y-160826504D01*
X194411571Y-160940790D01*
X194335380Y-161016980D01*
X194259190Y-161055076D01*
X196310266Y-155378114D02*
X196272171Y-155416209D01*
X196157885Y-155454304D01*
X196081695Y-155454304D01*
X195967409Y-155416209D01*
X195891219Y-155340019D01*
X195853123Y-155263828D01*
X195815028Y-155111447D01*
X195815028Y-154997161D01*
X195853123Y-154844780D01*
X195891219Y-154768590D01*
X195967409Y-154692400D01*
X196081695Y-154654304D01*
X196157885Y-154654304D01*
X196272171Y-154692400D01*
X196310266Y-154730495D01*
X196615028Y-154730495D02*
X196653123Y-154692400D01*
X196729314Y-154654304D01*
X196919790Y-154654304D01*
X196995980Y-154692400D01*
X197034076Y-154730495D01*
X197072171Y-154806685D01*
X197072171Y-154882876D01*
X197034076Y-154997161D01*
X196576933Y-155454304D01*
X197072171Y-155454304D01*
X196310266Y-161524914D02*
X196272171Y-161563009D01*
X196157885Y-161601104D01*
X196081695Y-161601104D01*
X195967409Y-161563009D01*
X195891219Y-161486819D01*
X195853123Y-161410628D01*
X195815028Y-161258247D01*
X195815028Y-161143961D01*
X195853123Y-160991580D01*
X195891219Y-160915390D01*
X195967409Y-160839200D01*
X196081695Y-160801104D01*
X196157885Y-160801104D01*
X196272171Y-160839200D01*
X196310266Y-160877295D01*
X197072171Y-161601104D02*
X196615028Y-161601104D01*
X196843600Y-161601104D02*
X196843600Y-160801104D01*
X196767409Y-160915390D01*
X196691219Y-160991580D01*
X196615028Y-161029676D01*
X209029333Y-160877304D02*
X209029333Y-161448733D01*
X208991238Y-161563019D01*
X208915047Y-161639209D01*
X208800761Y-161677304D01*
X208724571Y-161677304D01*
X209372190Y-160953495D02*
X209410285Y-160915400D01*
X209486476Y-160877304D01*
X209676952Y-160877304D01*
X209753142Y-160915400D01*
X209791238Y-160953495D01*
X209829333Y-161029685D01*
X209829333Y-161105876D01*
X209791238Y-161220161D01*
X209334095Y-161677304D01*
X209829333Y-161677304D01*
X201072847Y-158730904D02*
X201072847Y-157930904D01*
X201910942Y-158654714D02*
X201872847Y-158692809D01*
X201758561Y-158730904D01*
X201682371Y-158730904D01*
X201568085Y-158692809D01*
X201491895Y-158616619D01*
X201453800Y-158540428D01*
X201415704Y-158388047D01*
X201415704Y-158273761D01*
X201453800Y-158121380D01*
X201491895Y-158045190D01*
X201568085Y-157969000D01*
X201682371Y-157930904D01*
X201758561Y-157930904D01*
X201872847Y-157969000D01*
X201910942Y-158007095D01*
X202672847Y-158730904D02*
X202215704Y-158730904D01*
X202444276Y-158730904D02*
X202444276Y-157930904D01*
X202368085Y-158045190D01*
X202291895Y-158121380D01*
X202215704Y-158159476D01*
M02*
