G04 #@! TF.GenerationSoftware,KiCad,Pcbnew,5.1.5+dfsg1-2build2*
G04 #@! TF.CreationDate,2021-08-26T01:23:47+05:30*
G04 #@! TF.ProjectId,AS5600-Encoder-PCB,41533536-3030-42d4-956e-636f6465722d,rev?*
G04 #@! TF.SameCoordinates,Original*
G04 #@! TF.FileFunction,Soldermask,Bot*
G04 #@! TF.FilePolarity,Negative*
%FSLAX46Y46*%
G04 Gerber Fmt 4.6, Leading zero omitted, Abs format (unit mm)*
G04 Created by KiCad (PCBNEW 5.1.5+dfsg1-2build2) date 2021-08-26 01:23:47*
%MOMM*%
%LPD*%
G04 APERTURE LIST*
%ADD10C,0.100000*%
G04 APERTURE END LIST*
D10*
G36*
X192324749Y-160846916D02*
G01*
X192435934Y-160869032D01*
X192645403Y-160955797D01*
X192833920Y-161081760D01*
X192994240Y-161242080D01*
X193120203Y-161430597D01*
X193206968Y-161640066D01*
X193251200Y-161862436D01*
X193251200Y-162089164D01*
X193206968Y-162311534D01*
X193120203Y-162521003D01*
X192994240Y-162709520D01*
X192833920Y-162869840D01*
X192645403Y-162995803D01*
X192435934Y-163082568D01*
X192324749Y-163104684D01*
X192213565Y-163126800D01*
X191986835Y-163126800D01*
X191875651Y-163104684D01*
X191764466Y-163082568D01*
X191554997Y-162995803D01*
X191366480Y-162869840D01*
X191206160Y-162709520D01*
X191080197Y-162521003D01*
X190993432Y-162311534D01*
X190949200Y-162089164D01*
X190949200Y-161862436D01*
X190993432Y-161640066D01*
X191080197Y-161430597D01*
X191206160Y-161242080D01*
X191366480Y-161081760D01*
X191554997Y-160955797D01*
X191764466Y-160869032D01*
X191875651Y-160846916D01*
X191986835Y-160824800D01*
X192213565Y-160824800D01*
X192324749Y-160846916D01*
G37*
G36*
X211730349Y-160846916D02*
G01*
X211841534Y-160869032D01*
X212051003Y-160955797D01*
X212239520Y-161081760D01*
X212399840Y-161242080D01*
X212525803Y-161430597D01*
X212612568Y-161640066D01*
X212656800Y-161862436D01*
X212656800Y-162089164D01*
X212612568Y-162311534D01*
X212525803Y-162521003D01*
X212399840Y-162709520D01*
X212239520Y-162869840D01*
X212051003Y-162995803D01*
X211841534Y-163082568D01*
X211730349Y-163104684D01*
X211619165Y-163126800D01*
X211392435Y-163126800D01*
X211281251Y-163104684D01*
X211170066Y-163082568D01*
X210960597Y-162995803D01*
X210772080Y-162869840D01*
X210611760Y-162709520D01*
X210485797Y-162521003D01*
X210399032Y-162311534D01*
X210354800Y-162089164D01*
X210354800Y-161862436D01*
X210399032Y-161640066D01*
X210485797Y-161430597D01*
X210611760Y-161242080D01*
X210772080Y-161081760D01*
X210960597Y-160955797D01*
X211170066Y-160869032D01*
X211281251Y-160846916D01*
X211392435Y-160824800D01*
X211619165Y-160824800D01*
X211730349Y-160846916D01*
G37*
G36*
X193003512Y-158073927D02*
G01*
X193152812Y-158103624D01*
X193316784Y-158171544D01*
X193464354Y-158270147D01*
X193589853Y-158395646D01*
X193688456Y-158543216D01*
X193756376Y-158707188D01*
X193791000Y-158881259D01*
X193791000Y-159058741D01*
X193756376Y-159232812D01*
X193688456Y-159396784D01*
X193589853Y-159544354D01*
X193464354Y-159669853D01*
X193316784Y-159768456D01*
X193152812Y-159836376D01*
X193003512Y-159866073D01*
X192978742Y-159871000D01*
X192801258Y-159871000D01*
X192776488Y-159866073D01*
X192627188Y-159836376D01*
X192463216Y-159768456D01*
X192315646Y-159669853D01*
X192190147Y-159544354D01*
X192091544Y-159396784D01*
X192023624Y-159232812D01*
X191989000Y-159058741D01*
X191989000Y-158881259D01*
X192023624Y-158707188D01*
X192091544Y-158543216D01*
X192190147Y-158395646D01*
X192315646Y-158270147D01*
X192463216Y-158171544D01*
X192627188Y-158103624D01*
X192776488Y-158073927D01*
X192801258Y-158069000D01*
X192978742Y-158069000D01*
X193003512Y-158073927D01*
G37*
G36*
X210773512Y-158053927D02*
G01*
X210922812Y-158083624D01*
X211086784Y-158151544D01*
X211234354Y-158250147D01*
X211359853Y-158375646D01*
X211458456Y-158523216D01*
X211526376Y-158687188D01*
X211561000Y-158861259D01*
X211561000Y-159038741D01*
X211526376Y-159212812D01*
X211458456Y-159376784D01*
X211359853Y-159524354D01*
X211234354Y-159649853D01*
X211086784Y-159748456D01*
X210922812Y-159816376D01*
X210773512Y-159846073D01*
X210748742Y-159851000D01*
X210571258Y-159851000D01*
X210546488Y-159846073D01*
X210397188Y-159816376D01*
X210233216Y-159748456D01*
X210085646Y-159649853D01*
X209960147Y-159524354D01*
X209861544Y-159376784D01*
X209793624Y-159212812D01*
X209759000Y-159038741D01*
X209759000Y-158861259D01*
X209793624Y-158687188D01*
X209861544Y-158523216D01*
X209960147Y-158375646D01*
X210085646Y-158250147D01*
X210233216Y-158151544D01*
X210397188Y-158083624D01*
X210546488Y-158053927D01*
X210571258Y-158049000D01*
X210748742Y-158049000D01*
X210773512Y-158053927D01*
G37*
G36*
X193003512Y-155533927D02*
G01*
X193152812Y-155563624D01*
X193316784Y-155631544D01*
X193464354Y-155730147D01*
X193589853Y-155855646D01*
X193688456Y-156003216D01*
X193756376Y-156167188D01*
X193791000Y-156341259D01*
X193791000Y-156518741D01*
X193756376Y-156692812D01*
X193688456Y-156856784D01*
X193589853Y-157004354D01*
X193464354Y-157129853D01*
X193316784Y-157228456D01*
X193152812Y-157296376D01*
X193003512Y-157326073D01*
X192978742Y-157331000D01*
X192801258Y-157331000D01*
X192776488Y-157326073D01*
X192627188Y-157296376D01*
X192463216Y-157228456D01*
X192315646Y-157129853D01*
X192190147Y-157004354D01*
X192091544Y-156856784D01*
X192023624Y-156692812D01*
X191989000Y-156518741D01*
X191989000Y-156341259D01*
X192023624Y-156167188D01*
X192091544Y-156003216D01*
X192190147Y-155855646D01*
X192315646Y-155730147D01*
X192463216Y-155631544D01*
X192627188Y-155563624D01*
X192776488Y-155533927D01*
X192801258Y-155529000D01*
X192978742Y-155529000D01*
X193003512Y-155533927D01*
G37*
G36*
X210773512Y-155513927D02*
G01*
X210922812Y-155543624D01*
X211086784Y-155611544D01*
X211234354Y-155710147D01*
X211359853Y-155835646D01*
X211458456Y-155983216D01*
X211526376Y-156147188D01*
X211561000Y-156321259D01*
X211561000Y-156498741D01*
X211526376Y-156672812D01*
X211458456Y-156836784D01*
X211359853Y-156984354D01*
X211234354Y-157109853D01*
X211086784Y-157208456D01*
X210922812Y-157276376D01*
X210773512Y-157306073D01*
X210748742Y-157311000D01*
X210571258Y-157311000D01*
X210546488Y-157306073D01*
X210397188Y-157276376D01*
X210233216Y-157208456D01*
X210085646Y-157109853D01*
X209960147Y-156984354D01*
X209861544Y-156836784D01*
X209793624Y-156672812D01*
X209759000Y-156498741D01*
X209759000Y-156321259D01*
X209793624Y-156147188D01*
X209861544Y-155983216D01*
X209960147Y-155835646D01*
X210085646Y-155710147D01*
X210233216Y-155611544D01*
X210397188Y-155543624D01*
X210546488Y-155513927D01*
X210571258Y-155509000D01*
X210748742Y-155509000D01*
X210773512Y-155513927D01*
G37*
G36*
X193003512Y-152993927D02*
G01*
X193152812Y-153023624D01*
X193316784Y-153091544D01*
X193464354Y-153190147D01*
X193589853Y-153315646D01*
X193688456Y-153463216D01*
X193756376Y-153627188D01*
X193791000Y-153801259D01*
X193791000Y-153978741D01*
X193756376Y-154152812D01*
X193688456Y-154316784D01*
X193589853Y-154464354D01*
X193464354Y-154589853D01*
X193316784Y-154688456D01*
X193152812Y-154756376D01*
X193003512Y-154786073D01*
X192978742Y-154791000D01*
X192801258Y-154791000D01*
X192776488Y-154786073D01*
X192627188Y-154756376D01*
X192463216Y-154688456D01*
X192315646Y-154589853D01*
X192190147Y-154464354D01*
X192091544Y-154316784D01*
X192023624Y-154152812D01*
X191989000Y-153978741D01*
X191989000Y-153801259D01*
X192023624Y-153627188D01*
X192091544Y-153463216D01*
X192190147Y-153315646D01*
X192315646Y-153190147D01*
X192463216Y-153091544D01*
X192627188Y-153023624D01*
X192776488Y-152993927D01*
X192801258Y-152989000D01*
X192978742Y-152989000D01*
X193003512Y-152993927D01*
G37*
G36*
X210773512Y-152973927D02*
G01*
X210922812Y-153003624D01*
X211086784Y-153071544D01*
X211234354Y-153170147D01*
X211359853Y-153295646D01*
X211458456Y-153443216D01*
X211526376Y-153607188D01*
X211561000Y-153781259D01*
X211561000Y-153958741D01*
X211526376Y-154132812D01*
X211458456Y-154296784D01*
X211359853Y-154444354D01*
X211234354Y-154569853D01*
X211086784Y-154668456D01*
X210922812Y-154736376D01*
X210773512Y-154766073D01*
X210748742Y-154771000D01*
X210571258Y-154771000D01*
X210546488Y-154766073D01*
X210397188Y-154736376D01*
X210233216Y-154668456D01*
X210085646Y-154569853D01*
X209960147Y-154444354D01*
X209861544Y-154296784D01*
X209793624Y-154132812D01*
X209759000Y-153958741D01*
X209759000Y-153781259D01*
X209793624Y-153607188D01*
X209861544Y-153443216D01*
X209960147Y-153295646D01*
X210085646Y-153170147D01*
X210233216Y-153071544D01*
X210397188Y-153003624D01*
X210546488Y-152973927D01*
X210571258Y-152969000D01*
X210748742Y-152969000D01*
X210773512Y-152973927D01*
G37*
G36*
X193791000Y-152251000D02*
G01*
X191989000Y-152251000D01*
X191989000Y-150449000D01*
X193791000Y-150449000D01*
X193791000Y-152251000D01*
G37*
G36*
X211561000Y-152231000D02*
G01*
X209759000Y-152231000D01*
X209759000Y-150429000D01*
X211561000Y-150429000D01*
X211561000Y-152231000D01*
G37*
G36*
X211730349Y-147283316D02*
G01*
X211841534Y-147305432D01*
X212051003Y-147392197D01*
X212239520Y-147518160D01*
X212399840Y-147678480D01*
X212525803Y-147866997D01*
X212612568Y-148076466D01*
X212656800Y-148298836D01*
X212656800Y-148525564D01*
X212612568Y-148747934D01*
X212525803Y-148957403D01*
X212399840Y-149145920D01*
X212239520Y-149306240D01*
X212051003Y-149432203D01*
X211841534Y-149518968D01*
X211730349Y-149541084D01*
X211619165Y-149563200D01*
X211392435Y-149563200D01*
X211281251Y-149541084D01*
X211170066Y-149518968D01*
X210960597Y-149432203D01*
X210772080Y-149306240D01*
X210611760Y-149145920D01*
X210485797Y-148957403D01*
X210399032Y-148747934D01*
X210354800Y-148525564D01*
X210354800Y-148298836D01*
X210399032Y-148076466D01*
X210485797Y-147866997D01*
X210611760Y-147678480D01*
X210772080Y-147518160D01*
X210960597Y-147392197D01*
X211170066Y-147305432D01*
X211281251Y-147283316D01*
X211392435Y-147261200D01*
X211619165Y-147261200D01*
X211730349Y-147283316D01*
G37*
G36*
X192324749Y-147283316D02*
G01*
X192435934Y-147305432D01*
X192645403Y-147392197D01*
X192833920Y-147518160D01*
X192994240Y-147678480D01*
X193120203Y-147866997D01*
X193206968Y-148076466D01*
X193251200Y-148298836D01*
X193251200Y-148525564D01*
X193206968Y-148747934D01*
X193120203Y-148957403D01*
X192994240Y-149145920D01*
X192833920Y-149306240D01*
X192645403Y-149432203D01*
X192435934Y-149518968D01*
X192324749Y-149541084D01*
X192213565Y-149563200D01*
X191986835Y-149563200D01*
X191875651Y-149541084D01*
X191764466Y-149518968D01*
X191554997Y-149432203D01*
X191366480Y-149306240D01*
X191206160Y-149145920D01*
X191080197Y-148957403D01*
X190993432Y-148747934D01*
X190949200Y-148525564D01*
X190949200Y-148298836D01*
X190993432Y-148076466D01*
X191080197Y-147866997D01*
X191206160Y-147678480D01*
X191366480Y-147518160D01*
X191554997Y-147392197D01*
X191764466Y-147305432D01*
X191875651Y-147283316D01*
X191986835Y-147261200D01*
X192213565Y-147261200D01*
X192324749Y-147283316D01*
G37*
M02*
