G04 #@! TF.GenerationSoftware,KiCad,Pcbnew,5.1.5+dfsg1-2build2*
G04 #@! TF.CreationDate,2021-08-24T21:55:17+05:30*
G04 #@! TF.ProjectId,AS5600-Encoder-PCB,41533536-3030-42d4-956e-636f6465722d,rev?*
G04 #@! TF.SameCoordinates,Original*
G04 #@! TF.FileFunction,Copper,L1,Top*
G04 #@! TF.FilePolarity,Positive*
%FSLAX46Y46*%
G04 Gerber Fmt 4.6, Leading zero omitted, Abs format (unit mm)*
G04 Created by KiCad (PCBNEW 5.1.5+dfsg1-2build2) date 2021-08-24 21:55:17*
%MOMM*%
%LPD*%
G04 APERTURE LIST*
%ADD10C,0.100000*%
%ADD11O,1.700000X1.700000*%
%ADD12R,1.700000X1.700000*%
%ADD13R,1.500000X0.650000*%
%ADD14C,0.800000*%
%ADD15C,0.400000*%
%ADD16C,0.300000*%
%ADD17C,0.254000*%
G04 APERTURE END LIST*
G04 #@! TA.AperFunction,SMDPad,CuDef*
D10*
G36*
X206075779Y-150386144D02*
G01*
X206098834Y-150389563D01*
X206121443Y-150395227D01*
X206143387Y-150403079D01*
X206164457Y-150413044D01*
X206184448Y-150425026D01*
X206203168Y-150438910D01*
X206220438Y-150454562D01*
X206236090Y-150471832D01*
X206249974Y-150490552D01*
X206261956Y-150510543D01*
X206271921Y-150531613D01*
X206279773Y-150553557D01*
X206285437Y-150576166D01*
X206288856Y-150599221D01*
X206290000Y-150622500D01*
X206290000Y-151097500D01*
X206288856Y-151120779D01*
X206285437Y-151143834D01*
X206279773Y-151166443D01*
X206271921Y-151188387D01*
X206261956Y-151209457D01*
X206249974Y-151229448D01*
X206236090Y-151248168D01*
X206220438Y-151265438D01*
X206203168Y-151281090D01*
X206184448Y-151294974D01*
X206164457Y-151306956D01*
X206143387Y-151316921D01*
X206121443Y-151324773D01*
X206098834Y-151330437D01*
X206075779Y-151333856D01*
X206052500Y-151335000D01*
X205477500Y-151335000D01*
X205454221Y-151333856D01*
X205431166Y-151330437D01*
X205408557Y-151324773D01*
X205386613Y-151316921D01*
X205365543Y-151306956D01*
X205345552Y-151294974D01*
X205326832Y-151281090D01*
X205309562Y-151265438D01*
X205293910Y-151248168D01*
X205280026Y-151229448D01*
X205268044Y-151209457D01*
X205258079Y-151188387D01*
X205250227Y-151166443D01*
X205244563Y-151143834D01*
X205241144Y-151120779D01*
X205240000Y-151097500D01*
X205240000Y-150622500D01*
X205241144Y-150599221D01*
X205244563Y-150576166D01*
X205250227Y-150553557D01*
X205258079Y-150531613D01*
X205268044Y-150510543D01*
X205280026Y-150490552D01*
X205293910Y-150471832D01*
X205309562Y-150454562D01*
X205326832Y-150438910D01*
X205345552Y-150425026D01*
X205365543Y-150413044D01*
X205386613Y-150403079D01*
X205408557Y-150395227D01*
X205431166Y-150389563D01*
X205454221Y-150386144D01*
X205477500Y-150385000D01*
X206052500Y-150385000D01*
X206075779Y-150386144D01*
G37*
G04 #@! TD.AperFunction*
G04 #@! TA.AperFunction,SMDPad,CuDef*
G36*
X204325779Y-150386144D02*
G01*
X204348834Y-150389563D01*
X204371443Y-150395227D01*
X204393387Y-150403079D01*
X204414457Y-150413044D01*
X204434448Y-150425026D01*
X204453168Y-150438910D01*
X204470438Y-150454562D01*
X204486090Y-150471832D01*
X204499974Y-150490552D01*
X204511956Y-150510543D01*
X204521921Y-150531613D01*
X204529773Y-150553557D01*
X204535437Y-150576166D01*
X204538856Y-150599221D01*
X204540000Y-150622500D01*
X204540000Y-151097500D01*
X204538856Y-151120779D01*
X204535437Y-151143834D01*
X204529773Y-151166443D01*
X204521921Y-151188387D01*
X204511956Y-151209457D01*
X204499974Y-151229448D01*
X204486090Y-151248168D01*
X204470438Y-151265438D01*
X204453168Y-151281090D01*
X204434448Y-151294974D01*
X204414457Y-151306956D01*
X204393387Y-151316921D01*
X204371443Y-151324773D01*
X204348834Y-151330437D01*
X204325779Y-151333856D01*
X204302500Y-151335000D01*
X203727500Y-151335000D01*
X203704221Y-151333856D01*
X203681166Y-151330437D01*
X203658557Y-151324773D01*
X203636613Y-151316921D01*
X203615543Y-151306956D01*
X203595552Y-151294974D01*
X203576832Y-151281090D01*
X203559562Y-151265438D01*
X203543910Y-151248168D01*
X203530026Y-151229448D01*
X203518044Y-151209457D01*
X203508079Y-151188387D01*
X203500227Y-151166443D01*
X203494563Y-151143834D01*
X203491144Y-151120779D01*
X203490000Y-151097500D01*
X203490000Y-150622500D01*
X203491144Y-150599221D01*
X203494563Y-150576166D01*
X203500227Y-150553557D01*
X203508079Y-150531613D01*
X203518044Y-150510543D01*
X203530026Y-150490552D01*
X203543910Y-150471832D01*
X203559562Y-150454562D01*
X203576832Y-150438910D01*
X203595552Y-150425026D01*
X203615543Y-150413044D01*
X203636613Y-150403079D01*
X203658557Y-150395227D01*
X203681166Y-150389563D01*
X203704221Y-150386144D01*
X203727500Y-150385000D01*
X204302500Y-150385000D01*
X204325779Y-150386144D01*
G37*
G04 #@! TD.AperFunction*
G04 #@! TA.AperFunction,SMDPad,CuDef*
G36*
X206095779Y-153216144D02*
G01*
X206118834Y-153219563D01*
X206141443Y-153225227D01*
X206163387Y-153233079D01*
X206184457Y-153243044D01*
X206204448Y-153255026D01*
X206223168Y-153268910D01*
X206240438Y-153284562D01*
X206256090Y-153301832D01*
X206269974Y-153320552D01*
X206281956Y-153340543D01*
X206291921Y-153361613D01*
X206299773Y-153383557D01*
X206305437Y-153406166D01*
X206308856Y-153429221D01*
X206310000Y-153452500D01*
X206310000Y-153927500D01*
X206308856Y-153950779D01*
X206305437Y-153973834D01*
X206299773Y-153996443D01*
X206291921Y-154018387D01*
X206281956Y-154039457D01*
X206269974Y-154059448D01*
X206256090Y-154078168D01*
X206240438Y-154095438D01*
X206223168Y-154111090D01*
X206204448Y-154124974D01*
X206184457Y-154136956D01*
X206163387Y-154146921D01*
X206141443Y-154154773D01*
X206118834Y-154160437D01*
X206095779Y-154163856D01*
X206072500Y-154165000D01*
X205497500Y-154165000D01*
X205474221Y-154163856D01*
X205451166Y-154160437D01*
X205428557Y-154154773D01*
X205406613Y-154146921D01*
X205385543Y-154136956D01*
X205365552Y-154124974D01*
X205346832Y-154111090D01*
X205329562Y-154095438D01*
X205313910Y-154078168D01*
X205300026Y-154059448D01*
X205288044Y-154039457D01*
X205278079Y-154018387D01*
X205270227Y-153996443D01*
X205264563Y-153973834D01*
X205261144Y-153950779D01*
X205260000Y-153927500D01*
X205260000Y-153452500D01*
X205261144Y-153429221D01*
X205264563Y-153406166D01*
X205270227Y-153383557D01*
X205278079Y-153361613D01*
X205288044Y-153340543D01*
X205300026Y-153320552D01*
X205313910Y-153301832D01*
X205329562Y-153284562D01*
X205346832Y-153268910D01*
X205365552Y-153255026D01*
X205385543Y-153243044D01*
X205406613Y-153233079D01*
X205428557Y-153225227D01*
X205451166Y-153219563D01*
X205474221Y-153216144D01*
X205497500Y-153215000D01*
X206072500Y-153215000D01*
X206095779Y-153216144D01*
G37*
G04 #@! TD.AperFunction*
G04 #@! TA.AperFunction,SMDPad,CuDef*
G36*
X204345779Y-153216144D02*
G01*
X204368834Y-153219563D01*
X204391443Y-153225227D01*
X204413387Y-153233079D01*
X204434457Y-153243044D01*
X204454448Y-153255026D01*
X204473168Y-153268910D01*
X204490438Y-153284562D01*
X204506090Y-153301832D01*
X204519974Y-153320552D01*
X204531956Y-153340543D01*
X204541921Y-153361613D01*
X204549773Y-153383557D01*
X204555437Y-153406166D01*
X204558856Y-153429221D01*
X204560000Y-153452500D01*
X204560000Y-153927500D01*
X204558856Y-153950779D01*
X204555437Y-153973834D01*
X204549773Y-153996443D01*
X204541921Y-154018387D01*
X204531956Y-154039457D01*
X204519974Y-154059448D01*
X204506090Y-154078168D01*
X204490438Y-154095438D01*
X204473168Y-154111090D01*
X204454448Y-154124974D01*
X204434457Y-154136956D01*
X204413387Y-154146921D01*
X204391443Y-154154773D01*
X204368834Y-154160437D01*
X204345779Y-154163856D01*
X204322500Y-154165000D01*
X203747500Y-154165000D01*
X203724221Y-154163856D01*
X203701166Y-154160437D01*
X203678557Y-154154773D01*
X203656613Y-154146921D01*
X203635543Y-154136956D01*
X203615552Y-154124974D01*
X203596832Y-154111090D01*
X203579562Y-154095438D01*
X203563910Y-154078168D01*
X203550026Y-154059448D01*
X203538044Y-154039457D01*
X203528079Y-154018387D01*
X203520227Y-153996443D01*
X203514563Y-153973834D01*
X203511144Y-153950779D01*
X203510000Y-153927500D01*
X203510000Y-153452500D01*
X203511144Y-153429221D01*
X203514563Y-153406166D01*
X203520227Y-153383557D01*
X203528079Y-153361613D01*
X203538044Y-153340543D01*
X203550026Y-153320552D01*
X203563910Y-153301832D01*
X203579562Y-153284562D01*
X203596832Y-153268910D01*
X203615552Y-153255026D01*
X203635543Y-153243044D01*
X203656613Y-153233079D01*
X203678557Y-153225227D01*
X203701166Y-153219563D01*
X203724221Y-153216144D01*
X203747500Y-153215000D01*
X204322500Y-153215000D01*
X204345779Y-153216144D01*
G37*
G04 #@! TD.AperFunction*
D11*
X192890000Y-158970000D03*
X192890000Y-156430000D03*
X192890000Y-153890000D03*
D12*
X192890000Y-151350000D03*
G04 #@! TA.AperFunction,SMDPad,CuDef*
D10*
G36*
X197179504Y-153306204D02*
G01*
X197203773Y-153309804D01*
X197227571Y-153315765D01*
X197250671Y-153324030D01*
X197272849Y-153334520D01*
X197293893Y-153347133D01*
X197313598Y-153361747D01*
X197331777Y-153378223D01*
X197348253Y-153396402D01*
X197362867Y-153416107D01*
X197375480Y-153437151D01*
X197385970Y-153459329D01*
X197394235Y-153482429D01*
X197400196Y-153506227D01*
X197403796Y-153530496D01*
X197405000Y-153555000D01*
X197405000Y-154480000D01*
X197403796Y-154504504D01*
X197400196Y-154528773D01*
X197394235Y-154552571D01*
X197385970Y-154575671D01*
X197375480Y-154597849D01*
X197362867Y-154618893D01*
X197348253Y-154638598D01*
X197331777Y-154656777D01*
X197313598Y-154673253D01*
X197293893Y-154687867D01*
X197272849Y-154700480D01*
X197250671Y-154710970D01*
X197227571Y-154719235D01*
X197203773Y-154725196D01*
X197179504Y-154728796D01*
X197155000Y-154730000D01*
X195905000Y-154730000D01*
X195880496Y-154728796D01*
X195856227Y-154725196D01*
X195832429Y-154719235D01*
X195809329Y-154710970D01*
X195787151Y-154700480D01*
X195766107Y-154687867D01*
X195746402Y-154673253D01*
X195728223Y-154656777D01*
X195711747Y-154638598D01*
X195697133Y-154618893D01*
X195684520Y-154597849D01*
X195674030Y-154575671D01*
X195665765Y-154552571D01*
X195659804Y-154528773D01*
X195656204Y-154504504D01*
X195655000Y-154480000D01*
X195655000Y-153555000D01*
X195656204Y-153530496D01*
X195659804Y-153506227D01*
X195665765Y-153482429D01*
X195674030Y-153459329D01*
X195684520Y-153437151D01*
X195697133Y-153416107D01*
X195711747Y-153396402D01*
X195728223Y-153378223D01*
X195746402Y-153361747D01*
X195766107Y-153347133D01*
X195787151Y-153334520D01*
X195809329Y-153324030D01*
X195832429Y-153315765D01*
X195856227Y-153309804D01*
X195880496Y-153306204D01*
X195905000Y-153305000D01*
X197155000Y-153305000D01*
X197179504Y-153306204D01*
G37*
G04 #@! TD.AperFunction*
G04 #@! TA.AperFunction,SMDPad,CuDef*
G36*
X197179504Y-150331204D02*
G01*
X197203773Y-150334804D01*
X197227571Y-150340765D01*
X197250671Y-150349030D01*
X197272849Y-150359520D01*
X197293893Y-150372133D01*
X197313598Y-150386747D01*
X197331777Y-150403223D01*
X197348253Y-150421402D01*
X197362867Y-150441107D01*
X197375480Y-150462151D01*
X197385970Y-150484329D01*
X197394235Y-150507429D01*
X197400196Y-150531227D01*
X197403796Y-150555496D01*
X197405000Y-150580000D01*
X197405000Y-151505000D01*
X197403796Y-151529504D01*
X197400196Y-151553773D01*
X197394235Y-151577571D01*
X197385970Y-151600671D01*
X197375480Y-151622849D01*
X197362867Y-151643893D01*
X197348253Y-151663598D01*
X197331777Y-151681777D01*
X197313598Y-151698253D01*
X197293893Y-151712867D01*
X197272849Y-151725480D01*
X197250671Y-151735970D01*
X197227571Y-151744235D01*
X197203773Y-151750196D01*
X197179504Y-151753796D01*
X197155000Y-151755000D01*
X195905000Y-151755000D01*
X195880496Y-151753796D01*
X195856227Y-151750196D01*
X195832429Y-151744235D01*
X195809329Y-151735970D01*
X195787151Y-151725480D01*
X195766107Y-151712867D01*
X195746402Y-151698253D01*
X195728223Y-151681777D01*
X195711747Y-151663598D01*
X195697133Y-151643893D01*
X195684520Y-151622849D01*
X195674030Y-151600671D01*
X195665765Y-151577571D01*
X195659804Y-151553773D01*
X195656204Y-151529504D01*
X195655000Y-151505000D01*
X195655000Y-150580000D01*
X195656204Y-150555496D01*
X195659804Y-150531227D01*
X195665765Y-150507429D01*
X195674030Y-150484329D01*
X195684520Y-150462151D01*
X195697133Y-150441107D01*
X195711747Y-150421402D01*
X195728223Y-150403223D01*
X195746402Y-150386747D01*
X195766107Y-150372133D01*
X195787151Y-150359520D01*
X195809329Y-150349030D01*
X195832429Y-150340765D01*
X195856227Y-150334804D01*
X195880496Y-150331204D01*
X195905000Y-150330000D01*
X197155000Y-150330000D01*
X197179504Y-150331204D01*
G37*
G04 #@! TD.AperFunction*
G04 #@! TA.AperFunction,SMDPad,CuDef*
G36*
X200379504Y-150331204D02*
G01*
X200403773Y-150334804D01*
X200427571Y-150340765D01*
X200450671Y-150349030D01*
X200472849Y-150359520D01*
X200493893Y-150372133D01*
X200513598Y-150386747D01*
X200531777Y-150403223D01*
X200548253Y-150421402D01*
X200562867Y-150441107D01*
X200575480Y-150462151D01*
X200585970Y-150484329D01*
X200594235Y-150507429D01*
X200600196Y-150531227D01*
X200603796Y-150555496D01*
X200605000Y-150580000D01*
X200605000Y-151505000D01*
X200603796Y-151529504D01*
X200600196Y-151553773D01*
X200594235Y-151577571D01*
X200585970Y-151600671D01*
X200575480Y-151622849D01*
X200562867Y-151643893D01*
X200548253Y-151663598D01*
X200531777Y-151681777D01*
X200513598Y-151698253D01*
X200493893Y-151712867D01*
X200472849Y-151725480D01*
X200450671Y-151735970D01*
X200427571Y-151744235D01*
X200403773Y-151750196D01*
X200379504Y-151753796D01*
X200355000Y-151755000D01*
X199105000Y-151755000D01*
X199080496Y-151753796D01*
X199056227Y-151750196D01*
X199032429Y-151744235D01*
X199009329Y-151735970D01*
X198987151Y-151725480D01*
X198966107Y-151712867D01*
X198946402Y-151698253D01*
X198928223Y-151681777D01*
X198911747Y-151663598D01*
X198897133Y-151643893D01*
X198884520Y-151622849D01*
X198874030Y-151600671D01*
X198865765Y-151577571D01*
X198859804Y-151553773D01*
X198856204Y-151529504D01*
X198855000Y-151505000D01*
X198855000Y-150580000D01*
X198856204Y-150555496D01*
X198859804Y-150531227D01*
X198865765Y-150507429D01*
X198874030Y-150484329D01*
X198884520Y-150462151D01*
X198897133Y-150441107D01*
X198911747Y-150421402D01*
X198928223Y-150403223D01*
X198946402Y-150386747D01*
X198966107Y-150372133D01*
X198987151Y-150359520D01*
X199009329Y-150349030D01*
X199032429Y-150340765D01*
X199056227Y-150334804D01*
X199080496Y-150331204D01*
X199105000Y-150330000D01*
X200355000Y-150330000D01*
X200379504Y-150331204D01*
G37*
G04 #@! TD.AperFunction*
G04 #@! TA.AperFunction,SMDPad,CuDef*
G36*
X200379504Y-153306204D02*
G01*
X200403773Y-153309804D01*
X200427571Y-153315765D01*
X200450671Y-153324030D01*
X200472849Y-153334520D01*
X200493893Y-153347133D01*
X200513598Y-153361747D01*
X200531777Y-153378223D01*
X200548253Y-153396402D01*
X200562867Y-153416107D01*
X200575480Y-153437151D01*
X200585970Y-153459329D01*
X200594235Y-153482429D01*
X200600196Y-153506227D01*
X200603796Y-153530496D01*
X200605000Y-153555000D01*
X200605000Y-154480000D01*
X200603796Y-154504504D01*
X200600196Y-154528773D01*
X200594235Y-154552571D01*
X200585970Y-154575671D01*
X200575480Y-154597849D01*
X200562867Y-154618893D01*
X200548253Y-154638598D01*
X200531777Y-154656777D01*
X200513598Y-154673253D01*
X200493893Y-154687867D01*
X200472849Y-154700480D01*
X200450671Y-154710970D01*
X200427571Y-154719235D01*
X200403773Y-154725196D01*
X200379504Y-154728796D01*
X200355000Y-154730000D01*
X199105000Y-154730000D01*
X199080496Y-154728796D01*
X199056227Y-154725196D01*
X199032429Y-154719235D01*
X199009329Y-154710970D01*
X198987151Y-154700480D01*
X198966107Y-154687867D01*
X198946402Y-154673253D01*
X198928223Y-154656777D01*
X198911747Y-154638598D01*
X198897133Y-154618893D01*
X198884520Y-154597849D01*
X198874030Y-154575671D01*
X198865765Y-154552571D01*
X198859804Y-154528773D01*
X198856204Y-154504504D01*
X198855000Y-154480000D01*
X198855000Y-153555000D01*
X198856204Y-153530496D01*
X198859804Y-153506227D01*
X198865765Y-153482429D01*
X198874030Y-153459329D01*
X198884520Y-153437151D01*
X198897133Y-153416107D01*
X198911747Y-153396402D01*
X198928223Y-153378223D01*
X198946402Y-153361747D01*
X198966107Y-153347133D01*
X198987151Y-153334520D01*
X199009329Y-153324030D01*
X199032429Y-153315765D01*
X199056227Y-153309804D01*
X199080496Y-153306204D01*
X199105000Y-153305000D01*
X200355000Y-153305000D01*
X200379504Y-153306204D01*
G37*
G04 #@! TD.AperFunction*
D11*
X210660000Y-158950000D03*
X210660000Y-156410000D03*
X210660000Y-153870000D03*
D12*
X210660000Y-151330000D03*
D13*
X204462360Y-156011880D03*
X204462360Y-157281880D03*
X204462360Y-158551880D03*
X204462360Y-159821880D03*
X199062360Y-159821880D03*
X199062360Y-158551880D03*
X199062360Y-157281880D03*
X199062360Y-156011880D03*
D14*
X196545200Y-156738320D03*
X201416920Y-153979880D03*
X197279260Y-159819340D03*
X208386680Y-155473400D03*
D15*
X193197500Y-151042500D02*
X192890000Y-151350000D01*
X196530000Y-151042500D02*
X193197500Y-151042500D01*
X196530000Y-151042500D02*
X198101080Y-151042500D01*
X198101080Y-151042500D02*
X199730000Y-151042500D01*
X198637360Y-156011880D02*
X199062360Y-156011880D01*
X198155560Y-155530080D02*
X198637360Y-156011880D01*
X198155560Y-151096980D02*
X198155560Y-155530080D01*
X198101080Y-151042500D02*
X198155560Y-151096980D01*
X199062360Y-156011880D02*
X199062360Y-157281880D01*
X203832500Y-151042500D02*
X204015000Y-150860000D01*
X199730000Y-151042500D02*
X203832500Y-151042500D01*
X204015000Y-153670000D02*
X204035000Y-153690000D01*
X204015000Y-150860000D02*
X204015000Y-153670000D01*
X196177500Y-153890000D02*
X196540000Y-153527500D01*
X196530000Y-154017500D02*
X196530000Y-156723120D01*
X196530000Y-156723120D02*
X196545200Y-156738320D01*
X199730000Y-154017500D02*
X199730000Y-153305000D01*
X201379300Y-154017500D02*
X201416920Y-153979880D01*
X199730000Y-154017500D02*
X201379300Y-154017500D01*
X197281800Y-159821880D02*
X197279260Y-159819340D01*
X199062360Y-159821880D02*
X197281800Y-159821880D01*
D16*
X204462360Y-156011880D02*
X207848200Y-156011880D01*
X207848200Y-156011880D02*
X208386680Y-155473400D01*
X210660000Y-154400000D02*
X210660000Y-153870000D01*
X207650000Y-150860000D02*
X206377500Y-150860000D01*
X210660000Y-153870000D02*
X207650000Y-150860000D01*
X202854560Y-156724080D02*
X203412360Y-157281880D01*
X203412360Y-157281880D02*
X204462360Y-157281880D01*
X202854560Y-155600400D02*
X202854560Y-156724080D01*
X204332840Y-155023820D02*
X203431140Y-155023820D01*
X204910000Y-152190000D02*
X204910000Y-154446660D01*
X204910000Y-154446660D02*
X204332840Y-155023820D01*
X205765000Y-151335000D02*
X204910000Y-152190000D01*
X203431140Y-155023820D02*
X202854560Y-155600400D01*
X205765000Y-150860000D02*
X205765000Y-151335000D01*
X208518120Y-158551880D02*
X204462360Y-158551880D01*
X210660000Y-156410000D02*
X208518120Y-158551880D01*
X205785000Y-153690000D02*
X207940000Y-153690000D01*
X207940000Y-153690000D02*
X210660000Y-156410000D01*
X210055000Y-159555000D02*
X210660000Y-158950000D01*
X209788120Y-159821880D02*
X210660000Y-158950000D01*
X204462360Y-159821880D02*
X209788120Y-159821880D01*
X195011880Y-158551880D02*
X192890000Y-156430000D01*
X199062360Y-158551880D02*
X195011880Y-158551880D01*
D17*
G36*
X212396001Y-160610963D02*
G01*
X212306487Y-160551152D01*
X211999836Y-160424134D01*
X211674298Y-160359380D01*
X211342382Y-160359380D01*
X211016844Y-160424134D01*
X210710193Y-160551152D01*
X210434215Y-160735555D01*
X210199515Y-160970255D01*
X210015112Y-161246233D01*
X209888094Y-161552884D01*
X209823340Y-161878422D01*
X209823340Y-162210338D01*
X209888094Y-162535876D01*
X210015112Y-162842527D01*
X210030796Y-162866000D01*
X193610764Y-162866000D01*
X193626448Y-162842527D01*
X193753466Y-162535876D01*
X193818220Y-162210338D01*
X193818220Y-161878422D01*
X193753466Y-161552884D01*
X193626448Y-161246233D01*
X193442045Y-160970255D01*
X193207345Y-160735555D01*
X192931367Y-160551152D01*
X192658114Y-160437968D01*
X192743740Y-160455000D01*
X193036260Y-160455000D01*
X193323158Y-160397932D01*
X193593411Y-160285990D01*
X193836632Y-160123475D01*
X194043475Y-159916632D01*
X194205990Y-159673411D01*
X194317932Y-159403158D01*
X194375000Y-159116260D01*
X194375000Y-159025158D01*
X194429538Y-159079696D01*
X194454116Y-159109644D01*
X194484064Y-159134222D01*
X194484067Y-159134225D01*
X194513439Y-159158330D01*
X194573647Y-159207742D01*
X194710020Y-159280634D01*
X194823552Y-159315074D01*
X194857992Y-159325521D01*
X194872370Y-159326937D01*
X194973319Y-159336880D01*
X194973326Y-159336880D01*
X195011879Y-159340677D01*
X195050432Y-159336880D01*
X196358826Y-159336880D01*
X196284034Y-159517442D01*
X196244260Y-159717401D01*
X196244260Y-159921279D01*
X196284034Y-160121238D01*
X196362055Y-160309596D01*
X196475323Y-160479114D01*
X196619486Y-160623277D01*
X196789004Y-160736545D01*
X196977362Y-160814566D01*
X197177321Y-160854340D01*
X197381199Y-160854340D01*
X197581158Y-160814566D01*
X197769516Y-160736545D01*
X197888743Y-160656880D01*
X197932842Y-160656880D01*
X197957866Y-160677417D01*
X198068180Y-160736382D01*
X198187878Y-160772692D01*
X198312360Y-160784952D01*
X199812360Y-160784952D01*
X199936842Y-160772692D01*
X200056540Y-160736382D01*
X200166854Y-160677417D01*
X200263545Y-160598065D01*
X200342897Y-160501374D01*
X200401862Y-160391060D01*
X200438172Y-160271362D01*
X200450432Y-160146880D01*
X200450432Y-159496880D01*
X200438172Y-159372398D01*
X200401862Y-159252700D01*
X200366680Y-159186880D01*
X200401862Y-159121060D01*
X200438172Y-159001362D01*
X200450432Y-158876880D01*
X200450432Y-158226880D01*
X200438172Y-158102398D01*
X200401862Y-157982700D01*
X200366680Y-157916880D01*
X200401862Y-157851060D01*
X200438172Y-157731362D01*
X200450432Y-157606880D01*
X200450432Y-156956880D01*
X200438172Y-156832398D01*
X200401862Y-156712700D01*
X200366680Y-156646880D01*
X200401862Y-156581060D01*
X200438172Y-156461362D01*
X200450432Y-156336880D01*
X200450432Y-155686880D01*
X200438172Y-155562398D01*
X200401862Y-155442700D01*
X200361623Y-155367420D01*
X200528254Y-155351008D01*
X200694850Y-155300472D01*
X200848386Y-155218405D01*
X200982962Y-155107962D01*
X201093405Y-154973386D01*
X201096571Y-154967463D01*
X201115022Y-154975106D01*
X201314981Y-155014880D01*
X201518859Y-155014880D01*
X201718818Y-154975106D01*
X201907176Y-154897085D01*
X202076694Y-154783817D01*
X202220857Y-154639654D01*
X202334125Y-154470136D01*
X202412146Y-154281778D01*
X202451920Y-154081819D01*
X202451920Y-153877941D01*
X202412146Y-153677982D01*
X202334125Y-153489624D01*
X202220857Y-153320106D01*
X202076694Y-153175943D01*
X201907176Y-153062675D01*
X201718818Y-152984654D01*
X201518859Y-152944880D01*
X201314981Y-152944880D01*
X201115022Y-152984654D01*
X201051753Y-153010861D01*
X200982962Y-152927038D01*
X200848386Y-152816595D01*
X200694850Y-152734528D01*
X200528254Y-152683992D01*
X200355000Y-152666928D01*
X200268725Y-152666928D01*
X200196146Y-152607364D01*
X200051087Y-152529828D01*
X199893689Y-152482082D01*
X199730000Y-152465960D01*
X199566312Y-152482082D01*
X199408914Y-152529828D01*
X199263855Y-152607364D01*
X199191276Y-152666928D01*
X199105000Y-152666928D01*
X198990560Y-152678199D01*
X198990560Y-152381801D01*
X199105000Y-152393072D01*
X200355000Y-152393072D01*
X200528254Y-152376008D01*
X200694850Y-152325472D01*
X200848386Y-152243405D01*
X200982962Y-152132962D01*
X201093405Y-151998386D01*
X201158020Y-151877500D01*
X203180000Y-151877500D01*
X203180001Y-152791010D01*
X203128377Y-152833377D01*
X203019488Y-152966058D01*
X202938577Y-153117433D01*
X202888752Y-153281684D01*
X202871928Y-153452500D01*
X202871928Y-153927500D01*
X202888752Y-154098316D01*
X202938577Y-154262567D01*
X202994464Y-154367126D01*
X202992907Y-154367958D01*
X202968930Y-154387636D01*
X202903327Y-154441475D01*
X202903324Y-154441478D01*
X202873376Y-154466056D01*
X202848797Y-154496005D01*
X202326749Y-155018054D01*
X202296796Y-155042636D01*
X202198698Y-155162168D01*
X202125806Y-155298541D01*
X202080919Y-155446514D01*
X202069560Y-155561840D01*
X202069560Y-155561847D01*
X202065763Y-155600400D01*
X202069560Y-155638953D01*
X202069561Y-156685518D01*
X202065763Y-156724080D01*
X202080919Y-156877966D01*
X202125806Y-157025939D01*
X202143695Y-157059406D01*
X202198699Y-157162313D01*
X202220819Y-157189266D01*
X202272215Y-157251892D01*
X202272219Y-157251896D01*
X202296797Y-157281844D01*
X202326745Y-157306422D01*
X202830017Y-157809695D01*
X202854596Y-157839644D01*
X202884544Y-157864222D01*
X202884547Y-157864225D01*
X202897885Y-157875171D01*
X202974127Y-157937742D01*
X203110500Y-158010634D01*
X203114057Y-158011713D01*
X203086548Y-158102398D01*
X203074288Y-158226880D01*
X203074288Y-158876880D01*
X203086548Y-159001362D01*
X203122858Y-159121060D01*
X203158040Y-159186880D01*
X203122858Y-159252700D01*
X203086548Y-159372398D01*
X203074288Y-159496880D01*
X203074288Y-160146880D01*
X203086548Y-160271362D01*
X203122858Y-160391060D01*
X203181823Y-160501374D01*
X203261175Y-160598065D01*
X203357866Y-160677417D01*
X203468180Y-160736382D01*
X203587878Y-160772692D01*
X203712360Y-160784952D01*
X205212360Y-160784952D01*
X205336842Y-160772692D01*
X205456540Y-160736382D01*
X205566854Y-160677417D01*
X205652804Y-160606880D01*
X209749567Y-160606880D01*
X209788120Y-160610677D01*
X209826673Y-160606880D01*
X209826681Y-160606880D01*
X209942007Y-160595521D01*
X210089980Y-160550634D01*
X210226353Y-160477742D01*
X210324339Y-160397326D01*
X210513740Y-160435000D01*
X210806260Y-160435000D01*
X211093158Y-160377932D01*
X211363411Y-160265990D01*
X211606632Y-160103475D01*
X211813475Y-159896632D01*
X211975990Y-159653411D01*
X212087932Y-159383158D01*
X212145000Y-159096260D01*
X212145000Y-158803740D01*
X212087932Y-158516842D01*
X211975990Y-158246589D01*
X211813475Y-158003368D01*
X211606632Y-157796525D01*
X211432240Y-157680000D01*
X211606632Y-157563475D01*
X211813475Y-157356632D01*
X211975990Y-157113411D01*
X212087932Y-156843158D01*
X212145000Y-156556260D01*
X212145000Y-156263740D01*
X212087932Y-155976842D01*
X211975990Y-155706589D01*
X211813475Y-155463368D01*
X211606632Y-155256525D01*
X211432240Y-155140000D01*
X211606632Y-155023475D01*
X211813475Y-154816632D01*
X211975990Y-154573411D01*
X212087932Y-154303158D01*
X212145000Y-154016260D01*
X212145000Y-153723740D01*
X212087932Y-153436842D01*
X211975990Y-153166589D01*
X211813475Y-152923368D01*
X211681620Y-152791513D01*
X211754180Y-152769502D01*
X211864494Y-152710537D01*
X211961185Y-152631185D01*
X212040537Y-152534494D01*
X212099502Y-152424180D01*
X212135812Y-152304482D01*
X212148072Y-152180000D01*
X212148072Y-150480000D01*
X212135812Y-150355518D01*
X212099502Y-150235820D01*
X212040537Y-150125506D01*
X211961185Y-150028815D01*
X211954848Y-150023615D01*
X211999836Y-150014666D01*
X212306487Y-149887648D01*
X212396000Y-149827837D01*
X212396001Y-160610963D01*
G37*
X212396001Y-160610963D02*
X212306487Y-160551152D01*
X211999836Y-160424134D01*
X211674298Y-160359380D01*
X211342382Y-160359380D01*
X211016844Y-160424134D01*
X210710193Y-160551152D01*
X210434215Y-160735555D01*
X210199515Y-160970255D01*
X210015112Y-161246233D01*
X209888094Y-161552884D01*
X209823340Y-161878422D01*
X209823340Y-162210338D01*
X209888094Y-162535876D01*
X210015112Y-162842527D01*
X210030796Y-162866000D01*
X193610764Y-162866000D01*
X193626448Y-162842527D01*
X193753466Y-162535876D01*
X193818220Y-162210338D01*
X193818220Y-161878422D01*
X193753466Y-161552884D01*
X193626448Y-161246233D01*
X193442045Y-160970255D01*
X193207345Y-160735555D01*
X192931367Y-160551152D01*
X192658114Y-160437968D01*
X192743740Y-160455000D01*
X193036260Y-160455000D01*
X193323158Y-160397932D01*
X193593411Y-160285990D01*
X193836632Y-160123475D01*
X194043475Y-159916632D01*
X194205990Y-159673411D01*
X194317932Y-159403158D01*
X194375000Y-159116260D01*
X194375000Y-159025158D01*
X194429538Y-159079696D01*
X194454116Y-159109644D01*
X194484064Y-159134222D01*
X194484067Y-159134225D01*
X194513439Y-159158330D01*
X194573647Y-159207742D01*
X194710020Y-159280634D01*
X194823552Y-159315074D01*
X194857992Y-159325521D01*
X194872370Y-159326937D01*
X194973319Y-159336880D01*
X194973326Y-159336880D01*
X195011879Y-159340677D01*
X195050432Y-159336880D01*
X196358826Y-159336880D01*
X196284034Y-159517442D01*
X196244260Y-159717401D01*
X196244260Y-159921279D01*
X196284034Y-160121238D01*
X196362055Y-160309596D01*
X196475323Y-160479114D01*
X196619486Y-160623277D01*
X196789004Y-160736545D01*
X196977362Y-160814566D01*
X197177321Y-160854340D01*
X197381199Y-160854340D01*
X197581158Y-160814566D01*
X197769516Y-160736545D01*
X197888743Y-160656880D01*
X197932842Y-160656880D01*
X197957866Y-160677417D01*
X198068180Y-160736382D01*
X198187878Y-160772692D01*
X198312360Y-160784952D01*
X199812360Y-160784952D01*
X199936842Y-160772692D01*
X200056540Y-160736382D01*
X200166854Y-160677417D01*
X200263545Y-160598065D01*
X200342897Y-160501374D01*
X200401862Y-160391060D01*
X200438172Y-160271362D01*
X200450432Y-160146880D01*
X200450432Y-159496880D01*
X200438172Y-159372398D01*
X200401862Y-159252700D01*
X200366680Y-159186880D01*
X200401862Y-159121060D01*
X200438172Y-159001362D01*
X200450432Y-158876880D01*
X200450432Y-158226880D01*
X200438172Y-158102398D01*
X200401862Y-157982700D01*
X200366680Y-157916880D01*
X200401862Y-157851060D01*
X200438172Y-157731362D01*
X200450432Y-157606880D01*
X200450432Y-156956880D01*
X200438172Y-156832398D01*
X200401862Y-156712700D01*
X200366680Y-156646880D01*
X200401862Y-156581060D01*
X200438172Y-156461362D01*
X200450432Y-156336880D01*
X200450432Y-155686880D01*
X200438172Y-155562398D01*
X200401862Y-155442700D01*
X200361623Y-155367420D01*
X200528254Y-155351008D01*
X200694850Y-155300472D01*
X200848386Y-155218405D01*
X200982962Y-155107962D01*
X201093405Y-154973386D01*
X201096571Y-154967463D01*
X201115022Y-154975106D01*
X201314981Y-155014880D01*
X201518859Y-155014880D01*
X201718818Y-154975106D01*
X201907176Y-154897085D01*
X202076694Y-154783817D01*
X202220857Y-154639654D01*
X202334125Y-154470136D01*
X202412146Y-154281778D01*
X202451920Y-154081819D01*
X202451920Y-153877941D01*
X202412146Y-153677982D01*
X202334125Y-153489624D01*
X202220857Y-153320106D01*
X202076694Y-153175943D01*
X201907176Y-153062675D01*
X201718818Y-152984654D01*
X201518859Y-152944880D01*
X201314981Y-152944880D01*
X201115022Y-152984654D01*
X201051753Y-153010861D01*
X200982962Y-152927038D01*
X200848386Y-152816595D01*
X200694850Y-152734528D01*
X200528254Y-152683992D01*
X200355000Y-152666928D01*
X200268725Y-152666928D01*
X200196146Y-152607364D01*
X200051087Y-152529828D01*
X199893689Y-152482082D01*
X199730000Y-152465960D01*
X199566312Y-152482082D01*
X199408914Y-152529828D01*
X199263855Y-152607364D01*
X199191276Y-152666928D01*
X199105000Y-152666928D01*
X198990560Y-152678199D01*
X198990560Y-152381801D01*
X199105000Y-152393072D01*
X200355000Y-152393072D01*
X200528254Y-152376008D01*
X200694850Y-152325472D01*
X200848386Y-152243405D01*
X200982962Y-152132962D01*
X201093405Y-151998386D01*
X201158020Y-151877500D01*
X203180000Y-151877500D01*
X203180001Y-152791010D01*
X203128377Y-152833377D01*
X203019488Y-152966058D01*
X202938577Y-153117433D01*
X202888752Y-153281684D01*
X202871928Y-153452500D01*
X202871928Y-153927500D01*
X202888752Y-154098316D01*
X202938577Y-154262567D01*
X202994464Y-154367126D01*
X202992907Y-154367958D01*
X202968930Y-154387636D01*
X202903327Y-154441475D01*
X202903324Y-154441478D01*
X202873376Y-154466056D01*
X202848797Y-154496005D01*
X202326749Y-155018054D01*
X202296796Y-155042636D01*
X202198698Y-155162168D01*
X202125806Y-155298541D01*
X202080919Y-155446514D01*
X202069560Y-155561840D01*
X202069560Y-155561847D01*
X202065763Y-155600400D01*
X202069560Y-155638953D01*
X202069561Y-156685518D01*
X202065763Y-156724080D01*
X202080919Y-156877966D01*
X202125806Y-157025939D01*
X202143695Y-157059406D01*
X202198699Y-157162313D01*
X202220819Y-157189266D01*
X202272215Y-157251892D01*
X202272219Y-157251896D01*
X202296797Y-157281844D01*
X202326745Y-157306422D01*
X202830017Y-157809695D01*
X202854596Y-157839644D01*
X202884544Y-157864222D01*
X202884547Y-157864225D01*
X202897885Y-157875171D01*
X202974127Y-157937742D01*
X203110500Y-158010634D01*
X203114057Y-158011713D01*
X203086548Y-158102398D01*
X203074288Y-158226880D01*
X203074288Y-158876880D01*
X203086548Y-159001362D01*
X203122858Y-159121060D01*
X203158040Y-159186880D01*
X203122858Y-159252700D01*
X203086548Y-159372398D01*
X203074288Y-159496880D01*
X203074288Y-160146880D01*
X203086548Y-160271362D01*
X203122858Y-160391060D01*
X203181823Y-160501374D01*
X203261175Y-160598065D01*
X203357866Y-160677417D01*
X203468180Y-160736382D01*
X203587878Y-160772692D01*
X203712360Y-160784952D01*
X205212360Y-160784952D01*
X205336842Y-160772692D01*
X205456540Y-160736382D01*
X205566854Y-160677417D01*
X205652804Y-160606880D01*
X209749567Y-160606880D01*
X209788120Y-160610677D01*
X209826673Y-160606880D01*
X209826681Y-160606880D01*
X209942007Y-160595521D01*
X210089980Y-160550634D01*
X210226353Y-160477742D01*
X210324339Y-160397326D01*
X210513740Y-160435000D01*
X210806260Y-160435000D01*
X211093158Y-160377932D01*
X211363411Y-160265990D01*
X211606632Y-160103475D01*
X211813475Y-159896632D01*
X211975990Y-159653411D01*
X212087932Y-159383158D01*
X212145000Y-159096260D01*
X212145000Y-158803740D01*
X212087932Y-158516842D01*
X211975990Y-158246589D01*
X211813475Y-158003368D01*
X211606632Y-157796525D01*
X211432240Y-157680000D01*
X211606632Y-157563475D01*
X211813475Y-157356632D01*
X211975990Y-157113411D01*
X212087932Y-156843158D01*
X212145000Y-156556260D01*
X212145000Y-156263740D01*
X212087932Y-155976842D01*
X211975990Y-155706589D01*
X211813475Y-155463368D01*
X211606632Y-155256525D01*
X211432240Y-155140000D01*
X211606632Y-155023475D01*
X211813475Y-154816632D01*
X211975990Y-154573411D01*
X212087932Y-154303158D01*
X212145000Y-154016260D01*
X212145000Y-153723740D01*
X212087932Y-153436842D01*
X211975990Y-153166589D01*
X211813475Y-152923368D01*
X211681620Y-152791513D01*
X211754180Y-152769502D01*
X211864494Y-152710537D01*
X211961185Y-152631185D01*
X212040537Y-152534494D01*
X212099502Y-152424180D01*
X212135812Y-152304482D01*
X212148072Y-152180000D01*
X212148072Y-150480000D01*
X212135812Y-150355518D01*
X212099502Y-150235820D01*
X212040537Y-150125506D01*
X211961185Y-150028815D01*
X211954848Y-150023615D01*
X211999836Y-150014666D01*
X212306487Y-149887648D01*
X212396000Y-149827837D01*
X212396001Y-160610963D01*
G36*
X191355393Y-149872408D02*
G01*
X191653373Y-149995834D01*
X191588815Y-150048815D01*
X191509463Y-150145506D01*
X191450498Y-150255820D01*
X191414188Y-150375518D01*
X191401928Y-150500000D01*
X191401928Y-152200000D01*
X191414188Y-152324482D01*
X191450498Y-152444180D01*
X191509463Y-152554494D01*
X191588815Y-152651185D01*
X191685506Y-152730537D01*
X191795820Y-152789502D01*
X191868380Y-152811513D01*
X191736525Y-152943368D01*
X191574010Y-153186589D01*
X191462068Y-153456842D01*
X191405000Y-153743740D01*
X191405000Y-154036260D01*
X191462068Y-154323158D01*
X191574010Y-154593411D01*
X191736525Y-154836632D01*
X191943368Y-155043475D01*
X192117760Y-155160000D01*
X191943368Y-155276525D01*
X191736525Y-155483368D01*
X191574010Y-155726589D01*
X191462068Y-155996842D01*
X191405000Y-156283740D01*
X191405000Y-156576260D01*
X191462068Y-156863158D01*
X191574010Y-157133411D01*
X191736525Y-157376632D01*
X191943368Y-157583475D01*
X192117760Y-157700000D01*
X191943368Y-157816525D01*
X191736525Y-158023368D01*
X191574010Y-158266589D01*
X191462068Y-158536842D01*
X191405000Y-158823740D01*
X191405000Y-159116260D01*
X191462068Y-159403158D01*
X191574010Y-159673411D01*
X191736525Y-159916632D01*
X191943368Y-160123475D01*
X192186589Y-160285990D01*
X192423444Y-160384098D01*
X192299178Y-160359380D01*
X191967262Y-160359380D01*
X191641724Y-160424134D01*
X191335073Y-160551152D01*
X191210000Y-160634723D01*
X191210000Y-149775259D01*
X191355393Y-149872408D01*
G37*
X191355393Y-149872408D02*
X191653373Y-149995834D01*
X191588815Y-150048815D01*
X191509463Y-150145506D01*
X191450498Y-150255820D01*
X191414188Y-150375518D01*
X191401928Y-150500000D01*
X191401928Y-152200000D01*
X191414188Y-152324482D01*
X191450498Y-152444180D01*
X191509463Y-152554494D01*
X191588815Y-152651185D01*
X191685506Y-152730537D01*
X191795820Y-152789502D01*
X191868380Y-152811513D01*
X191736525Y-152943368D01*
X191574010Y-153186589D01*
X191462068Y-153456842D01*
X191405000Y-153743740D01*
X191405000Y-154036260D01*
X191462068Y-154323158D01*
X191574010Y-154593411D01*
X191736525Y-154836632D01*
X191943368Y-155043475D01*
X192117760Y-155160000D01*
X191943368Y-155276525D01*
X191736525Y-155483368D01*
X191574010Y-155726589D01*
X191462068Y-155996842D01*
X191405000Y-156283740D01*
X191405000Y-156576260D01*
X191462068Y-156863158D01*
X191574010Y-157133411D01*
X191736525Y-157376632D01*
X191943368Y-157583475D01*
X192117760Y-157700000D01*
X191943368Y-157816525D01*
X191736525Y-158023368D01*
X191574010Y-158266589D01*
X191462068Y-158536842D01*
X191405000Y-158823740D01*
X191405000Y-159116260D01*
X191462068Y-159403158D01*
X191574010Y-159673411D01*
X191736525Y-159916632D01*
X191943368Y-160123475D01*
X192186589Y-160285990D01*
X192423444Y-160384098D01*
X192299178Y-160359380D01*
X191967262Y-160359380D01*
X191641724Y-160424134D01*
X191335073Y-160551152D01*
X191210000Y-160634723D01*
X191210000Y-149775259D01*
X191355393Y-149872408D01*
G36*
X209175000Y-159036880D02*
G01*
X209143277Y-159036880D01*
X209175000Y-159005157D01*
X209175000Y-159036880D01*
G37*
X209175000Y-159036880D02*
X209143277Y-159036880D01*
X209175000Y-159005157D01*
X209175000Y-159036880D01*
G36*
X195166595Y-151998386D02*
G01*
X195277038Y-152132962D01*
X195411614Y-152243405D01*
X195565150Y-152325472D01*
X195731746Y-152376008D01*
X195905000Y-152393072D01*
X197155000Y-152393072D01*
X197320560Y-152376766D01*
X197320560Y-152683234D01*
X197155000Y-152666928D01*
X195905000Y-152666928D01*
X195731746Y-152683992D01*
X195565150Y-152734528D01*
X195411614Y-152816595D01*
X195277038Y-152927038D01*
X195166595Y-153061614D01*
X195084528Y-153215150D01*
X195033992Y-153381746D01*
X195016928Y-153555000D01*
X195016928Y-154480000D01*
X195033992Y-154653254D01*
X195084528Y-154819850D01*
X195166595Y-154973386D01*
X195277038Y-155107962D01*
X195411614Y-155218405D01*
X195565150Y-155300472D01*
X195695000Y-155339861D01*
X195695001Y-156147782D01*
X195627995Y-156248064D01*
X195549974Y-156436422D01*
X195510200Y-156636381D01*
X195510200Y-156840259D01*
X195549974Y-157040218D01*
X195627995Y-157228576D01*
X195741263Y-157398094D01*
X195885426Y-157542257D01*
X196054944Y-157655525D01*
X196243302Y-157733546D01*
X196410885Y-157766880D01*
X195337038Y-157766880D01*
X194337075Y-156766918D01*
X194375000Y-156576260D01*
X194375000Y-156283740D01*
X194317932Y-155996842D01*
X194205990Y-155726589D01*
X194043475Y-155483368D01*
X193836632Y-155276525D01*
X193662240Y-155160000D01*
X193836632Y-155043475D01*
X194043475Y-154836632D01*
X194205990Y-154593411D01*
X194317932Y-154323158D01*
X194375000Y-154036260D01*
X194375000Y-153743740D01*
X194317932Y-153456842D01*
X194205990Y-153186589D01*
X194043475Y-152943368D01*
X193911620Y-152811513D01*
X193984180Y-152789502D01*
X194094494Y-152730537D01*
X194191185Y-152651185D01*
X194270537Y-152554494D01*
X194329502Y-152444180D01*
X194365812Y-152324482D01*
X194378072Y-152200000D01*
X194378072Y-151877500D01*
X195101980Y-151877500D01*
X195166595Y-151998386D01*
G37*
X195166595Y-151998386D02*
X195277038Y-152132962D01*
X195411614Y-152243405D01*
X195565150Y-152325472D01*
X195731746Y-152376008D01*
X195905000Y-152393072D01*
X197155000Y-152393072D01*
X197320560Y-152376766D01*
X197320560Y-152683234D01*
X197155000Y-152666928D01*
X195905000Y-152666928D01*
X195731746Y-152683992D01*
X195565150Y-152734528D01*
X195411614Y-152816595D01*
X195277038Y-152927038D01*
X195166595Y-153061614D01*
X195084528Y-153215150D01*
X195033992Y-153381746D01*
X195016928Y-153555000D01*
X195016928Y-154480000D01*
X195033992Y-154653254D01*
X195084528Y-154819850D01*
X195166595Y-154973386D01*
X195277038Y-155107962D01*
X195411614Y-155218405D01*
X195565150Y-155300472D01*
X195695000Y-155339861D01*
X195695001Y-156147782D01*
X195627995Y-156248064D01*
X195549974Y-156436422D01*
X195510200Y-156636381D01*
X195510200Y-156840259D01*
X195549974Y-157040218D01*
X195627995Y-157228576D01*
X195741263Y-157398094D01*
X195885426Y-157542257D01*
X196054944Y-157655525D01*
X196243302Y-157733546D01*
X196410885Y-157766880D01*
X195337038Y-157766880D01*
X194337075Y-156766918D01*
X194375000Y-156576260D01*
X194375000Y-156283740D01*
X194317932Y-155996842D01*
X194205990Y-155726589D01*
X194043475Y-155483368D01*
X193836632Y-155276525D01*
X193662240Y-155160000D01*
X193836632Y-155043475D01*
X194043475Y-154836632D01*
X194205990Y-154593411D01*
X194317932Y-154323158D01*
X194375000Y-154036260D01*
X194375000Y-153743740D01*
X194317932Y-153456842D01*
X194205990Y-153186589D01*
X194043475Y-152943368D01*
X193911620Y-152811513D01*
X193984180Y-152789502D01*
X194094494Y-152730537D01*
X194191185Y-152651185D01*
X194270537Y-152554494D01*
X194329502Y-152444180D01*
X194365812Y-152324482D01*
X194378072Y-152200000D01*
X194378072Y-151877500D01*
X195101980Y-151877500D01*
X195166595Y-151998386D01*
G36*
X209175000Y-156263740D02*
G01*
X209175000Y-156556260D01*
X209212925Y-156746918D01*
X208192963Y-157766880D01*
X205827398Y-157766880D01*
X205838172Y-157731362D01*
X205850432Y-157606880D01*
X205850432Y-156956880D01*
X205838172Y-156832398D01*
X205827398Y-156796880D01*
X207809647Y-156796880D01*
X207848200Y-156800677D01*
X207886753Y-156796880D01*
X207886761Y-156796880D01*
X208002087Y-156785521D01*
X208150060Y-156740634D01*
X208286433Y-156667742D01*
X208405964Y-156569644D01*
X208430547Y-156539690D01*
X208461837Y-156508400D01*
X208488619Y-156508400D01*
X208688578Y-156468626D01*
X208876936Y-156390605D01*
X209046454Y-156277337D01*
X209190617Y-156133174D01*
X209205360Y-156111109D01*
X209175000Y-156263740D01*
G37*
X209175000Y-156263740D02*
X209175000Y-156556260D01*
X209212925Y-156746918D01*
X208192963Y-157766880D01*
X205827398Y-157766880D01*
X205838172Y-157731362D01*
X205850432Y-157606880D01*
X205850432Y-156956880D01*
X205838172Y-156832398D01*
X205827398Y-156796880D01*
X207809647Y-156796880D01*
X207848200Y-156800677D01*
X207886753Y-156796880D01*
X207886761Y-156796880D01*
X208002087Y-156785521D01*
X208150060Y-156740634D01*
X208286433Y-156667742D01*
X208405964Y-156569644D01*
X208430547Y-156539690D01*
X208461837Y-156508400D01*
X208488619Y-156508400D01*
X208688578Y-156468626D01*
X208876936Y-156390605D01*
X209046454Y-156277337D01*
X209190617Y-156133174D01*
X209205360Y-156111109D01*
X209175000Y-156263740D01*
G36*
X197380388Y-155851166D02*
G01*
X197457924Y-155996225D01*
X197462017Y-156001212D01*
X197562270Y-156123371D01*
X197594134Y-156149521D01*
X197674288Y-156229675D01*
X197674288Y-156336880D01*
X197686548Y-156461362D01*
X197722858Y-156581060D01*
X197758040Y-156646880D01*
X197722858Y-156712700D01*
X197686548Y-156832398D01*
X197674288Y-156956880D01*
X197674288Y-157606880D01*
X197686548Y-157731362D01*
X197697322Y-157766880D01*
X196679515Y-157766880D01*
X196847098Y-157733546D01*
X197035456Y-157655525D01*
X197204974Y-157542257D01*
X197349137Y-157398094D01*
X197462405Y-157228576D01*
X197540426Y-157040218D01*
X197580200Y-156840259D01*
X197580200Y-156636381D01*
X197540426Y-156436422D01*
X197462405Y-156248064D01*
X197365000Y-156102287D01*
X197365000Y-155800438D01*
X197380388Y-155851166D01*
G37*
X197380388Y-155851166D02*
X197457924Y-155996225D01*
X197462017Y-156001212D01*
X197562270Y-156123371D01*
X197594134Y-156149521D01*
X197674288Y-156229675D01*
X197674288Y-156336880D01*
X197686548Y-156461362D01*
X197722858Y-156581060D01*
X197758040Y-156646880D01*
X197722858Y-156712700D01*
X197686548Y-156832398D01*
X197674288Y-156956880D01*
X197674288Y-157606880D01*
X197686548Y-157731362D01*
X197697322Y-157766880D01*
X196679515Y-157766880D01*
X196847098Y-157733546D01*
X197035456Y-157655525D01*
X197204974Y-157542257D01*
X197349137Y-157398094D01*
X197462405Y-157228576D01*
X197540426Y-157040218D01*
X197580200Y-156840259D01*
X197580200Y-156636381D01*
X197540426Y-156436422D01*
X197462405Y-156248064D01*
X197365000Y-156102287D01*
X197365000Y-155800438D01*
X197380388Y-155851166D01*
G36*
X207776301Y-154636458D02*
G01*
X207726906Y-154669463D01*
X207582743Y-154813626D01*
X207469475Y-154983144D01*
X207391454Y-155171502D01*
X207380439Y-155226880D01*
X205652804Y-155226880D01*
X205566854Y-155156343D01*
X205456540Y-155097378D01*
X205389712Y-155077106D01*
X205437815Y-155029003D01*
X205467764Y-155004424D01*
X205565862Y-154884893D01*
X205609596Y-154803072D01*
X206072500Y-154803072D01*
X206243316Y-154786248D01*
X206407567Y-154736423D01*
X206558942Y-154655512D01*
X206691623Y-154546623D01*
X206750403Y-154475000D01*
X207614843Y-154475000D01*
X207776301Y-154636458D01*
G37*
X207776301Y-154636458D02*
X207726906Y-154669463D01*
X207582743Y-154813626D01*
X207469475Y-154983144D01*
X207391454Y-155171502D01*
X207380439Y-155226880D01*
X205652804Y-155226880D01*
X205566854Y-155156343D01*
X205456540Y-155097378D01*
X205389712Y-155077106D01*
X205437815Y-155029003D01*
X205467764Y-155004424D01*
X205565862Y-154884893D01*
X205609596Y-154803072D01*
X206072500Y-154803072D01*
X206243316Y-154786248D01*
X206407567Y-154736423D01*
X206558942Y-154655512D01*
X206691623Y-154546623D01*
X206750403Y-154475000D01*
X207614843Y-154475000D01*
X207776301Y-154636458D01*
G36*
X209212925Y-153533082D02*
G01*
X209175000Y-153723740D01*
X209175000Y-153814843D01*
X208522347Y-153162190D01*
X208497764Y-153132236D01*
X208378233Y-153034138D01*
X208241860Y-152961246D01*
X208093887Y-152916359D01*
X207978561Y-152905000D01*
X207978553Y-152905000D01*
X207940000Y-152901203D01*
X207901447Y-152905000D01*
X206750403Y-152905000D01*
X206691623Y-152833377D01*
X206558942Y-152724488D01*
X206407567Y-152643577D01*
X206243316Y-152593752D01*
X206072500Y-152576928D01*
X205695000Y-152576928D01*
X205695000Y-152515157D01*
X206267230Y-151942927D01*
X206387567Y-151906423D01*
X206538942Y-151825512D01*
X206671623Y-151716623D01*
X206730403Y-151645000D01*
X207324843Y-151645000D01*
X209212925Y-153533082D01*
G37*
X209212925Y-153533082D02*
X209175000Y-153723740D01*
X209175000Y-153814843D01*
X208522347Y-153162190D01*
X208497764Y-153132236D01*
X208378233Y-153034138D01*
X208241860Y-152961246D01*
X208093887Y-152916359D01*
X207978561Y-152905000D01*
X207978553Y-152905000D01*
X207940000Y-152901203D01*
X207901447Y-152905000D01*
X206750403Y-152905000D01*
X206691623Y-152833377D01*
X206558942Y-152724488D01*
X206407567Y-152643577D01*
X206243316Y-152593752D01*
X206072500Y-152576928D01*
X205695000Y-152576928D01*
X205695000Y-152515157D01*
X206267230Y-151942927D01*
X206387567Y-151906423D01*
X206538942Y-151825512D01*
X206671623Y-151716623D01*
X206730403Y-151645000D01*
X207324843Y-151645000D01*
X209212925Y-153533082D01*
G36*
X210015112Y-147596273D02*
G01*
X209888094Y-147902924D01*
X209823340Y-148228462D01*
X209823340Y-148560378D01*
X209888094Y-148885916D01*
X210015112Y-149192567D01*
X210199515Y-149468545D01*
X210434215Y-149703245D01*
X210641768Y-149841928D01*
X209810000Y-149841928D01*
X209685518Y-149854188D01*
X209565820Y-149890498D01*
X209455506Y-149949463D01*
X209358815Y-150028815D01*
X209279463Y-150125506D01*
X209220498Y-150235820D01*
X209184188Y-150355518D01*
X209171928Y-150480000D01*
X209171928Y-151271771D01*
X208232347Y-150332190D01*
X208207764Y-150302236D01*
X208088233Y-150204138D01*
X207951860Y-150131246D01*
X207803887Y-150086359D01*
X207688561Y-150075000D01*
X207688553Y-150075000D01*
X207650000Y-150071203D01*
X207611447Y-150075000D01*
X206730403Y-150075000D01*
X206671623Y-150003377D01*
X206538942Y-149894488D01*
X206387567Y-149813577D01*
X206223316Y-149763752D01*
X206052500Y-149746928D01*
X205477500Y-149746928D01*
X205306684Y-149763752D01*
X205142433Y-149813577D01*
X204991058Y-149894488D01*
X204890000Y-149977425D01*
X204788942Y-149894488D01*
X204637567Y-149813577D01*
X204473316Y-149763752D01*
X204302500Y-149746928D01*
X203727500Y-149746928D01*
X203556684Y-149763752D01*
X203392433Y-149813577D01*
X203241058Y-149894488D01*
X203108377Y-150003377D01*
X202999488Y-150136058D01*
X202961302Y-150207500D01*
X201158020Y-150207500D01*
X201093405Y-150086614D01*
X200982962Y-149952038D01*
X200848386Y-149841595D01*
X200694850Y-149759528D01*
X200528254Y-149708992D01*
X200355000Y-149691928D01*
X199105000Y-149691928D01*
X198931746Y-149708992D01*
X198765150Y-149759528D01*
X198611614Y-149841595D01*
X198477038Y-149952038D01*
X198366595Y-150086614D01*
X198301980Y-150207500D01*
X198142098Y-150207500D01*
X198101080Y-150203460D01*
X198060062Y-150207500D01*
X197958020Y-150207500D01*
X197893405Y-150086614D01*
X197782962Y-149952038D01*
X197648386Y-149841595D01*
X197494850Y-149759528D01*
X197328254Y-149708992D01*
X197155000Y-149691928D01*
X195905000Y-149691928D01*
X195731746Y-149708992D01*
X195565150Y-149759528D01*
X195411614Y-149841595D01*
X195277038Y-149952038D01*
X195166595Y-150086614D01*
X195101980Y-150207500D01*
X194303674Y-150207500D01*
X194270537Y-150145506D01*
X194191185Y-150048815D01*
X194094494Y-149969463D01*
X193984180Y-149910498D01*
X193864482Y-149874188D01*
X193740000Y-149861928D01*
X192967371Y-149861928D01*
X193227665Y-149688005D01*
X193462365Y-149453305D01*
X193646768Y-149177327D01*
X193773786Y-148870676D01*
X193838540Y-148545138D01*
X193838540Y-148213222D01*
X193773786Y-147887684D01*
X193646768Y-147581033D01*
X193607323Y-147522000D01*
X210064740Y-147522000D01*
X210015112Y-147596273D01*
G37*
X210015112Y-147596273D02*
X209888094Y-147902924D01*
X209823340Y-148228462D01*
X209823340Y-148560378D01*
X209888094Y-148885916D01*
X210015112Y-149192567D01*
X210199515Y-149468545D01*
X210434215Y-149703245D01*
X210641768Y-149841928D01*
X209810000Y-149841928D01*
X209685518Y-149854188D01*
X209565820Y-149890498D01*
X209455506Y-149949463D01*
X209358815Y-150028815D01*
X209279463Y-150125506D01*
X209220498Y-150235820D01*
X209184188Y-150355518D01*
X209171928Y-150480000D01*
X209171928Y-151271771D01*
X208232347Y-150332190D01*
X208207764Y-150302236D01*
X208088233Y-150204138D01*
X207951860Y-150131246D01*
X207803887Y-150086359D01*
X207688561Y-150075000D01*
X207688553Y-150075000D01*
X207650000Y-150071203D01*
X207611447Y-150075000D01*
X206730403Y-150075000D01*
X206671623Y-150003377D01*
X206538942Y-149894488D01*
X206387567Y-149813577D01*
X206223316Y-149763752D01*
X206052500Y-149746928D01*
X205477500Y-149746928D01*
X205306684Y-149763752D01*
X205142433Y-149813577D01*
X204991058Y-149894488D01*
X204890000Y-149977425D01*
X204788942Y-149894488D01*
X204637567Y-149813577D01*
X204473316Y-149763752D01*
X204302500Y-149746928D01*
X203727500Y-149746928D01*
X203556684Y-149763752D01*
X203392433Y-149813577D01*
X203241058Y-149894488D01*
X203108377Y-150003377D01*
X202999488Y-150136058D01*
X202961302Y-150207500D01*
X201158020Y-150207500D01*
X201093405Y-150086614D01*
X200982962Y-149952038D01*
X200848386Y-149841595D01*
X200694850Y-149759528D01*
X200528254Y-149708992D01*
X200355000Y-149691928D01*
X199105000Y-149691928D01*
X198931746Y-149708992D01*
X198765150Y-149759528D01*
X198611614Y-149841595D01*
X198477038Y-149952038D01*
X198366595Y-150086614D01*
X198301980Y-150207500D01*
X198142098Y-150207500D01*
X198101080Y-150203460D01*
X198060062Y-150207500D01*
X197958020Y-150207500D01*
X197893405Y-150086614D01*
X197782962Y-149952038D01*
X197648386Y-149841595D01*
X197494850Y-149759528D01*
X197328254Y-149708992D01*
X197155000Y-149691928D01*
X195905000Y-149691928D01*
X195731746Y-149708992D01*
X195565150Y-149759528D01*
X195411614Y-149841595D01*
X195277038Y-149952038D01*
X195166595Y-150086614D01*
X195101980Y-150207500D01*
X194303674Y-150207500D01*
X194270537Y-150145506D01*
X194191185Y-150048815D01*
X194094494Y-149969463D01*
X193984180Y-149910498D01*
X193864482Y-149874188D01*
X193740000Y-149861928D01*
X192967371Y-149861928D01*
X193227665Y-149688005D01*
X193462365Y-149453305D01*
X193646768Y-149177327D01*
X193773786Y-148870676D01*
X193838540Y-148545138D01*
X193838540Y-148213222D01*
X193773786Y-147887684D01*
X193646768Y-147581033D01*
X193607323Y-147522000D01*
X210064740Y-147522000D01*
X210015112Y-147596273D01*
M02*
