G04 #@! TF.GenerationSoftware,KiCad,Pcbnew,5.1.5+dfsg1-2build2*
G04 #@! TF.CreationDate,2021-08-24T21:15:58+05:30*
G04 #@! TF.ProjectId,AS5600-Encoder-PCB,41533536-3030-42d4-956e-636f6465722d,rev?*
G04 #@! TF.SameCoordinates,Original*
G04 #@! TF.FileFunction,Soldermask,Bot*
G04 #@! TF.FilePolarity,Negative*
%FSLAX46Y46*%
G04 Gerber Fmt 4.6, Leading zero omitted, Abs format (unit mm)*
G04 Created by KiCad (PCBNEW 5.1.5+dfsg1-2build2) date 2021-08-24 21:15:58*
%MOMM*%
%LPD*%
G04 APERTURE LIST*
%ADD10C,0.100000*%
G04 APERTURE END LIST*
D10*
G36*
X192494794Y-161000155D02*
G01*
X192601150Y-161021311D01*
X192801520Y-161104307D01*
X192981844Y-161224795D01*
X193135205Y-161378156D01*
X193255693Y-161558480D01*
X193338689Y-161758851D01*
X193381000Y-161971560D01*
X193381000Y-162188440D01*
X193338689Y-162401149D01*
X193255693Y-162601520D01*
X193135205Y-162781844D01*
X192981844Y-162935205D01*
X192801520Y-163055693D01*
X192701334Y-163097191D01*
X192601150Y-163138689D01*
X192494795Y-163159844D01*
X192388440Y-163181000D01*
X192171560Y-163181000D01*
X192065205Y-163159844D01*
X191958850Y-163138689D01*
X191858666Y-163097191D01*
X191758480Y-163055693D01*
X191578156Y-162935205D01*
X191424795Y-162781844D01*
X191304307Y-162601520D01*
X191221311Y-162401149D01*
X191179000Y-162188440D01*
X191179000Y-161971560D01*
X191221311Y-161758851D01*
X191304307Y-161558480D01*
X191424795Y-161378156D01*
X191578156Y-161224795D01*
X191758480Y-161104307D01*
X191958850Y-161021311D01*
X192065206Y-161000155D01*
X192171560Y-160979000D01*
X192388440Y-160979000D01*
X192494794Y-161000155D01*
G37*
G36*
X211604794Y-161000155D02*
G01*
X211711150Y-161021311D01*
X211911520Y-161104307D01*
X212091844Y-161224795D01*
X212245205Y-161378156D01*
X212365693Y-161558480D01*
X212448689Y-161758851D01*
X212491000Y-161971560D01*
X212491000Y-162188440D01*
X212448689Y-162401149D01*
X212365693Y-162601520D01*
X212245205Y-162781844D01*
X212091844Y-162935205D01*
X211911520Y-163055693D01*
X211811334Y-163097191D01*
X211711150Y-163138689D01*
X211604795Y-163159844D01*
X211498440Y-163181000D01*
X211281560Y-163181000D01*
X211175205Y-163159844D01*
X211068850Y-163138689D01*
X210968666Y-163097191D01*
X210868480Y-163055693D01*
X210688156Y-162935205D01*
X210534795Y-162781844D01*
X210414307Y-162601520D01*
X210331311Y-162401149D01*
X210289000Y-162188440D01*
X210289000Y-161971560D01*
X210331311Y-161758851D01*
X210414307Y-161558480D01*
X210534795Y-161378156D01*
X210688156Y-161224795D01*
X210868480Y-161104307D01*
X211068850Y-161021311D01*
X211175206Y-161000155D01*
X211281560Y-160979000D01*
X211498440Y-160979000D01*
X211604794Y-161000155D01*
G37*
G36*
X205239487Y-157348996D02*
G01*
X205476253Y-157447068D01*
X205476255Y-157447069D01*
X205689339Y-157589447D01*
X205870553Y-157770661D01*
X206012932Y-157983747D01*
X206111004Y-158220513D01*
X206161000Y-158471861D01*
X206161000Y-158728139D01*
X206111004Y-158979487D01*
X206078175Y-159058742D01*
X206012931Y-159216255D01*
X205870553Y-159429339D01*
X205689339Y-159610553D01*
X205476255Y-159752931D01*
X205476254Y-159752932D01*
X205476253Y-159752932D01*
X205239487Y-159851004D01*
X204988139Y-159901000D01*
X204731861Y-159901000D01*
X204480513Y-159851004D01*
X204243747Y-159752932D01*
X204243746Y-159752932D01*
X204243745Y-159752931D01*
X204030661Y-159610553D01*
X203849447Y-159429339D01*
X203707069Y-159216255D01*
X203641825Y-159058742D01*
X203608996Y-158979487D01*
X203559000Y-158728139D01*
X203559000Y-158471861D01*
X203608996Y-158220513D01*
X203707068Y-157983747D01*
X203849447Y-157770661D01*
X204030661Y-157589447D01*
X204243745Y-157447069D01*
X204243747Y-157447068D01*
X204480513Y-157348996D01*
X204731861Y-157299000D01*
X204988139Y-157299000D01*
X205239487Y-157348996D01*
G37*
G36*
X193003512Y-158073927D02*
G01*
X193152812Y-158103624D01*
X193316784Y-158171544D01*
X193464354Y-158270147D01*
X193589853Y-158395646D01*
X193688456Y-158543216D01*
X193756376Y-158707188D01*
X193791000Y-158881259D01*
X193791000Y-159058741D01*
X193756376Y-159232812D01*
X193688456Y-159396784D01*
X193589853Y-159544354D01*
X193464354Y-159669853D01*
X193316784Y-159768456D01*
X193152812Y-159836376D01*
X193003512Y-159866073D01*
X192978742Y-159871000D01*
X192801258Y-159871000D01*
X192776488Y-159866073D01*
X192627188Y-159836376D01*
X192463216Y-159768456D01*
X192315646Y-159669853D01*
X192190147Y-159544354D01*
X192091544Y-159396784D01*
X192023624Y-159232812D01*
X191989000Y-159058741D01*
X191989000Y-158881259D01*
X192023624Y-158707188D01*
X192091544Y-158543216D01*
X192190147Y-158395646D01*
X192315646Y-158270147D01*
X192463216Y-158171544D01*
X192627188Y-158103624D01*
X192776488Y-158073927D01*
X192801258Y-158069000D01*
X192978742Y-158069000D01*
X193003512Y-158073927D01*
G37*
G36*
X210773512Y-158053927D02*
G01*
X210922812Y-158083624D01*
X211086784Y-158151544D01*
X211234354Y-158250147D01*
X211359853Y-158375646D01*
X211458456Y-158523216D01*
X211526376Y-158687188D01*
X211561000Y-158861259D01*
X211561000Y-159038741D01*
X211526376Y-159212812D01*
X211458456Y-159376784D01*
X211359853Y-159524354D01*
X211234354Y-159649853D01*
X211086784Y-159748456D01*
X210922812Y-159816376D01*
X210773512Y-159846073D01*
X210748742Y-159851000D01*
X210571258Y-159851000D01*
X210546488Y-159846073D01*
X210397188Y-159816376D01*
X210233216Y-159748456D01*
X210085646Y-159649853D01*
X209960147Y-159524354D01*
X209861544Y-159376784D01*
X209793624Y-159212812D01*
X209759000Y-159038741D01*
X209759000Y-158861259D01*
X209793624Y-158687188D01*
X209861544Y-158523216D01*
X209960147Y-158375646D01*
X210085646Y-158250147D01*
X210233216Y-158151544D01*
X210397188Y-158083624D01*
X210546488Y-158053927D01*
X210571258Y-158049000D01*
X210748742Y-158049000D01*
X210773512Y-158053927D01*
G37*
G36*
X193003512Y-155533927D02*
G01*
X193152812Y-155563624D01*
X193316784Y-155631544D01*
X193464354Y-155730147D01*
X193589853Y-155855646D01*
X193688456Y-156003216D01*
X193756376Y-156167188D01*
X193786073Y-156316488D01*
X193790949Y-156341000D01*
X193791000Y-156341259D01*
X193791000Y-156518741D01*
X193756376Y-156692812D01*
X193688456Y-156856784D01*
X193589853Y-157004354D01*
X193464354Y-157129853D01*
X193316784Y-157228456D01*
X193152812Y-157296376D01*
X193003512Y-157326073D01*
X192978742Y-157331000D01*
X192801258Y-157331000D01*
X192776488Y-157326073D01*
X192627188Y-157296376D01*
X192463216Y-157228456D01*
X192315646Y-157129853D01*
X192190147Y-157004354D01*
X192091544Y-156856784D01*
X192023624Y-156692812D01*
X191989000Y-156518741D01*
X191989000Y-156341259D01*
X191989052Y-156341000D01*
X191993927Y-156316488D01*
X192023624Y-156167188D01*
X192091544Y-156003216D01*
X192190147Y-155855646D01*
X192315646Y-155730147D01*
X192463216Y-155631544D01*
X192627188Y-155563624D01*
X192776488Y-155533927D01*
X192801258Y-155529000D01*
X192978742Y-155529000D01*
X193003512Y-155533927D01*
G37*
G36*
X210773512Y-155513927D02*
G01*
X210922812Y-155543624D01*
X211086784Y-155611544D01*
X211234354Y-155710147D01*
X211359853Y-155835646D01*
X211458456Y-155983216D01*
X211526376Y-156147188D01*
X211561000Y-156321259D01*
X211561000Y-156498741D01*
X211526376Y-156672812D01*
X211458456Y-156836784D01*
X211359853Y-156984354D01*
X211234354Y-157109853D01*
X211086784Y-157208456D01*
X210922812Y-157276376D01*
X210773512Y-157306073D01*
X210748742Y-157311000D01*
X210571258Y-157311000D01*
X210546488Y-157306073D01*
X210397188Y-157276376D01*
X210233216Y-157208456D01*
X210085646Y-157109853D01*
X209960147Y-156984354D01*
X209861544Y-156836784D01*
X209793624Y-156672812D01*
X209759000Y-156498741D01*
X209759000Y-156321259D01*
X209793624Y-156147188D01*
X209861544Y-155983216D01*
X209960147Y-155835646D01*
X210085646Y-155710147D01*
X210233216Y-155611544D01*
X210397188Y-155543624D01*
X210546488Y-155513927D01*
X210571258Y-155509000D01*
X210748742Y-155509000D01*
X210773512Y-155513927D01*
G37*
G36*
X207461000Y-156341000D02*
G01*
X202359000Y-156341000D01*
X202359000Y-153739000D01*
X207461000Y-153739000D01*
X207461000Y-156341000D01*
G37*
G36*
X193003512Y-152993927D02*
G01*
X193152812Y-153023624D01*
X193316784Y-153091544D01*
X193464354Y-153190147D01*
X193589853Y-153315646D01*
X193688456Y-153463216D01*
X193756376Y-153627188D01*
X193791000Y-153801259D01*
X193791000Y-153978741D01*
X193756376Y-154152812D01*
X193688456Y-154316784D01*
X193589853Y-154464354D01*
X193464354Y-154589853D01*
X193316784Y-154688456D01*
X193152812Y-154756376D01*
X193003512Y-154786073D01*
X192978742Y-154791000D01*
X192801258Y-154791000D01*
X192776488Y-154786073D01*
X192627188Y-154756376D01*
X192463216Y-154688456D01*
X192315646Y-154589853D01*
X192190147Y-154464354D01*
X192091544Y-154316784D01*
X192023624Y-154152812D01*
X191989000Y-153978741D01*
X191989000Y-153801259D01*
X192023624Y-153627188D01*
X192091544Y-153463216D01*
X192190147Y-153315646D01*
X192315646Y-153190147D01*
X192463216Y-153091544D01*
X192627188Y-153023624D01*
X192776488Y-152993927D01*
X192801258Y-152989000D01*
X192978742Y-152989000D01*
X193003512Y-152993927D01*
G37*
G36*
X210773512Y-152973927D02*
G01*
X210922812Y-153003624D01*
X211086784Y-153071544D01*
X211234354Y-153170147D01*
X211359853Y-153295646D01*
X211458456Y-153443216D01*
X211526376Y-153607188D01*
X211561000Y-153781259D01*
X211561000Y-153958741D01*
X211526376Y-154132812D01*
X211458456Y-154296784D01*
X211359853Y-154444354D01*
X211234354Y-154569853D01*
X211086784Y-154668456D01*
X210922812Y-154736376D01*
X210773512Y-154766073D01*
X210748742Y-154771000D01*
X210571258Y-154771000D01*
X210546488Y-154766073D01*
X210397188Y-154736376D01*
X210233216Y-154668456D01*
X210085646Y-154569853D01*
X209960147Y-154444354D01*
X209861544Y-154296784D01*
X209793624Y-154132812D01*
X209759000Y-153958741D01*
X209759000Y-153781259D01*
X209793624Y-153607188D01*
X209861544Y-153443216D01*
X209960147Y-153295646D01*
X210085646Y-153170147D01*
X210233216Y-153071544D01*
X210397188Y-153003624D01*
X210546488Y-152973927D01*
X210571258Y-152969000D01*
X210748742Y-152969000D01*
X210773512Y-152973927D01*
G37*
G36*
X205209487Y-150178996D02*
G01*
X205446253Y-150277068D01*
X205446255Y-150277069D01*
X205659339Y-150419447D01*
X205840553Y-150600661D01*
X205942842Y-150753747D01*
X205982932Y-150813747D01*
X206081004Y-151050513D01*
X206131000Y-151301861D01*
X206131000Y-151558139D01*
X206081004Y-151809487D01*
X206007785Y-151986253D01*
X205982931Y-152046255D01*
X205840553Y-152259339D01*
X205659339Y-152440553D01*
X205446255Y-152582931D01*
X205446254Y-152582932D01*
X205446253Y-152582932D01*
X205209487Y-152681004D01*
X204958139Y-152731000D01*
X204701861Y-152731000D01*
X204450513Y-152681004D01*
X204213747Y-152582932D01*
X204213746Y-152582932D01*
X204213745Y-152582931D01*
X204000661Y-152440553D01*
X203819447Y-152259339D01*
X203677069Y-152046255D01*
X203652215Y-151986253D01*
X203578996Y-151809487D01*
X203529000Y-151558139D01*
X203529000Y-151301861D01*
X203578996Y-151050513D01*
X203677068Y-150813747D01*
X203717159Y-150753747D01*
X203819447Y-150600661D01*
X204000661Y-150419447D01*
X204213745Y-150277069D01*
X204213747Y-150277068D01*
X204450513Y-150178996D01*
X204701861Y-150129000D01*
X204958139Y-150129000D01*
X205209487Y-150178996D01*
G37*
G36*
X200199487Y-150118996D02*
G01*
X200436253Y-150217068D01*
X200436255Y-150217069D01*
X200526050Y-150277068D01*
X200649339Y-150359447D01*
X200830553Y-150540661D01*
X200972932Y-150753747D01*
X201071004Y-150990513D01*
X201121000Y-151241861D01*
X201121000Y-151498139D01*
X201071004Y-151749487D01*
X200972932Y-151986253D01*
X200972931Y-151986255D01*
X200830553Y-152199339D01*
X200649339Y-152380553D01*
X200436255Y-152522931D01*
X200436254Y-152522932D01*
X200436253Y-152522932D01*
X200199487Y-152621004D01*
X199948139Y-152671000D01*
X199691861Y-152671000D01*
X199440513Y-152621004D01*
X199203747Y-152522932D01*
X199203746Y-152522932D01*
X199203745Y-152522931D01*
X198990661Y-152380553D01*
X198809447Y-152199339D01*
X198667069Y-151986255D01*
X198667068Y-151986253D01*
X198568996Y-151749487D01*
X198519000Y-151498139D01*
X198519000Y-151241861D01*
X198568996Y-150990513D01*
X198667068Y-150753747D01*
X198809447Y-150540661D01*
X198990661Y-150359447D01*
X199113950Y-150277068D01*
X199203745Y-150217069D01*
X199203747Y-150217068D01*
X199440513Y-150118996D01*
X199691861Y-150069000D01*
X199948139Y-150069000D01*
X200199487Y-150118996D01*
G37*
G36*
X193791000Y-152251000D02*
G01*
X191989000Y-152251000D01*
X191989000Y-150449000D01*
X193791000Y-150449000D01*
X193791000Y-152251000D01*
G37*
G36*
X211561000Y-152231000D02*
G01*
X209759000Y-152231000D01*
X209759000Y-150429000D01*
X211561000Y-150429000D01*
X211561000Y-152231000D01*
G37*
G36*
X192474795Y-147280156D02*
G01*
X192581150Y-147301311D01*
X192781520Y-147384307D01*
X192961844Y-147504795D01*
X193115205Y-147658156D01*
X193235693Y-147838480D01*
X193235693Y-147838481D01*
X193314547Y-148028850D01*
X193318689Y-148038851D01*
X193361000Y-148251560D01*
X193361000Y-148468440D01*
X193318689Y-148681149D01*
X193235693Y-148881520D01*
X193115205Y-149061844D01*
X192961844Y-149215205D01*
X192781520Y-149335693D01*
X192681334Y-149377191D01*
X192581150Y-149418689D01*
X192474794Y-149439845D01*
X192368440Y-149461000D01*
X192151560Y-149461000D01*
X192045206Y-149439845D01*
X191938850Y-149418689D01*
X191838666Y-149377191D01*
X191738480Y-149335693D01*
X191558156Y-149215205D01*
X191404795Y-149061844D01*
X191284307Y-148881520D01*
X191201311Y-148681149D01*
X191159000Y-148468440D01*
X191159000Y-148251560D01*
X191201311Y-148038851D01*
X191205454Y-148028850D01*
X191284307Y-147838481D01*
X191284307Y-147838480D01*
X191404795Y-147658156D01*
X191558156Y-147504795D01*
X191738480Y-147384307D01*
X191838666Y-147342809D01*
X191938850Y-147301311D01*
X192045205Y-147280156D01*
X192151560Y-147259000D01*
X192368440Y-147259000D01*
X192474795Y-147280156D01*
G37*
G36*
X211574795Y-147270156D02*
G01*
X211681150Y-147291311D01*
X211781334Y-147332809D01*
X211881520Y-147374307D01*
X212061844Y-147494795D01*
X212215205Y-147648156D01*
X212335693Y-147828480D01*
X212418689Y-148028850D01*
X212461000Y-148241561D01*
X212461000Y-148458439D01*
X212418689Y-148671150D01*
X212377191Y-148771334D01*
X212335693Y-148871520D01*
X212215205Y-149051844D01*
X212061844Y-149205205D01*
X211881520Y-149325693D01*
X211781334Y-149367191D01*
X211681150Y-149408689D01*
X211574795Y-149429844D01*
X211468440Y-149451000D01*
X211251560Y-149451000D01*
X211145205Y-149429844D01*
X211038850Y-149408689D01*
X210838480Y-149325693D01*
X210658156Y-149205205D01*
X210504795Y-149051844D01*
X210384307Y-148871520D01*
X210342809Y-148771334D01*
X210301311Y-148671150D01*
X210259000Y-148458439D01*
X210259000Y-148241561D01*
X210301311Y-148028850D01*
X210342809Y-147928666D01*
X210384307Y-147828480D01*
X210504795Y-147648156D01*
X210658156Y-147494795D01*
X210838480Y-147374307D01*
X210938666Y-147332809D01*
X211038850Y-147291311D01*
X211145205Y-147270156D01*
X211251560Y-147249000D01*
X211468440Y-147249000D01*
X211574795Y-147270156D01*
G37*
M02*
