G04 #@! TF.GenerationSoftware,KiCad,Pcbnew,5.1.5+dfsg1-2build2*
G04 #@! TF.CreationDate,2021-08-24T21:55:17+05:30*
G04 #@! TF.ProjectId,AS5600-Encoder-PCB,41533536-3030-42d4-956e-636f6465722d,rev?*
G04 #@! TF.SameCoordinates,Original*
G04 #@! TF.FileFunction,Legend,Top*
G04 #@! TF.FilePolarity,Positive*
%FSLAX46Y46*%
G04 Gerber Fmt 4.6, Leading zero omitted, Abs format (unit mm)*
G04 Created by KiCad (PCBNEW 5.1.5+dfsg1-2build2) date 2021-08-24 21:55:17*
%MOMM*%
%LPD*%
G04 APERTURE LIST*
%ADD10C,0.100000*%
%ADD11C,0.210000*%
%ADD12C,0.225000*%
%ADD13C,0.120000*%
%ADD14C,0.200000*%
%ADD15C,0.150000*%
G04 APERTURE END LIST*
D10*
X201319787Y-155013645D02*
X201319787Y-154785074D01*
X201319787Y-154899360D02*
X201719787Y-154899360D01*
X201662644Y-154861264D01*
X201624549Y-154823169D01*
X201605501Y-154785074D01*
D11*
X198459017Y-161494220D02*
X199030446Y-161494220D01*
X198619732Y-162494220D02*
X198744732Y-161494220D01*
X199238779Y-162494220D02*
X199322113Y-161827554D01*
X199363779Y-161494220D02*
X199310208Y-161541840D01*
X199351875Y-161589459D01*
X199405446Y-161541840D01*
X199363779Y-161494220D01*
X199351875Y-161589459D01*
X199655446Y-161827554D02*
X200036398Y-161827554D01*
X199839970Y-161494220D02*
X199732827Y-162351363D01*
X199768541Y-162446601D01*
X199857827Y-162494220D01*
X199953065Y-162494220D01*
X200714970Y-162494220D02*
X200780446Y-161970411D01*
X200744732Y-161875173D01*
X200655446Y-161827554D01*
X200464970Y-161827554D01*
X200363779Y-161875173D01*
X200720922Y-162446601D02*
X200619732Y-162494220D01*
X200381637Y-162494220D01*
X200292351Y-162446601D01*
X200256637Y-162351363D01*
X200268541Y-162256125D01*
X200328065Y-162160887D01*
X200429256Y-162113268D01*
X200667351Y-162113268D01*
X200768541Y-162065649D01*
X201274494Y-161827554D02*
X201191160Y-162494220D01*
X201262589Y-161922792D02*
X201316160Y-161875173D01*
X201417351Y-161827554D01*
X201560208Y-161827554D01*
X201649494Y-161875173D01*
X201685208Y-161970411D01*
X201619732Y-162494220D01*
X202572113Y-162494220D02*
X202095922Y-162494220D01*
X202220922Y-161494220D01*
X203292351Y-162446601D02*
X203191160Y-162494220D01*
X203000684Y-162494220D01*
X202911398Y-162446601D01*
X202875684Y-162351363D01*
X202923303Y-161970411D01*
X202982827Y-161875173D01*
X203084017Y-161827554D01*
X203274494Y-161827554D01*
X203363779Y-161875173D01*
X203399494Y-161970411D01*
X203387589Y-162065649D01*
X202899494Y-162160887D01*
X204274494Y-161827554D02*
X204173303Y-162637078D01*
X204113779Y-162732316D01*
X204060208Y-162779935D01*
X203959017Y-162827554D01*
X203816160Y-162827554D01*
X203726875Y-162779935D01*
X204197113Y-162446601D02*
X204095922Y-162494220D01*
X203905446Y-162494220D01*
X203816160Y-162446601D01*
X203774494Y-162398982D01*
X203738779Y-162303744D01*
X203774494Y-162018030D01*
X203834017Y-161922792D01*
X203887589Y-161875173D01*
X203988779Y-161827554D01*
X204179256Y-161827554D01*
X204268541Y-161875173D01*
X204625684Y-162446601D02*
X204714970Y-162494220D01*
X204905446Y-162494220D01*
X205006637Y-162446601D01*
X205066160Y-162351363D01*
X205072113Y-162303744D01*
X205036398Y-162208506D01*
X204947113Y-162160887D01*
X204804256Y-162160887D01*
X204714970Y-162113268D01*
X204679256Y-162018030D01*
X204685208Y-161970411D01*
X204744732Y-161875173D01*
X204845922Y-161827554D01*
X204988779Y-161827554D01*
X205078065Y-161875173D01*
D12*
X195807434Y-147987234D02*
X195936005Y-148030091D01*
X195978862Y-148072948D01*
X196021720Y-148158662D01*
X196021720Y-148287234D01*
X195978862Y-148372948D01*
X195936005Y-148415805D01*
X195850291Y-148458662D01*
X195507434Y-148458662D01*
X195507434Y-147558662D01*
X195807434Y-147558662D01*
X195893148Y-147601520D01*
X195936005Y-147644377D01*
X195978862Y-147730091D01*
X195978862Y-147815805D01*
X195936005Y-147901520D01*
X195893148Y-147944377D01*
X195807434Y-147987234D01*
X195507434Y-147987234D01*
X196836005Y-148458662D02*
X196407434Y-148458662D01*
X196407434Y-147558662D01*
X197136005Y-148458662D02*
X197136005Y-147558662D01*
X197350291Y-147558662D01*
X197478862Y-147601520D01*
X197564577Y-147687234D01*
X197607434Y-147772948D01*
X197650291Y-147944377D01*
X197650291Y-148072948D01*
X197607434Y-148244377D01*
X197564577Y-148330091D01*
X197478862Y-148415805D01*
X197350291Y-148458662D01*
X197136005Y-148458662D01*
X198550291Y-148372948D02*
X198507434Y-148415805D01*
X198378862Y-148458662D01*
X198293148Y-148458662D01*
X198164577Y-148415805D01*
X198078862Y-148330091D01*
X198036005Y-148244377D01*
X197993148Y-148072948D01*
X197993148Y-147944377D01*
X198036005Y-147772948D01*
X198078862Y-147687234D01*
X198164577Y-147601520D01*
X198293148Y-147558662D01*
X198378862Y-147558662D01*
X198507434Y-147601520D01*
X198550291Y-147644377D01*
X199621720Y-147987234D02*
X199921720Y-147987234D01*
X200050291Y-148458662D02*
X199621720Y-148458662D01*
X199621720Y-147558662D01*
X200050291Y-147558662D01*
X200436005Y-147858662D02*
X200436005Y-148458662D01*
X200436005Y-147944377D02*
X200478862Y-147901520D01*
X200564577Y-147858662D01*
X200693148Y-147858662D01*
X200778862Y-147901520D01*
X200821720Y-147987234D01*
X200821720Y-148458662D01*
X201636005Y-148415805D02*
X201550291Y-148458662D01*
X201378862Y-148458662D01*
X201293148Y-148415805D01*
X201250291Y-148372948D01*
X201207434Y-148287234D01*
X201207434Y-148030091D01*
X201250291Y-147944377D01*
X201293148Y-147901520D01*
X201378862Y-147858662D01*
X201550291Y-147858662D01*
X201636005Y-147901520D01*
X202150291Y-148458662D02*
X202064577Y-148415805D01*
X202021720Y-148372948D01*
X201978862Y-148287234D01*
X201978862Y-148030091D01*
X202021720Y-147944377D01*
X202064577Y-147901520D01*
X202150291Y-147858662D01*
X202278862Y-147858662D01*
X202364577Y-147901520D01*
X202407434Y-147944377D01*
X202450291Y-148030091D01*
X202450291Y-148287234D01*
X202407434Y-148372948D01*
X202364577Y-148415805D01*
X202278862Y-148458662D01*
X202150291Y-148458662D01*
X203221720Y-148458662D02*
X203221720Y-147558662D01*
X203221720Y-148415805D02*
X203136005Y-148458662D01*
X202964577Y-148458662D01*
X202878862Y-148415805D01*
X202836005Y-148372948D01*
X202793148Y-148287234D01*
X202793148Y-148030091D01*
X202836005Y-147944377D01*
X202878862Y-147901520D01*
X202964577Y-147858662D01*
X203136005Y-147858662D01*
X203221720Y-147901520D01*
X203993148Y-148415805D02*
X203907434Y-148458662D01*
X203736005Y-148458662D01*
X203650291Y-148415805D01*
X203607434Y-148330091D01*
X203607434Y-147987234D01*
X203650291Y-147901520D01*
X203736005Y-147858662D01*
X203907434Y-147858662D01*
X203993148Y-147901520D01*
X204036005Y-147987234D01*
X204036005Y-148072948D01*
X203607434Y-148158662D01*
X204421720Y-148458662D02*
X204421720Y-147858662D01*
X204421720Y-148030091D02*
X204464577Y-147944377D01*
X204507434Y-147901520D01*
X204593148Y-147858662D01*
X204678862Y-147858662D01*
X205664577Y-148458662D02*
X205664577Y-147558662D01*
X206007434Y-147558662D01*
X206093148Y-147601520D01*
X206136005Y-147644377D01*
X206178862Y-147730091D01*
X206178862Y-147858662D01*
X206136005Y-147944377D01*
X206093148Y-147987234D01*
X206007434Y-148030091D01*
X205664577Y-148030091D01*
X207078862Y-148372948D02*
X207036005Y-148415805D01*
X206907434Y-148458662D01*
X206821720Y-148458662D01*
X206693148Y-148415805D01*
X206607434Y-148330091D01*
X206564577Y-148244377D01*
X206521720Y-148072948D01*
X206521720Y-147944377D01*
X206564577Y-147772948D01*
X206607434Y-147687234D01*
X206693148Y-147601520D01*
X206821720Y-147558662D01*
X206907434Y-147558662D01*
X207036005Y-147601520D01*
X207078862Y-147644377D01*
X207764577Y-147987234D02*
X207893148Y-148030091D01*
X207936005Y-148072948D01*
X207978862Y-148158662D01*
X207978862Y-148287234D01*
X207936005Y-148372948D01*
X207893148Y-148415805D01*
X207807434Y-148458662D01*
X207464577Y-148458662D01*
X207464577Y-147558662D01*
X207764577Y-147558662D01*
X207850291Y-147601520D01*
X207893148Y-147644377D01*
X207936005Y-147730091D01*
X207936005Y-147815805D01*
X207893148Y-147901520D01*
X207850291Y-147944377D01*
X207764577Y-147987234D01*
X207464577Y-147987234D01*
D13*
X204718733Y-151370000D02*
X205061267Y-151370000D01*
X204718733Y-150350000D02*
X205061267Y-150350000D01*
X204738733Y-154200000D02*
X205081267Y-154200000D01*
X204738733Y-153180000D02*
X205081267Y-153180000D01*
X191560000Y-150020000D02*
X192890000Y-150020000D01*
X191560000Y-151350000D02*
X191560000Y-150020000D01*
X191560000Y-152620000D02*
X194220000Y-152620000D01*
X194220000Y-152620000D02*
X194220000Y-160300000D01*
X191560000Y-152620000D02*
X191560000Y-160300000D01*
X191560000Y-160300000D02*
X194220000Y-160300000D01*
X195620000Y-151927936D02*
X195620000Y-153132064D01*
X197440000Y-151927936D02*
X197440000Y-153132064D01*
X200640000Y-153132064D02*
X200640000Y-151927936D01*
X198820000Y-153132064D02*
X198820000Y-151927936D01*
X209330000Y-150000000D02*
X210660000Y-150000000D01*
X209330000Y-151330000D02*
X209330000Y-150000000D01*
X209330000Y-152600000D02*
X211990000Y-152600000D01*
X211990000Y-152600000D02*
X211990000Y-160280000D01*
X209330000Y-152600000D02*
X209330000Y-160280000D01*
X209330000Y-160280000D02*
X211990000Y-160280000D01*
D14*
X198312360Y-155336880D02*
X199812360Y-155336880D01*
X200162360Y-160366880D02*
X200162360Y-155466880D01*
X203362360Y-160366880D02*
X200162360Y-160366880D01*
X203362360Y-155466880D02*
X203362360Y-160366880D01*
X200162360Y-155466880D02*
X203362360Y-155466880D01*
D15*
X207478646Y-151182024D02*
X207211980Y-150801072D01*
X207021503Y-151182024D02*
X207021503Y-150382024D01*
X207326265Y-150382024D01*
X207402456Y-150420120D01*
X207440551Y-150458215D01*
X207478646Y-150534405D01*
X207478646Y-150648691D01*
X207440551Y-150724881D01*
X207402456Y-150762977D01*
X207326265Y-150801072D01*
X207021503Y-150801072D01*
X207783408Y-150458215D02*
X207821503Y-150420120D01*
X207897694Y-150382024D01*
X208088170Y-150382024D01*
X208164360Y-150420120D01*
X208202456Y-150458215D01*
X208240551Y-150534405D01*
X208240551Y-150610596D01*
X208202456Y-150724881D01*
X207745313Y-151182024D01*
X208240551Y-151182024D01*
X207592946Y-154138584D02*
X207326280Y-153757632D01*
X207135803Y-154138584D02*
X207135803Y-153338584D01*
X207440565Y-153338584D01*
X207516756Y-153376680D01*
X207554851Y-153414775D01*
X207592946Y-153490965D01*
X207592946Y-153605251D01*
X207554851Y-153681441D01*
X207516756Y-153719537D01*
X207440565Y-153757632D01*
X207135803Y-153757632D01*
X208354851Y-154138584D02*
X207897708Y-154138584D01*
X208126280Y-154138584D02*
X208126280Y-153338584D01*
X208050089Y-153452870D01*
X207973899Y-153529060D01*
X207897708Y-153567156D01*
X193963333Y-160651904D02*
X193963333Y-161223333D01*
X193925238Y-161337619D01*
X193849047Y-161413809D01*
X193734761Y-161451904D01*
X193658571Y-161451904D01*
X194763333Y-161451904D02*
X194306190Y-161451904D01*
X194534761Y-161451904D02*
X194534761Y-160651904D01*
X194458571Y-160766190D01*
X194382380Y-160842380D01*
X194306190Y-160880476D01*
X196452506Y-149731694D02*
X196414411Y-149769789D01*
X196300125Y-149807884D01*
X196223935Y-149807884D01*
X196109649Y-149769789D01*
X196033459Y-149693599D01*
X195995363Y-149617408D01*
X195957268Y-149465027D01*
X195957268Y-149350741D01*
X195995363Y-149198360D01*
X196033459Y-149122170D01*
X196109649Y-149045980D01*
X196223935Y-149007884D01*
X196300125Y-149007884D01*
X196414411Y-149045980D01*
X196452506Y-149084075D01*
X196757268Y-149084075D02*
X196795363Y-149045980D01*
X196871554Y-149007884D01*
X197062030Y-149007884D01*
X197138220Y-149045980D01*
X197176316Y-149084075D01*
X197214411Y-149160265D01*
X197214411Y-149236456D01*
X197176316Y-149350741D01*
X196719173Y-149807884D01*
X197214411Y-149807884D01*
X199569086Y-149746934D02*
X199530991Y-149785029D01*
X199416705Y-149823124D01*
X199340515Y-149823124D01*
X199226229Y-149785029D01*
X199150039Y-149708839D01*
X199111943Y-149632648D01*
X199073848Y-149480267D01*
X199073848Y-149365981D01*
X199111943Y-149213600D01*
X199150039Y-149137410D01*
X199226229Y-149061220D01*
X199340515Y-149023124D01*
X199416705Y-149023124D01*
X199530991Y-149061220D01*
X199569086Y-149099315D01*
X200330991Y-149823124D02*
X199873848Y-149823124D01*
X200102420Y-149823124D02*
X200102420Y-149023124D01*
X200026229Y-149137410D01*
X199950039Y-149213600D01*
X199873848Y-149251696D01*
X209073333Y-160751904D02*
X209073333Y-161323333D01*
X209035238Y-161437619D01*
X208959047Y-161513809D01*
X208844761Y-161551904D01*
X208768571Y-161551904D01*
X209416190Y-160828095D02*
X209454285Y-160790000D01*
X209530476Y-160751904D01*
X209720952Y-160751904D01*
X209797142Y-160790000D01*
X209835238Y-160828095D01*
X209873333Y-160904285D01*
X209873333Y-160980476D01*
X209835238Y-161094761D01*
X209378095Y-161551904D01*
X209873333Y-161551904D01*
X205881067Y-158045104D02*
X205881067Y-157245104D01*
X206719162Y-157968914D02*
X206681067Y-158007009D01*
X206566781Y-158045104D01*
X206490591Y-158045104D01*
X206376305Y-158007009D01*
X206300115Y-157930819D01*
X206262020Y-157854628D01*
X206223924Y-157702247D01*
X206223924Y-157587961D01*
X206262020Y-157435580D01*
X206300115Y-157359390D01*
X206376305Y-157283200D01*
X206490591Y-157245104D01*
X206566781Y-157245104D01*
X206681067Y-157283200D01*
X206719162Y-157321295D01*
X207481067Y-158045104D02*
X207023924Y-158045104D01*
X207252496Y-158045104D02*
X207252496Y-157245104D01*
X207176305Y-157359390D01*
X207100115Y-157435580D01*
X207023924Y-157473676D01*
M02*
